<svg xmlns="http://www.w3.org/2000/svg" width="250" height="250" viewBox="0 0 250 250"><g fill="none" fill-rule="evenodd" stroke="#033b4c" stroke-width="6" transform="translate(75.075 30.03)"><path d="M6.239 121.47c-2.542-1.437-6.236-4.7-1.408-10.097 1.063-1.189 2.58-1.828 4.146-1.828h86.06c2.226 0 4.398.93 5.835 2.687 1.647 2.013 2.424 5.07-1.925 8.877a5.77 5.77 0 0 0-1.908 3.386L86.88 185.526c-.448 2.695-2.708 4.664-5.352 4.664H25.49c-2.594 0-4.826-1.897-5.326-4.529L8.58 124.762a4.8 4.8 0 0 0-2.34-3.292Z"/><path stroke-linecap="round" d="M51.868 18.91v90.177"/><path d="M51.868 52.28s31.195-24.471 0-52.28c0 0-27.967 28.365 0 52.28Z"/><path stroke-linecap="round" d="M51.868 90.657 16.371 66.741m36.214 4.171 34.242-15.294"/><path d="M43.328 84.514S39.12 44.258 0 57.575c0 0 9.097 39.402 43.328 26.939Zm16.845-17.251s35.332 17.45 44.932-23.967c0 0-37.198-12.7-44.932 23.967Z"/><path stroke-linecap="round" d="M7.942 122.128H97.04"/></g></svg>