<svg xmlns="http://www.w3.org/2000/svg" width="250" height="250" viewBox="0 0 250 250"><g fill="none" fill-rule="evenodd" stroke="#033b4c" transform="translate(55.062 40.04)"><ellipse cx="36.417" cy="18.7" stroke-width="6" rx="8.835" ry="4.675"/><path stroke-linejoin="round" stroke-width="6" d="m.001 21.503.214.347c1.982 9.506 17.514 16.907 36.38 16.907l.44-.001h.453c11.242 0 17.353-1.674 26.851-6.268l1.94-.947c8.743-4.27 14.097-5.96 22.918-6.328 20.957-1.23 37.968 2.634 50.932 11.65v132.739c-12.216-9.898-29.05-14.251-50.667-12.982-7.626.317-12.258 1.68-19.715 5.245l-2.538 1.234c-10.478 5.12-17.356 7.071-29.72 7.071-16.504 0-29.071-4.582-37.489-13.76z"/><path stroke-dasharray="4.55 8" stroke-linecap="round" stroke-linejoin="round" stroke-width="4.5" d="m88.964 25.245.06 129.96"/><ellipse cx="36.417" cy="19.168" stroke-width="6" rx="36.414" ry="19.168"/></g></svg>