<svg xmlns="http://www.w3.org/2000/svg" width="250" height="250" fill="none" viewBox="0 0 250 250"><path stroke="#05475c" stroke-linejoin="round" stroke-width="6" d="M88.525 105.033q-.41-17.684-9.268-26.132-8.86-8.449-25.988-7.493 19.245-3.311 24.096-8.904 4.851-5.591 7.491-25.807 2.29 17.928 10.39 25.388 8.1 7.458 23.659 5.965-18.23 3.78-23.15 9.498-4.919 5.717-7.23 27.485Zm47.697 98.453q1.448-31.075-13.062-46.99-14.508-15.913-44.679-16.342 34.17-3.443 43.368-12.659 9.197-9.215 16.304-44.36 1.821 31.738 15.12 45.822 13.3 14.083 40.782 13.374-32.451 4.395-41.781 13.82-9.33 9.427-16.052 47.335Z" clip-rule="evenodd"/><path stroke="#05475c" stroke-linecap="round" stroke-linejoin="round" stroke-width="6" d="m188.045 82.5.5 24.5M80.607 179.218l.72 35.28M178.545 95h20M66.927 197.218h28.8"/></svg>