<svg xmlns="http://www.w3.org/2000/svg" width="250" height="250" fill="none" viewBox="0 0 250 250"><g stroke="#05475c" clip-path="url(#a)"><path stroke-linejoin="round" stroke-width="5.58" d="M167.607 81.717h15.943a3.025 3.025 0 0 1 2.947 3.71l-.693 2.98 3.251 8.31h-27l3.538-8.31-.87-2.754a3.025 3.025 0 0 1 2.884-3.936Z" clip-rule="evenodd"/><path stroke-linejoin="round" stroke-width="6" d="M64.26 133.688h19.308a3.253 3.253 0 0 1 3.252 3.253v10.747H61.008v-10.747a3.253 3.253 0 0 1 3.253-3.253Zm93.873-34.538c0-3.993 35.897-3.53 35.897 0v113.01c0 2.55-8.027 4.166-17.317 4.166s-18.58-1.616-18.58-4.166z" clip-rule="evenodd"/><path stroke-width="6" d="M77.046 95.33c5.697-2.9 7.836-9.017 6.082-12.457s-6.74-2.9-12.437 0S62.045 91.03 63.8 94.47c1.754 3.44 7.548 3.759 13.246.86Z" clip-rule="evenodd"/><path stroke-linecap="round" stroke-width="6" d="M83.786 84.725 84 133M63.186 94.47l.14 37.688"/><path stroke-linejoin="round" stroke-width="6" d="M56 150.047c0-2.329 36.337-2.06 36.337 0v64.275c0 1.488-8.125 4.077-17.529 4.077S56 215.81 56 214.322zm51.246-8.685c0-2.595 35.758-2.295 35.758 0v71.621c0 1.658-7.996 4.543-17.25 4.543s-18.508-2.885-18.508-4.543z" clip-rule="evenodd"/><path stroke-linecap="square" stroke-width="6" d="m126.069 36.557-.542 100.481"/><path stroke-linecap="round" stroke-width="6" d="M119.794 32.22h11.853m-14.03 7.664h16.48m-16.48 7.664h16.48m-16.48 7.664h16.48m-16.48 7.663h16.48"/></g><defs><clipPath id="a"><path fill="#fff" d="M0 0h250v250H0z"/></clipPath></defs></svg>