<svg xmlns="http://www.w3.org/2000/svg" width="250" height="250" fill="none" viewBox="0 0 250 250"><path stroke="#05475c" stroke-width="6" d="M89.69 96.855c-3.098-20.462-20.313-36.901-8.082-60.124 6.416-12.184 19.94-11.904 27.568-3.115 6.913 7.963 8.619 23.342 2.579 34.801-12.706 24.107-10.575 39.914-10.575 86.514q0 40.701 1.812 65.49a6.386 6.386 0 0 1-6.369 6.852 6.744 6.744 0 0 1-6.741-6.927q2.808-103.682-.192-123.491Zm50.292-68.789 28.037 5.583a5.03 5.03 0 0 1 4.026 4.409q1.55 15.06-.425 26.882-1.87 11.185-11.034 43.291a87.2 87.2 0 0 0-3.321 25.982l2.075 87.91a5.03 5.03 0 0 1-4.911 5.148l-.119.002h-4.616a5.03 5.03 0 0 1-5.031-5.031l.001-.121 2.067-86.504a87.2 87.2 0 0 0-3.98-28.198q-10.29-32.734-11.687-48.043-1.436-15.735 3.253-28.16a5.024 5.024 0 0 1 5.665-3.15Z" clip-rule="evenodd"/></svg>