<svg xmlns="http://www.w3.org/2000/svg" width="250" height="250" viewBox="0 0 250 250"><g fill="none" fill-rule="evenodd" stroke="#033b4c" stroke-width="6"><g transform="translate(39.073 58.92)"><path d="M5.08 1.754c4.797-2.339 158.97-2.339 163.384 0s5.167 69.34 2.151 80.697-58.848 45.958-66.253 50.513c-7.405 4.556-30.55 2.979-37.68 0S5.188 93.72 1.735 82.451.285 4.09 5.081 1.754Z"/><path stroke-linecap="round" stroke-linejoin="round" d="M66.682 132.964q-7.17-27.032-22.776-38.084T1.736 82.45m102.632 50.514q7.17-27.032 22.777-38.084 15.606-11.053 42.17-12.43"/><path d="M171.505 23.225h-45.894c-4.32 0-8.706 7.963-8.706 15.925s4.787 15.925 8.706 15.925h45.894M0 55.075h49.05c4.319 0 8.705-7.962 8.705-15.925 0-7.962-4.786-15.925-8.706-15.925H3.155"/></g><path d="M210.579 133.844q-1.485 21.505-7.205 27.599t-44.228 30.442q-5.24 2.855-23.647 2.855m-95.55-60.896q1.485 21.505 7.205 27.599t44.228 30.442q5.239 2.855 23.647 2.855h20.47"/></g></svg>