<svg xmlns="http://www.w3.org/2000/svg" width="250" height="250" viewBox="0 0 250 250"><g fill="none" fill-rule="evenodd" stroke="#013b4b" stroke-linecap="round" stroke-linejoin="round" stroke-width="6" transform="translate(39.585 39.585)"><path d="M139.594 80.334h27.653c4.36 0 7.928 3.536 7.928 7.858h0c0 4.321-3.568 7.858-7.928 7.858h-27.653m-39.268 0H7.928C3.568 96.05 0 92.513 0 88.192h0c0-4.322 3.568-7.858 7.928-7.858h92.398"/><path d="M164.18 96.05 149.353 147c-2.238 7.688-9.337 12.984-17.412 12.984H43.235c-8.075 0-15.174-5.296-17.412-12.983L10.927 95.814"/><path d="M100.326 122.674h39.269V76.119h-39.269zm-63.76 47.496 7.444-10.186m94.697 10.186-7.443-10.186m-15.57-147.6C119.388 5.061 127.037 0 135.822 0h0c12.363 0 22.481 10.027 22.481 22.283v56.528M104.251 3.002l19.292 19.122m-14.409 4.216-9.792 12.471m.984-19.266L80.936 44.24m10.963 4.05-8.617 10.974"/></g></svg>