<svg xmlns="http://www.w3.org/2000/svg" width="250" height="250" viewBox="0 0 250 250"><g fill="none" fill-rule="evenodd" stroke="#033b4c" transform="translate(37.977 17.045)"><path stroke-linecap="round" stroke-linejoin="round" stroke-width="6" d="M5.324 63.525c-1.7-.91 1.433-13.724 10.017-23.73s47.233-15.898 51.514-16.779c2.951-.607 3.419 1.403 3.419 1.403s6.775-1.494 6.879-.873c.262 1.563 2.007 11.694 2.007 11.694l-6.105 1.134s.226 3.868-.897 4.077c-1.124.209 7.63 22.306 11.525 26.08 2.404 2.33-.852 1.746-2.605 1.1-1.11-.409-5.65-2.605-10.289-9.559s-4.697-10.448-4.697-10.448-6.795-.334-7.115.269q-.32.602-5.191 4.22s.163 7.894 1.005 12.296 1.597 9.542 1.597 9.542 5.384-1.178 13.559 7.398 7.777 13.751 11.04 33.877c3.264 20.126 13.884 76.659 13.37 79.25-.514 2.593-.492 6.496-5.348 9.57-4.856 3.072-35.202 9.252-43.024 9.077s-10.611-5.519-11.545-7.95-13.553-81.605-13.553-81.605-2.703-14.26-3.024-23.1c-.322-8.842 3.66-12.73 5.15-14.526s8.48-7.22 8.48-7.22-1.742-16.066-3.555-17.466-13.657 1.452-16.006 1.888-5.144 1.165-6.608.381"/><path stroke-linecap="round" stroke-linejoin="round" stroke-width="6" d="M31.395 79.007s7.09 1.63 13.506.275c6.416-1.356 11.34-5.056 11.34-5.056M30.208 62.712s6.16 1.525 12.17.236c6.011-1.288 10.576-5.058 10.576-5.058M27.78 165.232s.681 2.39 7.477 1.967 42.156-7.112 47.45-8.814c5.295-1.703 5.107-4.305 5.107-4.305m-13.76 25.217L48.74 184c-1.405.261-2.796-1.037-3.108-2.899l-.47-2.812c-.312-1.862.574-3.583 1.978-3.844l25.313-4.702c1.405-.261 2.796 1.037 3.108 2.899l.47 2.812c.312 1.862-.574 3.583-1.978 3.844"/><path stroke-linecap="square" stroke-width="6" d="m69.195 25.292 2.576 13.739"/><path stroke-dasharray="4.55 8" stroke-linecap="round" stroke-linejoin="round" stroke-width="4.5" d="M90.926 21.568 118.998 3.43m-20.14 23.422 29.24-5.222M93.112 35.369l30.211 5.46"/><g stroke-width="6" transform="rotate(1 -5265.182 6711.87)"><path d="M14.41 2.196c.192-.945.776-1.292 1.074-1.344.905-.155 16.265 2.975 16.265 2.975s.889.275.592 1.46c-.102.409-1.108 8.27-1.441 8.86-.335.592-1.128.502-1.707 1.703s3.114 3.228 3.828 6.757-6.559 41.556-6.559 41.556-.536 2.603-2.912 2.779c-1.113.082-4.422.685-10.234-.445-7.213-1.402-10.519-3.351-10.519-3.351S.683 62.341.803 60.533s6.854-40.156 7.23-41.162c1.276-3.405 6.19-4.675 6.392-5.858S12.8 12.05 12.88 11.02s1.441-8.383 1.53-8.823ZM29.193 15.85l-14.768-2.337"/><path d="M28.876 43.643 3.568 49.607m3.887-26.683q3.902 2.978 11.097 4.536t12.316 1.005"/></g></g></svg>