<svg xmlns="http://www.w3.org/2000/svg" width="250" height="250" viewBox="0 0 250 250"><g fill="none" fill-rule="evenodd" stroke="#033b4c" stroke-width="6" transform="rotate(21 -4.796 173.949)"><path d="M131.41 14.456c6.96-2.954 14.35-3.07 20.737-.572 6.16 2.41 11.356 7.257 14.32 14.239 3.305 7.788 1.042 17.42-2.306 24.961a54 54 0 0 1-1.438 2.992 54 54 0 0 1 3.151 1.043c7.75 2.83 16.251 7.893 19.557 15.682 2.964 6.982 2.84 14.085.295 20.192-2.638 6.329-7.857 11.565-14.816 14.52-6.61 2.805-13.756 2.649-20.055.143-7.188-2.86-13.276-8.773-16.257-16.858l-53.175 22.571c3.746 7.76 3.77 16.248.835 23.405-2.574 6.272-7.426 11.52-14.036 14.326-6.959 2.954-14.35 3.07-20.736.572-6.161-2.41-11.356-7.257-14.32-14.238-3.306-7.789-1.042-17.421 2.305-24.962.44-.991.92-1.993 1.438-2.992a54 54 0 0 1-3.15-1.043c-7.75-2.83-16.252-7.893-19.558-15.682-2.963-6.981-2.84-14.085-.295-20.191 2.639-6.33 7.857-11.566 14.816-14.52 6.128-2.6 12.717-2.657 18.665-.654 6.836 2.302 12.826 7.318 16.332 14.328l53.216-22.59c-2.607-7.39-2.054-15.184 1.039-21.7 2.69-5.67 7.309-10.371 13.436-12.972Z"/><path stroke-linecap="round" stroke-linejoin="round" d="M54.573 143.315c10.864 0 19.67-8.871 19.67-19.815m57.207-98.265c9.679-4.932 21.553-1.025 26.522 8.726"/></g></svg>