<svg xmlns="http://www.w3.org/2000/svg" width="250" height="250" fill="none"><path fill="#033b4c" fill-rule="evenodd" d="m194.946 188.486 7.67-2.423a2.756 2.756 0 0 1 3.472 1.846 2.857 2.857 0 0 1-1.88 3.535l-7.67 2.423a2.755 2.755 0 0 1-3.457-1.797l-.015-.048a2.86 2.86 0 0 1 1.88-3.536m-2.083-53.562 7.186 3.782a2.87 2.87 0 0 1 1.237 3.809 2.723 2.723 0 0 1-3.646 1.237l-.064-.032-7.186-3.783a2.87 2.87 0 0 1-1.237-3.809 2.723 2.723 0 0 1 3.646-1.237zm6.397 30.205 5.056-6.686a2.67 2.67 0 0 1 3.743-.52l.066.052a2.847 2.847 0 0 1 .483 3.932l-5.056 6.686a2.67 2.67 0 0 1-3.743.52l-.067-.052a2.847 2.847 0 0 1-.482-3.932m-19.968-10.445 7.731-2.442a2.756 2.756 0 0 1 3.457 1.798l.015.048.018.061a2.79 2.79 0 0 1-1.837 3.455l-7.731 2.442a2.755 2.755 0 0 1-3.457-1.797l-.014-.048-.018-.061a2.793 2.793 0 0 1 1.836-3.456m2.742 19.685 5.581 6.182a2.86 2.86 0 0 1-.139 3.972 2.676 2.676 0 0 1-3.785-.071q-.03-.03-.06-.063l-5.58-6.183a2.855 2.855 0 0 1 .139-3.971 2.676 2.676 0 0 1 3.844.134" clip-rule="evenodd"/><path stroke="#033b4c" stroke-linecap="round" stroke-width="6" d="M206.148 119.661v4.524l.926.353q12.6 4.977 12.815 15.867.095 4.8.109 13.934l.002 5.431q-.006 7.482-.054 17.23.041 2.95.051 5.643v3.457a296 296 0 0 1-.161 9.075q-.33 9.456-11.847 9.455h-28.808q-11.517 0-11.846-9.455a293 293 0 0 1-.162-9.075v-3.457q.01-2.667.05-5.577c-.024-5.234-.041-9.963-.049-14.206l-.002-8.345q.013-9.264.109-14.11.215-10.844 12.708-15.824l.001-4.92z" clip-rule="evenodd"/><path stroke="#033b4c" stroke-linecap="round" stroke-width="6" d="M210.205 102.746h-33.762a.56.56 0 0 0-.559.559v15.729c0 .309.25.559.559.559h33.762c.308 0 .558-.25.558-.559v-15.729a.56.56 0 0 0-.558-.559Z"/><path stroke="#033b4c" stroke-width="6" d="M48.584 99.981q-1.014-4.9 7.011-10.256l4.4-2.032 3.978-1.838 64.341-29.724q-4.583-10.371-3.947-11.418c.636-1.047 13.469-6.085 14.924-5.691q1.456.393 7.228 8.53 13.458-5.596 17.272-7.065c3.814-1.47 7.374-.587 9.072 3.192s-1.239 6.312-4.041 8q-2.802 1.69-16.711 8.31 3.276 9.322 2.638 10.072c-.637.751-13.137 7.54-14.557 7.152q-1.42-.388-5.786-9.705l-4.787 2.53-68.502 31.971q-11.518 2.873-12.532-2.028Z" clip-rule="evenodd"/><path stroke="#033b4c" stroke-width="6" d="M85.208 199.329c0 1.602 1.455 4.076 4.747 5.046 1.73.509 9.604 2.751 25.515 2.751 15.273 0 22.462-2.35 24.006-2.751 3.305-.859 6.257-2.001 6.257-5.046v-79.361c0-2.748-14.72-14.141-14.99-14.614-.271-.474-.178-3.087 0-3.716.178-.628 1.221-1.004 2.016-2.997s1.165-4.088 1.165-4.975q0-.885-.719-3.2.273-3.442-.446-3.777c-.37-.172-7.522 1.278-15.259 1.311s-17.019-1.354-17.431-1.31c-.851.087-.256 2.05-.51 3.777s-.984 1.898-.984 3.2c0 1.3-.225 2.757.984 4.974s1.842 2.217 2.066 2.681.382 3.238 0 4.032c-.383.793-16.417 11.607-16.417 14.614z" clip-rule="evenodd"/><path stroke="#033b4c" stroke-linecap="round" stroke-width="6" d="M130.085 102c-2.907 1.199-4.085 1.249-10.085 1.249s4.45.282 2.5 0m13.229-33.359a1162 1162 0 0 1-4.758-9.557q-2.5-5.077-4.488-8.68M45.5 173.5c6 20 10 27.5 17 37"/><path stroke="#033b4c" stroke-linecap="round" stroke-linejoin="round" stroke-width="6" d="M53.62 195.752c8.504-3.106 16.67-9.264 11.374-24.604q-5.295-15.34-30.55-30.948-10.267 27.81-4.972 43.15c5.295 15.34 14.525 15.796 24.148 12.402" clip-rule="evenodd"/></svg>