<svg xmlns="http://www.w3.org/2000/svg" width="100%" height="auto" viewBox="0 0 1024 1024" version="1.1">
	<path d="M 476.500 135.522 C 406.680 142.969, 340.972 171.383, 289 216.599 C 223.364 273.704, 181.758 352.194, 170.314 440.500 C 167.737 460.385, 167.747 511.340, 170.332 532 C 176.430 580.738, 189.925 619.841, 215.546 663.003 L 222.147 674.123 215.973 695.312 C 212.577 706.965, 206.730 726.850, 202.980 739.500 C 199.229 752.150, 193.424 771.731, 190.080 783.013 C 183.208 806.198, 182.538 812.349, 186.090 819.685 C 190.103 827.976, 201.414 834.082, 209.834 832.504 C 211.850 832.126, 226.775 827.852, 243 823.005 C 319.676 800.102, 343.852 793, 345.123 793.004 C 345.880 793.007, 353.475 796.514, 362 800.799 C 392.867 816.312, 423.149 826.120, 458 831.892 C 493.408 837.756, 537.668 837.436, 572.050 831.067 C 649.992 816.628, 718.038 777.837, 770.389 718 C 817.262 664.424, 844.646 603.459, 853.711 532.500 C 856.267 512.496, 856.257 459.580, 853.694 439 C 845.738 375.125, 818.909 312.086, 777.744 260.545 C 766.711 246.732, 735.921 216.376, 722 205.588 C 670.372 165.578, 607.568 140.825, 543 135.038 C 527.687 133.665, 491.431 133.929, 476.500 135.522 M 492.500 159.610 C 414.360 165.735, 346.459 195.738, 292.809 247.847 C 270.646 269.372, 256.473 286.933, 241.422 311.514 C 217.966 349.822, 203.330 390.770, 195.855 439 C 193.870 451.807, 193.602 457.412, 193.554 487 C 193.505 517.342, 193.723 521.961, 195.863 536 C 202.814 581.597, 217.537 621.159, 241.106 657.576 C 244.337 662.568, 247.247 667.986, 247.573 669.615 C 247.989 671.697, 246.039 679.703, 241.012 696.539 C 228.646 737.960, 223.340 755.815, 216.510 779 C 212.865 791.375, 209.485 802.728, 209.001 804.228 C 208.516 805.728, 208.430 807.128, 208.810 807.338 C 209.484 807.711, 229.704 801.719, 306.237 778.466 C 326.992 772.160, 345.630 767, 347.654 767 C 350.214 767, 354.709 768.783, 362.417 772.856 C 399.267 792.326, 432.147 802.812, 474.500 808.600 C 492.347 811.039, 532.204 811.059, 550.500 808.639 C 599.245 802.192, 644.565 785.610, 685 759.428 C 715.853 739.451, 747.038 709.974, 769.790 679.283 C 783.995 660.122, 800.537 630.048, 809.866 606.425 C 817.985 585.866, 824.088 562.406, 828.057 536.500 C 830.762 518.844, 831.861 474.614, 830.078 455.217 C 823.879 387.801, 797.543 323.935, 754.968 273.072 C 702.701 210.631, 631.125 171.655, 550 161.459 C 537.916 159.940, 502.724 158.808, 492.500 159.610 M 486.907 271.515 C 404.417 282.775, 344.360 342.902, 333.928 424.672 C 332.823 433.340, 332.614 433.879, 330.129 434.483 C 320.017 436.941, 304.138 451.376, 298.419 463.309 C 292.259 476.163, 291.822 480.283, 292.232 521.601 C 292.597 558.376, 292.607 558.524, 295.188 565.599 C 300.969 581.444, 311.178 593.040, 325.500 600.031 C 336.751 605.523, 345.410 607, 366.353 607 C 380.949 607, 384.841 606.675, 390.248 605.005 C 400.976 601.692, 409.166 593.117, 412.475 581.735 C 413.878 576.909, 414.039 568.807, 413.787 515.866 L 413.500 455.500 410.606 449.606 C 406.927 442.114, 401.327 436.514, 394.148 433.148 C 388.951 430.712, 387.275 430.473, 373.150 430.159 L 357.800 429.817 358.450 425.158 C 358.808 422.596, 360.217 416.085, 361.583 410.689 C 368.441 383.585, 379.797 362.667, 397.934 343.724 C 421.733 318.870, 450.298 304.132, 486.623 297.969 C 503.594 295.089, 528.858 295.520, 544.939 298.963 C 576.257 305.670, 601.430 319.273, 623.532 341.436 C 641.220 359.172, 651.383 375.682, 659.123 399.252 C 663.217 411.719, 666.540 427.883, 665.260 429.107 C 664.842 429.507, 657.975 429.987, 650 430.173 C 636.874 430.480, 634.979 430.758, 630 433.103 C 622.833 436.480, 616.972 442.305, 613.385 449.618 L 610.500 455.500 610.213 515.866 C 609.961 568.807, 610.122 576.909, 611.525 581.735 C 616.345 598.313, 629.266 607, 649.105 607 C 659.344 607, 659.317 606.965, 655.588 615.396 C 647.747 633.127, 632.132 647.274, 613.490 653.538 C 606.828 655.776, 603.173 656.305, 591.500 656.722 L 577.500 657.222 574.633 651.621 C 571.160 644.838, 565.641 639.661, 558.120 636.135 C 552.528 633.513, 552.380 633.500, 528 633.500 L 503.500 633.500 497.266 636.380 C 490.028 639.722, 482.929 646.748, 479.680 653.783 C 476.557 660.545, 476.557 675.455, 479.680 682.217 C 482.901 689.192, 490.040 696.296, 496.940 699.393 C 502.799 702.022, 503.055 702.045, 527.175 702.090 C 541.050 702.116, 552.932 701.697, 554.834 701.114 C 563.312 698.514, 571.803 691.227, 576.047 682.909 L 578.180 678.727 585.840 679.348 C 596.748 680.231, 610.696 678.503, 621.363 674.947 C 649.173 665.678, 671.083 643.271, 680.135 614.842 C 683.182 605.271, 683.243 605.177, 686.855 604.523 C 696.276 602.816, 711.385 593.250, 718.124 584.724 C 723.612 577.781, 727.750 569.296, 730.068 560.234 C 731.794 553.486, 731.998 549.042, 731.983 518.590 C 731.963 480.111, 731.397 475.355, 725.364 463 C 720.350 452.733, 709.452 441.918, 698.861 436.700 L 691.223 432.937 690.526 427.218 C 688.285 408.807, 684.731 394.583, 678.439 378.836 C 655.243 320.782, 601.518 279.913, 537.341 271.500 C 523.629 269.703, 500.136 269.710, 486.907 271.515 M 349.500 452.961 C 339.453 454.264, 332.193 457.642, 325.963 463.913 C 315.237 474.708, 314 480.352, 314 518.500 C 314 549.645, 314.694 555.713, 319.236 564.268 C 323.072 571.494, 328.378 576.335, 336.877 580.362 C 343.474 583.488, 343.576 583.501, 362.625 583.840 C 383.910 584.219, 386.586 583.635, 389.514 577.973 C 391.823 573.509, 391.800 461.870, 389.489 458.343 C 386.170 453.277, 383.563 452.511, 369.047 452.342 C 361.596 452.254, 352.800 452.533, 349.500 452.961 M 641.333 453.034 C 639.591 453.573, 637.004 455.396, 635.583 457.084 L 633 460.153 633 517.626 C 633 580.679, 632.876 579.333, 638.967 582.483 C 643.731 584.946, 673.758 584.628, 682.187 582.024 C 694.323 578.276, 702.507 570.797, 707.215 559.153 C 709.442 553.644, 709.500 552.620, 709.500 519 C 709.500 480.149, 709.143 477.693, 702.151 468.442 C 693.052 456.402, 684.034 452.931, 660.500 452.409 C 651.700 452.213, 643.075 452.495, 641.333 453.034 M 504.763 657.565 C 499.412 660.469, 497.396 668.476, 500.636 673.960 C 503.941 679.556, 505.932 680, 527.654 679.996 C 550.204 679.992, 552.724 679.297, 555.658 672.276 C 557.652 667.503, 556.196 662.184, 551.905 658.574 L 548.847 656 528.173 656.040 C 511.841 656.072, 506.925 656.392, 504.763 657.565" stroke="none" fill="black" fill-rule="evenodd"/>
</svg>