<svg xmlns="http://www.w3.org/2000/svg" width="100%" height="auto" viewBox="0 0 1024 1024" version="1.1">
	<path d="M 610.229 149.623 C 609.692 150.655, 609.261 154.661, 609.273 158.523 C 609.300 167.406, 606.815 173.310, 600.445 179.501 C 592.255 187.462, 582.635 191.245, 549.794 199.424 C 531.006 204.103, 516.914 208.211, 510.500 210.879 C 505 213.166, 493.517 216.808, 484.981 218.972 C 448.625 228.189, 429.429 237.609, 422.303 249.731 C 419.128 255.133, 418.969 256.593, 418.286 286.593 L 417.851 305.686 412.033 310.808 C 408.537 313.884, 405.173 318.019, 403.607 321.161 L 401 326.393 401 387.409 L 401 448.425 396.250 443.816 C 393.637 441.281, 389.548 438.231, 387.161 437.038 C 381.166 434.041, 371.159 433.349, 363.356 435.391 C 359.976 436.276, 356.479 437, 355.583 437 C 354.688 437, 350.391 433.667, 346.035 429.593 C 340.363 424.289, 336.527 421.593, 332.520 420.093 C 325.249 417.373, 314.579 417.334, 307 420 C 298.325 423.052, 296.188 422.690, 289.052 416.963 C 280.877 410.402, 276.722 408.358, 268.731 406.967 C 263.722 406.095, 260.784 406.109, 256.333 407.026 C 249.541 408.426, 246.801 409.724, 238.134 415.648 C 234.632 418.042, 231.029 420, 230.126 420 C 229.223 420, 226.280 418.827, 223.585 417.392 C 207.835 409.008, 194.192 408.248, 180.411 414.989 C 174.652 417.806, 171.249 420.927, 160.922 432.864 C 156.834 437.590, 154.331 438.004, 145 435.500 C 127.037 430.678, 111.500 437.021, 104.581 452 C 103.184 455.025, 101.560 459.812, 100.973 462.638 C 99.747 468.533, 98.387 469.965, 91.645 472.453 C 81.654 476.142, 76.458 483.166, 72.276 498.637 L 69.611 508.500 69.235 567.214 C 68.833 630.004, 69.081 634.263, 73.896 647 C 76.848 654.809, 85.327 665.500, 93.500 671.719 C 111.280 685.248, 145.460 698.703, 199.743 713.540 C 248.344 726.825, 284.835 732.922, 316.395 733.032 L 325.500 733.063 322.500 735.205 C 315.947 739.884, 308.228 748.792, 304.942 755.466 C 301.944 761.556, 301.512 763.462, 301.164 772.138 C 300.947 777.525, 301.264 786.120, 301.867 791.238 C 305.808 824.646, 319.474 844.855, 347.222 858.303 C 355.485 862.308, 357.952 863.959, 357.978 865.500 C 358.129 874.515, 364.172 881.737, 374.138 884.816 C 390.668 889.921, 402.786 888.458, 409.781 880.511 L 413.724 876.032 427.612 877.481 C 475.279 882.455, 558.101 881.942, 605.425 876.380 C 610.610 875.771, 610.685 875.801, 612.766 879.328 C 616.050 884.895, 621.879 887.409, 631.500 887.411 C 644.008 887.413, 654.746 884.147, 659.702 878.834 C 662.468 875.868, 664.991 869.922, 665.028 866.282 C 665.054 863.745, 665.999 863.040, 675.778 858.274 C 697.970 847.458, 710.389 832.238, 716.694 808.132 C 718.909 799.662, 719.231 796.269, 719.357 780 C 719.498 761.782, 719.458 761.411, 716.760 755.650 C 709.740 740.665, 693.506 728.380, 671.521 721.416 C 663.547 718.890, 663.946 719.588, 662.080 704.908 C 660.814 694.940, 657.364 684.127, 653.039 676.569 C 651.368 673.647, 650 670.974, 650 670.628 C 650 670.283, 651.688 669.996, 653.750 669.992 C 662.919 669.973, 694.982 661.993, 710.356 655.904 C 715.777 653.757, 720.320 652, 720.452 652 C 720.584 652, 720.999 660.248, 721.374 670.330 C 722.575 702.575, 727.027 732.679, 733.062 749.359 C 740.113 768.844, 756.525 780.463, 786.005 786.838 C 802.077 790.314, 816.321 791.310, 841.365 790.709 C 861.057 790.237, 866.339 789.766, 876.859 787.548 C 903.756 781.874, 920.548 771.692, 928.329 756.338 C 933.043 747.036, 938.638 722.338, 941.487 698.256 C 945.824 661.608, 944.184 623.987, 936.006 572.500 C 931.171 542.055, 931.397 531.705, 937.461 506.021 C 943.635 479.870, 943.911 469.503, 938.962 449.613 C 937.883 445.275, 936.990 438.525, 936.978 434.613 C 936.953 426.410, 934.927 421.073, 930.126 416.563 L 927 413.626 926.956 392.063 C 926.911 370.126, 926.233 365.194, 922.711 361.184 C 921.849 360.202, 920.935 356.221, 920.520 351.632 C 917.387 317.036, 890.348 284.400, 857.500 275.569 C 849.185 273.334, 833.021 272.509, 824.298 273.875 C 804.275 277.011, 783.822 288.716, 771.258 304.229 L 765.809 310.958 760.654 306.729 C 757.819 304.403, 755.233 302.138, 754.907 301.695 C 754.581 301.253, 754.037 290.333, 753.697 277.430 C 752.996 250.800, 752.509 248.762, 744.853 240.456 C 731.480 225.949, 706.140 214.900, 666.506 206.295 C 662.522 205.430, 662.509 205.412, 661.340 198.960 C 658.542 183.521, 650.191 168.496, 639.649 159.932 C 628.312 150.723, 612.535 145.194, 610.229 149.623 M 618.658 164.241 C 617.743 171.968, 612.890 180.985, 606.509 186.818 C 596.131 196.303, 586.742 200.175, 556.089 207.611 C 526.257 214.847, 521.297 216.383, 509.500 222.040 C 494.765 229.104, 484.786 238.389, 479.202 250.229 C 477.716 253.380, 475.837 256.217, 475.026 256.534 C 472.826 257.392, 471.016 254.214, 471.663 250.627 C 472.370 246.703, 476.289 237.808, 478.968 234.045 C 481.537 230.437, 481.514 230.073, 478.750 230.687 C 464.554 233.838, 441.932 243.487, 435.501 249.134 C 421.096 261.781, 432.091 275.485, 466 287.145 C 484.019 293.341, 509.904 298.752, 535.500 301.674 C 557.542 304.190, 612.628 304.185, 634.500 301.665 C 681.522 296.249, 717.776 285.730, 734.218 272.733 C 743.298 265.556, 745.274 258.557, 740.514 250.434 C 735.266 241.478, 718.297 231.564, 695.500 224.134 C 682.564 219.917, 664.250 215.417, 663.417 216.250 C 663.135 216.532, 662.424 219.853, 661.838 223.631 C 659.011 241.824, 647.645 252.767, 626.500 257.652 C 610.924 261.250, 569.727 259.338, 564.212 254.761 C 561.888 252.832, 564.528 252.488, 577.149 253.073 C 593.451 253.829, 614.898 252.456, 624.287 250.055 C 637.630 246.642, 644.551 241.915, 649.488 232.845 C 652.026 228.182, 652.421 226.280, 652.809 216.882 C 653.579 198.180, 647.845 181.495, 636.799 170.301 C 632.676 166.123, 621.930 159, 619.749 159 C 619.490 159, 618.999 161.359, 618.658 164.241 M 700.017 252.456 C 699.457 253.927, 699 255.688, 699 256.369 C 699 260.617, 689.779 270.537, 682.250 274.389 C 680.462 275.303, 679 276.490, 679 277.026 C 679 280.396, 693.557 274.376, 699.304 268.629 C 704.718 263.215, 706.300 254.154, 702.396 250.914 C 701.322 250.023, 700.818 250.350, 700.017 252.456 M 741 280.075 C 736.257 284.131, 720.452 292.111, 709.643 295.908 C 683.061 305.245, 649.478 310.966, 608.212 313.186 C 538.378 316.942, 460.666 302.948, 432.662 281.572 C 430.088 279.607, 427.762 278, 427.491 278 C 427.221 278, 427 282.846, 427 288.768 C 427 298.572, 427.221 299.861, 429.471 303.172 C 432.288 307.318, 442.659 314.537, 451.500 318.505 C 477.907 330.358, 516.206 337.716, 564.089 340.134 C 636.500 343.792, 717.956 328.174, 739.658 306.472 L 745 301.130 745 289.065 C 745 282.429, 744.888 277.018, 744.750 277.041 C 744.612 277.063, 742.925 278.428, 741 280.075 M 818.156 285.094 C 801.245 289.635, 785.430 300.546, 775.402 314.589 C 766.460 327.112, 760 345.023, 760 357.292 C 760 362.786, 760.272 363.520, 763.394 366.465 C 770.088 372.778, 786.395 378.630, 806 381.755 C 819.122 383.847, 848.751 384.033, 861.500 382.104 C 881.594 379.063, 900.002 372.276, 907.250 365.236 C 910.886 361.705, 911 361.379, 911 354.527 C 911 345.238, 908.002 334.691, 902.181 323.500 C 898.431 316.290, 895.589 312.579, 887.888 304.840 C 879.609 296.518, 876.976 294.548, 868.888 290.625 C 863.725 288.120, 856.575 285.387, 853 284.550 C 843.710 282.377, 827.321 282.632, 818.156 285.094 M 745 313.707 C 734.594 323.933, 703.018 335.888, 670.500 341.915 C 644.932 346.653, 627.616 348.212, 594.760 348.734 C 561.602 349.262, 545.224 348.450, 519.500 345.006 C 483.055 340.126, 447.462 328.869, 432.596 317.522 C 430.059 315.585, 427.720 314, 427.399 314 C 427.078 314, 426.970 316.763, 427.158 320.140 C 427.435 325.119, 427.173 326.487, 425.769 327.373 C 423.551 328.773, 421.558 326.913, 419.782 321.785 C 418.308 317.526, 417.433 317.754, 413.627 323.390 C 408.101 331.571, 411.280 341.530, 421.919 349.361 C 442.067 364.194, 482.575 375.763, 535 381.659 C 556.910 384.123, 615.033 384.139, 637 381.686 C 680.769 376.800, 719.944 366.776, 742.360 354.725 L 750.221 350.500 752.499 341.500 C 753.752 336.550, 755.960 329.840, 757.405 326.589 C 758.850 323.338, 759.776 319.871, 759.464 318.885 C 758.966 317.317, 749.837 309.779, 748.866 310.134 C 748.665 310.208, 746.925 311.816, 745 313.707 M 410 403.313 C 410 441.195, 410.303 455, 411.135 455 C 411.759 455, 415.165 454.466, 418.704 453.814 C 423.764 452.882, 426.448 452.899, 431.266 453.894 C 442.632 456.242, 449.116 460.897, 456.382 471.925 C 461.335 479.444, 462.175 480, 468.582 480 L 473 480 473.022 462.250 C 473.041 447.247, 473.326 443.880, 474.865 440.491 C 478.132 433.299, 486.206 428.023, 493.972 428.006 C 495.332 428.003, 505.682 429.335, 516.972 430.966 C 571.572 438.855, 617.535 437.792, 672.539 427.370 C 688.777 424.293, 693.737 424.578, 699.755 428.937 C 701.977 430.547, 704.720 433.883, 706.087 436.639 L 708.500 441.500 708.500 503.500 C 708.500 560.354, 708.352 565.923, 706.721 570.595 C 703.003 581.246, 695.650 587.526, 682.861 590.977 C 670.941 594.193, 652.001 597.741, 636.333 599.692 C 617.207 602.075, 576.927 602.050, 557 599.643 C 543.279 597.987, 515.541 592.982, 511.750 591.480 C 510.115 590.832, 510 592.241, 510 612.893 L 510 635 529.800 635 C 561.764 635, 591.453 637.890, 607.765 642.590 C 619.064 645.846, 629.207 650.878, 636.794 656.991 L 642.856 661.876 652.678 660.482 C 676.855 657.052, 694.320 652.411, 713.626 644.288 L 721.752 640.869 722.445 630.685 C 723.349 617.393, 725.206 603.143, 729.523 576.350 C 735.326 540.342, 735.260 524.055, 729.210 500.084 C 726.947 491.115, 726.540 487.363, 726.540 475.500 C 726.540 463.563, 726.942 459.904, 729.270 450.670 C 730.771 444.713, 732.003 437.513, 732.006 434.670 C 732.014 426.663, 733.686 422.261, 738.575 417.372 L 743 412.947 743 392.717 C 743 381.590, 743.442 370.945, 743.983 369.060 C 744.523 367.175, 744.818 365.484, 744.637 365.303 C 744.456 365.122, 741.651 366.162, 738.404 367.614 C 699.962 384.803, 631.974 395.477, 573 393.582 C 500.095 391.239, 435.756 375.414, 412.750 354.166 L 410 351.626 410 403.313 M 752.581 372.650 C 752.261 373.482, 752 383.149, 752 394.131 C 752 416.184, 752.343 417.737, 758.191 422.194 C 773.533 433.887, 808.295 441.015, 843.500 439.687 C 874.589 438.514, 902.706 430.786, 913.292 420.505 L 917 416.904 917.244 400.702 C 917.512 382.998, 917.276 371.943, 916.618 371.285 C 916.386 371.053, 914.060 372.494, 911.448 374.488 C 905.378 379.121, 901.500 381.071, 891 384.770 C 873.097 391.077, 846.886 394.680, 827 393.568 C 796.879 391.883, 770.993 384.831, 757.831 374.722 C 754.096 371.854, 753.045 371.440, 752.581 372.650 M 253.890 416.409 C 251.904 417.173, 248.364 419.081, 246.023 420.649 C 232.556 429.670, 230.748 429.872, 217.612 423.821 C 205.879 418.416, 196.788 417.578, 187.500 421.043 C 181.456 423.298, 178.428 425.916, 167 438.769 C 160.613 445.952, 156.429 446.965, 144.896 444.121 C 131.543 440.829, 124.808 441.596, 118.511 447.124 C 113.560 451.472, 111.263 455.695, 109.064 464.496 C 106.787 473.604, 103.907 477.206, 97.456 479.012 C 91.395 480.709, 85.731 485.873, 83.021 492.173 C 79.598 500.130, 78.079 510.581, 77.351 531.181 L 76.691 549.861 79.521 555.454 C 92.380 580.869, 132.576 599.163, 209 614.383 C 287.446 630.005, 336.602 629.386, 407.500 611.882 C 450.238 601.331, 479.022 588.509, 492.104 574.196 C 501.025 564.434, 501.279 563.492, 500.750 542.085 C 500.337 525.352, 500.036 522.785, 497.729 516.321 C 491.048 497.597, 482.233 489.624, 466.558 488.127 C 457.487 487.261, 455.069 485.689, 449.540 477.062 C 440.934 463.636, 431.064 459.648, 414.979 463.098 C 412.163 463.702, 408.328 463.909, 406.458 463.558 C 403.116 462.931, 401.503 461.590, 391.584 451.192 C 383.614 442.836, 379.238 441.957, 358.727 444.592 C 351.592 445.508, 349.609 444.611, 341.033 436.592 C 329.154 425.482, 323.021 423.990, 307.926 428.539 C 297.304 431.740, 293.088 430.964, 285.023 424.325 C 282 421.835, 277.720 418.873, 275.513 417.741 C 270.436 415.138, 259.019 414.435, 253.890 416.409 M 743.557 426.223 C 742.701 427.445, 742 430.380, 742 432.745 C 742 438.831, 747.452 444.547, 758.306 449.842 C 793.092 466.812, 860.859 468.743, 901.753 453.929 C 909.140 451.253, 918.162 446.576, 921.732 443.572 C 927.770 438.492, 929.399 430.752, 925.512 425.618 C 924.155 423.826, 923.852 423.948, 919.142 428.183 C 899.832 445.543, 848.188 454.113, 803.162 447.427 C 780.325 444.036, 759.813 436.478, 750.734 428.109 C 748.282 425.849, 746.015 424, 745.695 424 C 745.375 424, 744.413 425, 743.557 426.223 M 672.500 435.494 C 643.135 441.889, 617.622 444.447, 584 444.367 C 554.191 444.295, 537.065 442.902, 509.609 438.314 C 495.159 435.899, 493.354 435.787, 489.700 437.079 C 482.104 439.765, 481.542 441.499, 481.196 463.320 L 480.891 482.500 484.454 484.412 C 493.456 489.243, 502.561 502.768, 507.085 518.027 C 509.061 524.696, 509.364 528.566, 509.900 554 L 510.500 582.500 517.500 584.249 C 559.732 594.801, 615.235 596.224, 659 587.875 C 671.037 585.579, 684.296 582.402, 688.119 580.897 C 691.754 579.466, 696.593 574.234, 698.492 569.681 C 699.893 566.321, 700.077 558.453, 700.023 504.343 C 699.957 438.797, 700.047 440.068, 695.113 435.602 C 692.015 432.799, 685.029 432.765, 672.500 435.494 M 738.197 454.250 C 734.348 469.966, 734.424 480.113, 738.520 497.500 C 745.346 526.472, 745.335 538.488, 738.447 580.372 C 733.711 609.169, 732.044 625.823, 731.327 651.500 C 730.185 692.399, 736.030 736.148, 744.800 752.348 C 751.801 765.281, 770.411 774.709, 797.500 779.046 C 825.365 783.508, 869.712 781.152, 890.137 774.125 C 911.322 766.836, 920.245 756.836, 925.534 734.454 C 931.386 709.688, 933.992 685.778, 933.997 656.804 C 934.001 632.923, 932.849 618.074, 928.853 590.500 C 921.101 536.996, 921.093 532.837, 928.688 501.500 C 931.710 489.032, 932.331 484.643, 932.364 475.500 C 932.401 465.113, 931.010 455.200, 929.082 452.116 C 928.383 450.999, 927.558 451.235, 924.791 453.346 C 915.118 460.724, 893.274 467.986, 869.500 471.728 C 852.575 474.392, 814.857 474.090, 797.500 471.152 C 773.795 467.139, 757.206 461.642, 745.784 454.015 C 742.478 451.807, 739.652 450, 739.505 450 C 739.358 450, 738.769 451.913, 738.197 454.250 M 293.635 455.073 C 286.873 460.391, 293.781 468.877, 302.523 465.992 C 311.056 463.176, 308.688 453, 299.500 453 C 297.723 453, 295.084 453.933, 293.635 455.073 M 232.223 456.557 C 230.030 458.093, 229.334 461.456, 230.765 463.600 C 233.128 467.139, 240.401 467.632, 243.056 464.433 C 244.839 462.284, 244.497 457.837, 242.434 456.328 C 239.985 454.537, 234.944 454.650, 232.223 456.557 M 297.500 460 C 297.160 460.550, 297.835 461, 299 461 C 300.165 461, 300.840 460.550, 300.500 460 C 300.160 459.450, 299.485 459, 299 459 C 298.515 459, 297.840 459.450, 297.500 460 M 179.566 463.343 C 176.615 466.295, 176.346 468.203, 178.570 470.427 C 182.869 474.726, 190.258 472.888, 190.801 467.384 C 191.146 463.881, 189.656 462.281, 185.221 461.394 C 182.749 460.900, 181.620 461.289, 179.566 463.343 M 364.223 470.557 C 359.609 473.788, 362.898 480, 369.223 480 C 372.219 480, 376 476.932, 376 474.500 C 376 469.968, 368.601 467.490, 364.223 470.557 M 260.313 487.102 C 253 489.218, 250.790 496.962, 256.200 501.515 C 259.102 503.957, 259.999 504.169, 265.832 503.798 C 271.563 503.433, 272.576 503.039, 275.132 500.178 C 278.665 496.225, 278.773 493.045, 275.486 489.759 C 271.904 486.176, 266.677 485.261, 260.313 487.102 M 326 492 C 324.900 493.100, 324 494.675, 324 495.500 C 324 497.791, 327.713 501, 330.365 501 C 333.158 501, 338 497.466, 338 495.427 C 338 492.985, 334.150 490, 331 490 C 329.333 490, 327.111 490.889, 326 492 M 133.500 492.954 C 130.888 494.035, 127.404 497.924, 126.563 500.700 C 124.631 507.080, 134.210 513.452, 142.155 511.072 C 155.771 506.992, 152.994 491.779, 138.685 492.063 C 136.933 492.098, 134.600 492.499, 133.500 492.954 M 261.250 493.639 C 259.009 494.585, 259.933 496.826, 262.826 497.462 C 266.243 498.212, 271.322 496.471, 270.754 494.744 C 270.336 493.475, 263.515 492.682, 261.250 493.639 M 410.750 496.080 C 408.206 497.562, 408.487 502.527, 411.223 504.443 C 415.775 507.632, 423 505.001, 423 500.155 C 423 495.912, 415.386 493.380, 410.750 496.080 M 198.230 500.001 C 194.043 502.554, 192.473 505.895, 193.694 509.652 C 195.571 515.428, 206.338 517.921, 212.686 514.050 C 216.791 511.547, 218.301 508.649, 217.471 504.869 C 216.087 498.565, 205.131 495.794, 198.230 500.001 M 134.479 500.392 C 132.862 501.574, 132.776 502.025, 133.910 503.392 C 135.631 505.465, 141.391 505.466, 143.463 503.394 C 146.996 499.861, 138.903 497.157, 134.479 500.392 M 202.250 505.031 C 199.274 506.228, 199.401 507.822, 202.569 509.026 C 207.490 510.897, 213.017 507.948, 209.462 505.348 C 207.364 503.814, 205.483 503.732, 202.250 505.031 M 358.898 517.283 C 356.089 519.170, 355.448 520.278, 355.198 523.677 C 354.931 527.302, 355.265 528.053, 358.016 530.011 C 364.311 534.494, 375.408 532.258, 378.007 525.983 C 379.147 523.231, 379.066 522.563, 377.301 520.186 C 373.114 514.546, 364.901 513.250, 358.898 517.283 M 363.500 522.154 C 360.518 523.855, 360.430 524.028, 362.029 525.039 C 365.305 527.111, 373.808 525.380, 371.492 523.112 C 369.805 521.461, 365.599 520.956, 363.500 522.154 M 297.313 523.102 C 290.529 525.065, 287.836 532.927, 292.388 537.479 C 299.299 544.390, 314 540.355, 314 531.548 C 314 527.230, 311.546 524.523, 306.315 523.071 C 301.940 521.856, 301.618 521.857, 297.313 523.102 M 453 523.288 C 449.983 524.807, 449.203 529.060, 451.517 531.374 C 455.004 534.862, 463 532.164, 463 527.500 C 463 525.019, 459.701 521.989, 457.027 522.015 C 456.187 522.023, 454.375 522.596, 453 523.288 M 297.441 530.481 C 295.761 531.763, 295.702 532.097, 297 532.966 C 299.167 534.416, 305.566 534.228, 306.854 532.676 C 309.549 529.429, 301.332 527.512, 297.441 530.481 M 244.250 531.505 C 239.814 534.676, 242.359 541, 248.071 541 C 251.089 541, 255 538.004, 255 535.691 C 255 531.392, 248.142 528.721, 244.250 531.505 M 777.422 533.357 C 768.351 537.488, 763.409 545.935, 760.079 563 C 752.864 599.971, 752.045 648.686, 758.074 682.169 C 764.020 715.191, 771.048 722.962, 800.611 729.201 C 810.119 731.208, 814.353 731.499, 834 731.499 C 851.790 731.500, 858.279 731.125, 865 729.709 C 885.787 725.331, 895.227 719.570, 900.362 708.129 C 911.575 683.142, 915.011 624.041, 907.984 577 C 904.342 552.614, 900.553 542.586, 892.882 537.030 C 886.849 532.659, 881.143 531.808, 869.924 533.605 C 854.382 536.094, 825.870 536.527, 809.500 534.522 C 788.838 531.990, 781.044 531.707, 777.422 533.357 M 118 539.295 C 114.944 540.824, 114.058 545.973, 116.502 548.002 C 119.072 550.134, 124.059 549.646, 126.156 547.056 C 128.432 544.244, 128.441 543.731, 126.250 541.198 C 123.879 538.456, 121.003 537.792, 118 539.295 M 779.262 540.424 C 772.213 543.623, 767.839 555.407, 764.571 580 C 759.557 617.721, 759.859 650.584, 765.506 682.085 C 770.514 710.014, 775.530 716.112, 797.500 720.976 C 819.602 725.869, 850.400 725.822, 870.109 720.864 C 889.886 715.890, 894.369 710.518, 899.375 685.803 C 905.483 655.648, 906.214 618.822, 901.433 582.052 C 898.382 558.591, 894.356 546.673, 888.027 542.372 C 883.835 539.524, 881.147 539.441, 864.163 541.637 C 847.790 543.754, 821.319 543.712, 805.500 541.543 C 786.548 538.945, 782.865 538.788, 779.262 540.424 M 166.357 541.992 C 160.809 544.231, 159.330 551.548, 163.622 555.525 C 168.670 560.204, 176.164 559.990, 181.128 555.026 C 184.888 551.266, 184.753 548.553, 180.600 544.400 C 177.741 541.541, 176.507 541.010, 172.850 541.063 C 170.458 541.098, 167.536 541.516, 166.357 541.992 M 410 546.650 C 409.175 546.980, 407.262 548.403, 405.750 549.812 C 399.607 555.536, 404.559 563, 414.500 563 C 428.810 563, 430.487 547.365, 416.283 546.382 C 413.652 546.199, 410.825 546.320, 410 546.650 M 169.104 547.914 C 166.624 549.485, 168.659 552, 172.410 552 C 176.546 552, 178.029 550.226, 175.462 548.348 C 173.342 546.798, 171.108 546.646, 169.104 547.914 M 411.441 553.481 C 409.761 554.763, 409.702 555.097, 411 555.966 C 413.137 557.396, 416.301 557.232, 418.559 555.575 C 420.431 554.200, 420.400 554.111, 417.685 553.075 C 414.065 551.693, 413.759 551.713, 411.441 553.481 M 344.001 561.123 C 336.548 564.095, 334.686 570.875, 340.077 575.411 C 342.557 577.498, 344.202 578, 348.561 578 C 353.090 578, 354.485 577.538, 357.151 575.156 C 362.501 570.376, 361.228 564.249, 354.282 561.345 C 350.553 559.786, 347.518 559.721, 344.001 561.123 M 215.571 564.571 C 209.944 570.198, 218.067 577.144, 224.777 572.443 C 229.386 569.216, 226.570 563, 220.500 563 C 218.654 563, 216.436 563.707, 215.571 564.571 M 77.254 599 C 77.756 634.686, 78.213 637.991, 84.187 649.200 C 89.763 659.661, 102.856 670.029, 120.733 678.138 C 155.804 694.046, 225.288 713.869, 271.019 721.013 C 297.664 725.176, 337.555 725.176, 352.375 721.014 C 356.156 719.952, 359.377 718.952, 359.533 718.792 C 359.689 718.631, 360.537 714.311, 361.418 709.192 C 365.393 686.096, 376.439 668.877, 395.428 656.177 C 413.977 643.770, 441.349 637.509, 486.250 635.403 L 501 634.710 501 605.593 L 501 576.475 494.180 582.987 C 486.139 590.667, 474.425 597.813, 460.325 603.640 C 432.396 615.183, 390.090 625.914, 351.586 631.220 C 328.475 634.405, 285.377 634.360, 260 631.125 C 217.269 625.677, 173.614 616.237, 141.217 605.440 C 112.374 595.828, 94.719 586.042, 82.827 573.076 L 76.796 566.500 77.254 599 M 344.224 568.176 C 341.108 571.292, 348.735 573.436, 352.559 570.519 C 354.239 569.237, 354.298 568.903, 353 568.034 C 350.943 566.658, 345.657 566.743, 344.224 568.176 M 277.270 571.694 C 274.396 572.261, 271 576.587, 271 579.680 C 271 581.006, 272.105 583.195, 273.455 584.545 C 278.882 589.973, 290 586.394, 290 579.220 C 290 574.190, 283.651 570.436, 277.270 571.694 M 277.518 578.971 C 276.800 580.132, 281.433 581.468, 282.943 580.535 C 283.524 580.176, 284 579.459, 284 578.941 C 284 577.697, 278.289 577.723, 277.518 578.971 M 470 645.067 C 438.443 647.745, 417.739 652.972, 402.261 662.167 C 399.175 664, 393.202 668.880, 388.987 673.012 C 382.718 679.158, 380.480 682.250, 376.690 690.012 C 370.359 702.976, 368.742 711.474, 368.797 731.500 C 368.846 749.229, 370.327 758.665, 374.486 767.750 C 379.775 779.302, 389.155 788.514, 402.493 795.251 C 425.547 806.897, 451.988 809.619, 533 808.690 C 559.675 808.384, 585.100 807.633, 589.500 807.022 C 612.936 803.768, 627.245 797.896, 638.103 787.078 C 651.711 773.520, 655.722 758.510, 654.761 724.733 C 654.187 704.569, 652.563 696.282, 646.799 684.132 C 641.265 672.463, 630.753 661.816, 619.550 656.533 C 609.509 651.797, 596.825 648.568, 579.826 646.419 C 564.407 644.470, 488.104 643.531, 470 645.067 M 475 667.020 C 453.090 669.251, 437.229 673.228, 438.254 676.233 C 438.813 677.871, 443.285 677.723, 454.500 675.694 C 486.296 669.942, 554.620 670.467, 587.255 676.714 C 593.864 677.979, 596.293 678.107, 597.163 677.237 C 598.866 675.534, 596.842 673.569, 591.838 672.070 C 589.535 671.380, 581.093 669.916, 573.076 668.816 C 561.178 667.184, 551.609 666.756, 521 666.486 C 500.375 666.303, 479.675 666.544, 475 667.020 M 396.369 724.482 C 394.969 728.129, 404.701 736.767, 415.682 741.623 C 431.119 748.450, 446.295 750.016, 503.500 750.684 C 582.710 751.610, 608.952 748.901, 622.749 738.378 C 625.878 735.992, 627.111 733, 624.967 733 C 624.398 733, 621.755 734.104, 619.092 735.453 C 612.307 738.891, 600.649 741.760, 587.617 743.197 C 571.667 744.956, 464.788 744.937, 448.140 743.172 C 426.433 740.871, 413.566 736.470, 402.723 727.638 C 398.177 723.936, 396.834 723.269, 396.369 724.482 M 664 734.099 C 664 742.512, 662.157 758.399, 660.358 765.500 C 657.531 776.659, 653.332 783.867, 644.598 792.559 C 623.068 813.986, 603.017 817.964, 516.500 817.977 C 449.375 817.986, 427.243 815.662, 405 806.270 C 382.538 796.785, 367.408 780.306, 362.519 760 C 361.659 756.425, 360.671 747.987, 360.325 741.250 C 359.576 726.672, 360.385 727.132, 345.804 732.982 C 320.668 743.067, 307.211 759.247, 311.618 774.087 C 315.771 788.070, 334.604 802.506, 359.500 810.790 C 398.202 823.667, 441.302 827.775, 526 826.659 C 551.025 826.329, 576.900 825.601, 583.500 825.042 C 642.670 820.026, 680.214 808.766, 698.555 790.534 C 702.659 786.455, 706.584 781.435, 707.900 778.583 C 716.275 760.423, 701.171 740.762, 670.950 730.483 L 664 728.119 664 734.099 M 311.382 795.825 C 313.498 811.770, 319.987 825.690, 329.831 835.401 C 338.101 843.559, 341.884 846.148, 353.407 851.532 C 373.760 861.044, 400.030 866.418, 444.500 870.168 C 464.582 871.862, 558.084 871.874, 578.500 870.185 C 654.823 863.873, 689.571 849.788, 703.545 819.500 C 706.908 812.210, 710 800.424, 710 794.894 L 710 791.683 703.750 797.663 C 680.779 819.643, 634.855 831.643, 560.500 835.095 C 532.060 836.415, 456.660 835.778, 437 834.051 C 377.628 828.837, 337.045 816.244, 316.740 796.733 L 310.738 790.967 311.382 795.825 M 367 867.435 C 367 870.483, 369.689 873.426, 374.474 875.617 C 381.847 878.992, 396.622 880.133, 400.454 877.622 C 404.216 875.157, 403.609 874.307, 397.550 873.549 C 394.552 873.175, 386.789 871.552, 380.300 869.942 C 368.070 866.909, 367 866.707, 367 867.435 M 648.500 868.493 C 646.300 869.198, 639.205 870.816, 632.733 872.088 C 620.835 874.427, 619.478 875.323, 624.079 877.807 C 627.169 879.474, 639.546 878.717, 646.500 876.436 C 651.588 874.767, 656 871.055, 656 868.444 C 656 866.733, 653.946 866.746, 648.500 868.493" stroke="none" fill="black" fill-rule="evenodd"/>
</svg>