<svg xmlns="http://www.w3.org/2000/svg" width="100%" height="auto" viewBox="0 0 1024 1024" version="1.1">
	<path d="M 658 145.219 C 654.708 146.887, 652.896 148.698, 651.250 151.962 C 649.090 156.246, 649 157.454, 649 182.304 C 649 206.670, 648.883 208.333, 647 210.727 C 645.405 212.755, 644.995 214.811, 644.973 220.885 L 644.946 228.500 637.223 232.163 C 616.312 242.082, 599.176 267.602, 591.795 299.819 L 589.577 309.500 589.260 476.364 C 589.024 601.102, 589.234 643.577, 590.094 644.614 C 591.734 646.589, 594.672 646.328, 597 644 C 598.984 642.016, 599 640.667, 599 480.072 C 599 370.291, 599.345 315.662, 600.072 310.434 C 603.657 284.661, 617.967 257.382, 634.154 245.466 C 637.819 242.767, 642.897 240.178, 646.916 238.957 C 653.305 237.016, 655.776 236.942, 704.599 237.215 L 755.608 237.500 763.061 241.185 C 776.588 247.872, 788.579 260.842, 796.636 277.500 C 804.741 294.256, 805.165 297.166, 806.050 342 C 806.478 363.725, 806.867 414.168, 806.914 454.095 C 806.996 523.093, 807.091 526.772, 808.829 528.345 C 811.225 530.513, 813.294 530.438, 815.405 528.105 C 817.011 526.331, 817.081 519.427, 816.501 419.855 C 816.161 361.360, 815.463 309.674, 814.951 304.997 C 813.792 294.424, 811.877 286.968, 807.811 277.200 C 800.202 258.922, 783.253 239.751, 768.201 232.398 L 760.223 228.500 759.861 220.330 C 759.561 213.533, 759.122 211.757, 757.250 209.766 C 755.032 207.405, 755 206.988, 755 180.554 C 755 155.070, 754.896 153.567, 752.903 150.344 C 748.654 143.469, 749.090 143.531, 703.500 143.219 C 662.530 142.938, 662.497 142.940, 658 145.219 M 427.500 146.699 C 414.409 147.887, 399.547 152.377, 388.216 158.567 C 382.535 161.670, 381.160 162, 373.908 162 C 363.958 162, 358.713 163.232, 348.500 167.969 C 330.739 176.206, 293.689 207.613, 285.752 221.160 C 277.405 235.405, 278.211 253.260, 288.045 272 C 299.404 293.644, 300.120 295.443, 301.467 305.708 C 302.174 311.094, 303.422 317.096, 304.240 319.047 C 307.600 327.055, 316.590 330.691, 325.514 327.650 C 329.803 326.189, 330.074 326.198, 329.591 327.792 C 329.306 328.732, 328.593 331.750, 328.005 334.500 C 326.517 341.468, 321.223 357.287, 317.882 364.750 L 315.084 371 307.792 371.035 C 303.781 371.054, 296.900 371.727, 292.500 372.529 L 284.500 373.989 282 370.767 C 268.369 353.202, 255.247 340.243, 247.249 336.448 C 234.167 330.240, 225.543 336.746, 221.329 356 C 219.298 365.280, 219.014 392.346, 220.840 402.511 L 222.100 409.521 217.536 419.156 C 211.799 431.266, 209.027 441.785, 208.288 454.250 L 207.709 464 201.789 464 C 194.690 464, 192 465.230, 192 468.476 C 192 471.881, 193.492 472.442, 201.733 472.135 C 208.762 471.873, 209 471.941, 209 474.204 C 209 475.491, 209.869 479.677, 210.931 483.507 C 211.993 487.337, 212.781 490.525, 212.681 490.590 C 212.581 490.656, 209.475 491.513, 205.777 492.496 C 198.292 494.485, 195.466 496.743, 196.477 499.928 C 197.309 502.549, 199.418 502.549, 208.776 499.923 C 212.847 498.780, 216.267 497.993, 216.375 498.173 C 216.483 498.353, 218.024 500.901, 219.798 503.836 L 223.025 509.172 217.762 513.747 C 197.316 531.520, 175.599 558.286, 163.196 581 C 158.532 589.542, 149 611.342, 149 613.468 C 149 614.246, 148.481 615.203, 147.846 615.595 C 146.986 616.127, 146.840 613.271, 147.272 604.404 C 148.052 588.392, 150.877 579.182, 162.426 555 C 175.833 526.928, 179.246 515.391, 179.288 498 C 179.363 467.050, 162.332 442.427, 137.713 437.891 C 129.750 436.424, 121.866 437.716, 115.298 441.565 C 104.096 448.130, 98.878 464.969, 104.567 476.196 C 107.082 481.159, 108.857 482.828, 116.149 487.087 C 124.832 492.158, 128 497.830, 128 508.302 C 128 517.517, 126.065 524.479, 119.413 539.200 C 105.770 569.396, 100.951 585.166, 98.898 606.344 C 95.998 636.250, 103.262 669.708, 117.674 692.831 C 123.966 702.926, 135.703 715.139, 144.934 721.195 C 149.954 724.489, 153.479 727.723, 155.791 731.155 C 167.424 748.430, 183.652 755.197, 219 757.514 C 235.011 758.564, 250.191 755.666, 255.265 750.592 C 256.896 748.961, 257.349 749.047, 263.725 752.184 C 270.311 755.426, 270.756 755.500, 283.526 755.500 C 297.908 755.500, 301.358 754.405, 302.603 749.447 C 303.306 746.645, 300.513 742.589, 298.431 743.388 C 297.624 743.698, 297.089 742.087, 296.787 738.439 C 296.308 732.671, 294.011 729, 290.880 729 C 288.285 729, 286.644 732.466, 288.020 735.038 C 288.620 736.159, 288.974 738.972, 288.806 741.288 L 288.500 745.500 280.271 745.396 C 273.635 745.312, 271.118 744.817, 267.271 742.840 L 262.500 740.388 261.888 732.925 C 261.520 728.431, 260.455 723.852, 259.211 721.413 C 256.961 717.004, 250.448 710.594, 247.155 709.549 C 245.376 708.984, 245.230 708.524, 246.106 706.220 C 250.309 695.167, 251.846 675.414, 249.577 661.610 C 244.973 633.596, 229.496 615.499, 208.235 613.269 C 204.040 612.829, 202.567 613.082, 200.985 614.514 C 196.612 618.471, 199.657 622.414, 207.786 623.323 C 226.990 625.471, 241 647.901, 241 676.500 C 241 684.984, 238.936 697.721, 236.654 703.312 C 235.595 705.908, 234.934 706.234, 229.989 706.600 C 223.206 707.102, 211.660 710.483, 209.561 712.582 C 207.426 714.717, 207.597 718.714, 209.875 719.933 C 211.241 720.664, 213.257 720.407, 217.300 718.986 C 232.185 713.754, 245.638 716.597, 250.501 726.002 C 252.966 730.768, 252.457 738.304, 249.427 741.904 C 245.485 746.590, 241.091 747.306, 220 746.702 C 193.420 745.942, 180.827 742.412, 170.399 732.800 C 161.595 724.685, 154.791 709.319, 151.430 689.961 C 149.151 676.839, 149.930 648.357, 152.920 635.500 C 159.899 605.482, 174.698 576.173, 195.334 551.500 C 201.743 543.836, 219.089 526.053, 225.210 520.869 L 229.920 516.881 232.879 519.069 C 236.618 521.833, 240.686 521.099, 241.590 517.497 C 242.105 515.445, 241.131 513.859, 235.851 508.157 C 229.178 500.949, 226.203 496.463, 227.341 495.325 C 227.714 494.952, 236.553 494.443, 246.984 494.193 C 264.581 493.772, 265.992 493.601, 266.557 491.822 C 266.891 490.767, 266.671 489.308, 266.066 488.580 C 264.299 486.450, 250.116 485.731, 235.879 487.049 C 228.749 487.709, 222.708 488.041, 222.454 487.787 C 222.200 487.533, 221.140 483.990, 220.099 479.913 C 218.448 473.447, 218.398 472.456, 219.707 472.157 C 223.252 471.346, 242.323 474.427, 253.278 477.580 C 259.813 479.461, 265.769 481, 266.513 481 C 268.097 481, 269.433 477.509, 268.454 475.926 C 266.409 472.616, 244.650 466.579, 228.352 464.799 L 217.729 463.639 218.323 454.070 C 219.194 440.047, 222.323 430.347, 230.926 415 C 232.810 411.640, 232.823 411.240, 231.260 405 C 228.807 395.208, 228.866 365.974, 231.358 356.247 C 233.353 348.462, 236.092 344, 238.877 344 C 244.383 344, 260.002 358.564, 272 374.887 C 280.530 386.492, 278.361 385.759, 294.500 382.488 C 300.437 381.284, 305.981 380.984, 316 381.324 C 331.917 381.864, 341.588 384.105, 353.537 390.021 C 357.958 392.209, 361.945 394, 362.397 394 C 362.849 394, 365.758 391.673, 368.860 388.828 C 381.041 377.659, 396.919 368, 403.099 368 C 407.609 368, 408.507 370.260, 408.429 381.407 C 408.336 394.706, 406.646 404.034, 401.800 418 C 396.630 432.902, 396.547 433.463, 398.439 440.766 C 401.157 451.253, 401.983 460.992, 400.978 470.702 C 400.465 475.661, 399.789 480.386, 399.475 481.204 C 399.013 482.409, 396.510 482.692, 386.203 482.702 C 370.546 482.717, 365.324 483.526, 363.918 486.154 C 361.749 490.207, 363.809 490.711, 380.488 490.204 C 398.242 489.664, 397.847 489.422, 393.441 498.117 C 391.469 502.007, 390.492 503.017, 389.191 502.508 C 384.607 500.719, 369.110 497.005, 366.219 497.003 C 359.759 496.998, 360.867 502.861, 367.600 504.313 C 375.086 505.928, 386 509.297, 386 509.993 C 386 511.397, 374.227 521.880, 368.629 525.461 C 365.470 527.481, 362.627 529.808, 362.311 530.631 C 361.316 533.224, 363.724 537, 366.372 537 C 369.330 537, 369.622 537.726, 371.090 548.727 C 373.210 564.609, 370.708 584.540, 363.525 609 C 357.836 628.374, 355.161 639.981, 353.546 652.301 C 350.920 672.344, 351.501 677, 356.629 677 C 360.513 677, 361.998 674.431, 362.018 667.679 C 362.056 654.825, 365.777 635.469, 372.425 613.538 C 377.283 597.516, 379.996 584.106, 380.893 571.700 C 381.708 560.419, 380.767 542.563, 379.015 536.055 L 377.997 532.274 387.133 523.137 C 392.159 518.112, 396.556 514, 396.906 514 C 397.256 514, 401.041 516.049, 405.318 518.552 C 413.203 523.168, 416.172 523.601, 417.430 520.321 C 418.476 517.595, 415.583 514.662, 407.793 510.550 L 400.310 506.600 403.591 499.550 C 406.730 492.804, 407.008 492.514, 410.025 492.826 C 411.760 493.005, 414.995 493.793, 417.215 494.576 C 424.499 497.146, 428.966 495.620, 427.518 491.057 C 426.897 489.100, 424.295 488.053, 413 485.217 C 410.080 484.484, 409.546 483.937, 409.778 481.919 C 409.930 480.589, 410.316 473.200, 410.636 465.500 C 411.137 453.403, 410.930 450.302, 409.111 442.686 L 407.007 433.871 410.595 423.186 C 418.117 400.782, 420.571 375.600, 416.195 365.708 C 412.394 357.115, 403.232 355.738, 390 361.772 C 383.323 364.817, 369.858 373.947, 364.461 379.088 L 361.422 381.983 354.461 379.065 C 346.504 375.729, 332.965 372, 328.812 372 C 327.265 372, 326 371.813, 326 371.585 C 326 371.357, 327.990 366.070, 330.423 359.835 C 335.445 346.966, 338.498 335.753, 340.083 324.360 C 341.021 317.611, 341.824 315.551, 345.877 309.492 C 356.636 293.406, 363.072 273.673, 371.705 230.297 C 377.173 202.829, 377.281 201.968, 375.511 200.013 C 373.270 197.536, 370.804 197.440, 368.768 199.750 C 367.920 200.713, 366.027 207.800, 364.562 215.500 C 354.823 266.671, 348.047 288.733, 337.134 304.802 C 327.717 318.670, 316.593 323.078, 313.197 314.288 C 312.604 312.755, 311.621 307.523, 311.011 302.663 C 309.714 292.323, 307.897 287.330, 300.939 274.988 C 292.123 259.349, 290.618 254.856, 290.555 244 C 290.490 232.694, 291.973 228.737, 299.807 219.326 C 306.193 211.655, 328.150 193.138, 341.627 184.058 C 355.789 174.517, 360.957 172.655, 374.029 172.379 C 384.255 172.162, 384.773 172.039, 392.110 168.082 C 406.787 160.165, 419.758 157, 437.523 157 C 457.881 157, 472.570 161.526, 489.500 173.014 C 495.865 177.333, 497.166 177.815, 503.844 178.332 C 515.854 179.260, 522.342 182.942, 535.531 196.314 C 554.799 215.850, 567.862 233.444, 571.161 244.304 C 575.045 257.090, 572 268.949, 560.050 287.582 C 552.764 298.942, 550.669 303.954, 549.004 314 C 547.024 325.945, 543.941 330.069, 538.527 328.010 C 532.524 325.728, 527.952 318.217, 525.582 306.742 C 523.576 297.031, 523.582 287, 525.605 268.879 C 528.275 244.969, 526.613 222.050, 521.187 207.959 C 519.826 204.426, 517.477 202.714, 515.047 203.485 C 511.501 204.610, 510.685 207.536, 512.441 212.824 C 517.137 226.962, 518.240 247.431, 515.492 269.462 C 513.764 283.313, 513.584 296.944, 515.015 305.500 C 516.641 315.220, 512.545 336.334, 504.976 357.252 L 501.948 365.621 508.889 380.060 C 522.500 408.379, 526.349 423.612, 526.437 449.500 C 526.512 471.764, 525.134 480.453, 509.071 559 C 498.329 611.529, 494.585 640.962, 496.441 658.295 L 497.165 665.050 502.332 667.628 C 510.023 671.466, 514.809 676.536, 516.619 682.762 C 517.523 685.871, 517.875 689.290, 517.478 691.098 C 516.951 693.501, 517.296 694.686, 519.077 696.582 C 521.661 699.333, 525.490 699.770, 526.393 697.418 C 526.727 696.548, 527 692.740, 527 688.956 C 527 676.523, 521.392 666.830, 510.508 660.452 L 506 657.810 506.013 646.155 C 506.032 629.712, 512.663 586.015, 519.920 554.500 C 520.934 550.100, 523.279 538.743, 525.131 529.262 C 526.984 519.781, 528.779 512.018, 529.120 512.012 C 529.461 512.005, 532.161 514.442, 535.120 517.427 C 543.630 526.013, 549.596 537.131, 553.738 552.121 C 555.132 557.168, 555.496 562.362, 555.479 577 C 555.459 593.838, 555.210 596.483, 552.701 606.446 C 548.486 623.182, 539.734 643.651, 532.737 653.136 C 530.330 656.399, 531.057 659.192, 535.055 662.039 C 546.407 670.122, 546.364 690.326, 534.979 697.513 C 530.856 700.116, 530.071 702.396, 532.035 706.066 C 535.260 712.092, 547.820 702.975, 551.570 691.886 C 554.299 683.816, 553.970 673.757, 550.755 666.946 C 549.341 663.951, 547.087 660.183, 545.746 658.574 L 543.307 655.648 547.583 647.574 C 562.970 618.513, 569.181 585.137, 564.530 556.500 C 560.890 534.089, 549.457 514.012, 533.778 502.499 L 531.057 500.500 533.648 485.500 C 537.236 464.737, 537.474 436.586, 534.191 421.352 C 531.231 407.618, 526.075 393.028, 518.820 377.862 L 512.776 365.225 516.861 353.052 C 519.108 346.357, 521.491 338.241, 522.157 335.017 L 523.368 329.154 527.674 332.944 C 537.436 341.538, 549.805 340.184, 555.025 329.950 C 556.184 327.680, 557.809 321.925, 558.637 317.161 C 560.388 307.085, 561.987 303.135, 568.284 293.327 C 581.008 273.506, 584.750 260.086, 581.657 245.374 C 580.833 241.455, 579.047 236.055, 577.687 233.374 C 569.929 218.080, 540.744 184.091, 528.605 176.212 C 521.744 171.759, 513.595 168.874, 506.090 168.241 C 500.443 167.765, 498.735 167.068, 491.735 162.382 C 474.033 150.533, 449.976 144.660, 427.500 146.699 M 661.455 155.455 L 659 157.909 659 181.955 L 659 206 702 206 L 745 206 745 181.057 C 745 156.415, 744.973 156.095, 742.777 154.557 C 740.860 153.214, 735.299 153, 702.232 153 L 663.909 153 661.455 155.455 M 655.676 216.657 C 655.304 217.029, 655 219.508, 655 222.167 L 655 227 702.552 227 L 750.105 227 749.802 221.750 L 749.500 216.500 702.926 216.240 C 677.311 216.097, 656.048 216.285, 655.676 216.657 M 402.595 237.486 C 398.877 239.478, 397.291 241.580, 395.974 246.265 C 394.523 251.422, 395.697 256.586, 399.237 260.617 C 407.445 269.965, 420.135 259.456, 417.076 245.844 C 415.359 238.202, 408.571 234.285, 402.595 237.486 M 480.253 242.441 C 477.512 244.747, 475 250.538, 475 254.550 C 475 257.825, 478.975 264.668, 481.562 265.846 C 485.904 267.825, 488.985 267.215, 492.521 263.679 C 503.413 252.787, 491.815 232.711, 480.253 242.441 M 439.275 284.929 C 428.512 287.627, 426.384 296.430, 433.867 307.306 C 436.595 311.272, 444.966 318, 447.171 318 C 448.500 318, 448.126 325.762, 446.624 329.357 C 444.900 333.483, 439.070 338.363, 434.078 339.859 C 419.537 344.215, 403.785 335.821, 396.140 319.641 C 392.684 312.325, 391.874 311.564, 388.458 312.421 C 384.399 313.440, 384.340 317.086, 388.252 325.254 C 396.565 342.610, 411.207 351.912, 428.421 350.773 C 436.351 350.248, 444.545 347.178, 448.092 343.402 L 450.381 340.966 453.940 344.434 C 463.401 353.652, 478.960 353.689, 489.809 344.520 C 493.332 341.542, 498.975 332.560, 498.991 329.905 C 499.005 327.431, 495.445 324.724, 493.140 325.456 C 492.038 325.805, 489.990 328.048, 488.588 330.440 C 482.033 341.626, 470.423 344.840, 461.611 337.908 C 457.446 334.633, 456.192 331.234, 456.752 324.742 C 457.240 319.084, 457.323 318.951, 461.497 317.104 C 470.459 313.140, 478 303.779, 478 296.617 C 478 292.081, 474.016 287.333, 469.177 286.103 C 463.978 284.781, 443.131 283.962, 439.275 284.929 M 754.500 286.695 C 753.400 286.905, 751.522 287.285, 750.327 287.539 C 746.914 288.262, 741.890 293.033, 739.880 297.459 C 738.171 301.221, 738.042 305.309, 738.022 356.712 C 738.001 409.447, 738.089 412.164, 739.994 417.253 C 742.142 422.995, 747.288 428.655, 753 431.559 C 758.380 434.294, 767.479 434.049, 772.794 431.025 C 777.958 428.087, 782.679 421.326, 783.530 415.648 C 783.872 413.367, 783.955 391.700, 783.716 367.500 C 783.259 321.401, 782.918 317.513, 778.297 305.749 C 773.364 293.191, 763.175 285.033, 754.500 286.695 M 753.308 297.019 C 752.103 297.499, 750.303 299.134, 749.308 300.651 C 747.633 303.207, 747.479 307.192, 747.215 354.829 C 746.894 412.758, 747.032 414.187, 753.476 419.845 C 758.018 423.833, 762.703 424.709, 767.447 422.458 C 774.550 419.088, 774.503 419.416, 774.476 373.500 C 774.456 338.699, 774.187 331.074, 772.695 323.069 C 769.291 304.803, 761.167 293.887, 753.308 297.019 M 629.500 339.860 C 622.099 343.433, 617.946 347.707, 614.304 355.500 L 611.500 361.500 611.500 451 L 611.500 540.500 614.926 547.810 C 619.128 556.777, 626.430 563.895, 634.541 566.929 C 639.360 568.733, 642.325 569, 657.502 569 C 673.084 569, 675.027 568.815, 675.847 567.250 C 676.369 566.253, 676.398 564.531, 675.914 563.250 C 675.084 561.051, 674.715 561, 659.714 561 C 640.056 561, 635.706 559.836, 628.528 552.659 C 619.468 543.599, 620 549.923, 620 451.188 C 620 389.301, 620.324 363.649, 621.141 360.922 C 622.661 355.852, 627.247 350.448, 632.347 347.721 C 636.404 345.551, 637.286 345.500, 670.500 345.500 L 704.500 345.500 709.154 348.236 C 712.503 350.205, 714.465 352.307, 716.154 355.736 C 718.452 360.402, 718.511 361.251, 719.024 397 C 719.495 429.876, 719.735 433.947, 721.445 438 C 726.088 449.011, 734.330 457.348, 747.181 464.033 C 756.969 469.126, 763.964 475.353, 767.150 481.810 C 769.325 486.218, 769.485 487.870, 769.814 509.259 C 770.140 530.473, 770.294 532.087, 772.082 533.044 C 773.414 533.757, 774.630 533.733, 776.064 532.966 C 778.075 531.889, 778.120 531.249, 777.814 507.681 L 777.500 483.500 774.655 477.703 C 770.665 469.573, 763.993 463.338, 753.081 457.543 C 740.915 451.082, 734.923 445.618, 730.781 437.210 L 727.500 430.551 727 394.025 C 726.507 358.020, 726.466 357.431, 724.108 352.642 C 721.224 346.782, 716.672 342.051, 711.403 339.437 C 707.794 337.646, 704.784 337.480, 671.500 337.232 L 635.500 336.963 629.500 339.860 M 652.217 410.561 C 646.902 414.284, 645.336 424.739, 648.914 432.617 C 653.635 443.015, 664.175 442.304, 666.920 431.403 C 670.189 418.423, 660.533 404.736, 652.217 410.561 M 681.024 411.759 C 676.476 414.051, 673.930 418.681, 673.281 425.843 C 672.456 434.941, 676.346 441, 683.012 441 C 685.882 441, 691.717 435.388, 693.051 431.344 C 693.697 429.388, 694.032 425.116, 693.796 421.850 C 693.133 412.688, 687.699 408.395, 681.024 411.759 M 631.758 434.975 C 627.731 438.144, 626.517 443.826, 628.449 450.471 C 630.833 458.674, 637.106 462.815, 643.455 460.379 C 647.616 458.782, 649.408 448.241, 646.629 441.718 C 643.521 434.424, 636.504 431.242, 631.758 434.975 M 698.209 437.566 C 693.271 441.025, 690.002 451.446, 691.977 457.432 C 694.314 464.513, 700.628 466.021, 706.468 460.894 C 713.278 454.914, 714.577 441.619, 708.749 437.537 C 705.924 435.558, 701.057 435.571, 698.209 437.566 M 278.750 443.080 C 273.527 446.122, 272.258 457.776, 276.589 462.923 C 281.307 468.530, 290.312 466.571, 293.061 459.339 C 295.270 453.531, 293.240 445.269, 289.055 443.030 C 286.615 441.724, 281.032 441.751, 278.750 443.080 M 663.215 447.609 C 661.109 448.682, 658.648 451.478, 656.361 455.392 C 654.399 458.751, 650.398 464.019, 647.471 467.098 C 639.734 475.235, 638.828 483.674, 645.025 489.871 C 648.812 493.659, 653.949 494.547, 660.500 492.548 C 666.935 490.584, 670.712 490.611, 678.472 492.679 C 684.098 494.178, 685.185 494.201, 688.621 492.893 C 698.906 488.979, 699.876 475.819, 690.529 467 C 688.488 465.075, 685.552 461.025, 684.004 458 C 682.456 454.975, 679.831 451.211, 678.171 449.636 C 674.370 446.029, 668.005 445.167, 663.215 447.609 M 125.764 447.941 C 116.717 450.847, 111.331 458.373, 112.279 466.784 C 112.855 471.894, 115.548 474.905, 124.400 480.335 C 133.176 485.720, 138 495.708, 138 508.499 C 138 518.446, 135.260 528.206, 127.733 545.069 C 111.614 581.183, 108.511 593.513, 108.621 621 C 108.672 633.938, 109.156 639.709, 110.859 647.734 C 115.931 671.627, 125.555 690.411, 139.925 704.462 C 142.766 707.240, 144.997 708.781, 144.992 707.962 C 144.988 707.158, 144.081 702.900, 142.977 698.500 C 140.275 687.729, 139.267 662.694, 140.930 647.662 C 142.088 637.195, 142.033 636.033, 140.043 629 C 137.035 618.364, 136.374 603.748, 138.382 592.258 C 140.602 579.553, 142.836 573.396, 152.988 552 C 166.721 523.053, 169.152 514.933, 169.150 498 C 169.148 481.608, 164.602 468.834, 155.188 458.770 C 147.254 450.288, 133.834 445.349, 125.764 447.941 M 350.096 450.573 C 343.408 456.200, 344.070 467.917, 351.288 471.649 C 359.446 475.868, 368.303 465.510, 365.027 455.581 C 362.612 448.265, 355.624 445.921, 350.096 450.573 M 307.250 477.470 C 303.441 480.252, 304.867 485.691, 310.911 491.437 C 315.518 495.817, 314.674 501.989, 309.010 505.335 C 304.458 508.024, 300.518 507.462, 296.132 503.500 C 291.918 499.693, 289.914 499.194, 288.018 501.479 C 287.033 502.666, 287.156 503.581, 288.645 506.124 C 291.626 511.214, 295.274 513.320, 301.948 513.803 C 307.037 514.171, 308.578 513.851, 312.336 511.649 L 316.748 509.064 318.621 511.134 C 321.561 514.382, 325.507 516, 330.490 516 C 338.990 516, 347.348 509.534, 344.025 505.530 C 342.223 503.358, 340.233 503.626, 336.818 506.500 C 335.184 507.875, 332.734 509, 331.374 509 C 325.213 509, 320.154 503.217, 321.528 497.745 C 321.914 496.206, 323.906 494.086, 326.510 492.439 C 332.053 488.935, 334.755 484.279, 333.070 481.131 C 331.422 478.052, 327.903 476.932, 318 476.337 C 311.121 475.924, 309.071 476.140, 307.250 477.470 M 455.153 530.750 C 451.044 534.225, 440.969 582.757, 437.472 615.918 C 435.725 632.493, 434.460 662.712, 435.363 666.311 C 436.301 670.047, 439.494 671.561, 442.408 669.652 C 444.616 668.206, 444.700 667.557, 445.319 647.331 C 446.314 614.792, 451.103 581.163, 459.750 546 C 462.696 534.017, 462.772 532.038, 460.354 530.269 C 458.095 528.618, 457.622 528.662, 455.153 530.750 M 791.500 541.048 C 788.200 541.566, 779.733 543.592, 772.684 545.551 C 756.080 550.165, 747.714 551.045, 731.563 549.877 C 709.670 548.293, 698.307 550.598, 691.644 557.972 C 685.313 564.980, 684.319 575.565, 688.532 591.139 C 694.923 614.768, 697 623.457, 697 626.557 L 697 629.901 664.750 629.701 L 632.500 629.500 626.328 632.148 C 618.687 635.427, 613.375 639.059, 605 646.731 C 595.648 655.298, 595.350 655.408, 585.471 653.938 C 578.732 652.936, 576.545 652.946, 574.023 653.990 C 570.112 655.610, 568.852 658.060, 565.518 670.517 C 560.841 687.997, 558.332 694.041, 547.053 715 C 536.509 734.592, 534.686 739.485, 536.765 742.600 C 538.045 744.516, 541.752 746, 545.260 746 C 549.601 746, 552.201 748.731, 555.117 756.353 C 557.614 762.879, 560.332 764.963, 563.874 763.068 C 566.529 761.647, 566.593 758.578, 564.099 752.250 L 562.197 747.426 567.231 746.231 C 573.469 744.749, 578.217 741.981, 588.620 733.760 C 603.769 721.788, 608.806 720.467, 636 721.337 C 658.324 722.051, 730.556 725.107, 793.540 728.004 C 838.064 730.051, 842.317 730.581, 851.392 735.203 C 857.369 738.247, 864.567 745.531, 872.117 756.171 C 880.524 768.021, 884.642 770.466, 898 771.539 C 902.675 771.914, 907.063 772.677, 907.750 773.233 C 909.143 774.361, 909.445 783.751, 908.153 785.787 C 907.551 786.736, 904.205 787.027, 895.418 786.895 C 877.859 786.631, 873.824 788.827, 862.969 804.546 C 855.673 815.110, 852.602 818.132, 845.468 821.765 C 838.615 825.255, 831.959 825.880, 811.500 824.955 C 724.366 821.013, 658.801 818.921, 657.453 820.039 C 655.503 821.657, 655.620 824.335, 657.750 826.821 C 659.398 828.745, 661.269 828.928, 690 829.985 C 706.775 830.602, 735.575 831.766, 754 832.571 C 772.425 833.376, 798.552 834.322, 812.059 834.673 C 835.328 835.277, 836.991 835.198, 843.689 833.163 C 854.019 830.026, 861.373 824.189, 869.311 812.828 C 880.350 797.030, 882.115 796.050, 898.229 796.777 C 917.423 797.642, 918.340 796.437, 918.632 770 C 918.860 749.315, 919.465 745.233, 924.635 729.500 C 930.890 710.467, 942 673.597, 942 671.873 C 942 670.965, 941.141 669.159, 940.090 667.861 C 938.314 665.665, 937.291 665.462, 925.462 664.954 L 912.743 664.409 904.622 655.772 C 890.233 640.470, 884.859 638.310, 857.250 636.731 C 846.663 636.126, 838 635.314, 838 634.927 C 838 632.420, 850.077 616.938, 864.858 600.500 C 881.087 582.450, 884.724 577.879, 887.065 572.585 C 890.413 565.017, 889.146 563.639, 873 557.291 C 855.566 550.437, 837.583 544.592, 827.500 542.502 C 817.807 540.494, 799.699 539.762, 791.500 541.048 M 792.468 550.989 C 789.700 551.396, 781.375 553.477, 773.968 555.614 L 760.500 559.500 734.500 559.507 C 705.956 559.514, 702.865 559.995, 698.573 565.096 C 693.651 570.945, 694.071 577.070, 701.001 600.500 C 706.004 617.413, 707 623.229, 707 635.524 C 707 646.783, 704.766 657.473, 700.588 666.202 C 699.214 669.074, 698.182 671.500, 698.295 671.594 C 699.199 672.349, 809.288 676.096, 809.931 675.394 C 810.382 674.903, 812.456 669.325, 814.540 663 C 816.624 656.675, 820.942 646.278, 824.136 639.895 C 832.503 623.174, 838.891 614.558, 861.498 589.500 C 871.820 578.059, 877 571.631, 877 570.264 C 877 569.039, 843.656 556.709, 833.378 554.134 C 817.619 550.185, 804.698 549.192, 792.468 550.989 M 788.846 599.250 C 788 599.938, 786.712 602.075, 785.982 604 C 779.388 621.394, 765.968 642.193, 753.186 654.827 C 744.414 663.497, 743.827 664.325, 744.853 666.577 C 746.921 671.116, 749.794 669.680, 760.513 658.750 C 766.042 653.112, 772.944 644.900, 775.852 640.500 C 782.354 630.662, 795 605.470, 795 602.355 C 795 601.098, 794.130 599.605, 793.066 599.035 C 790.652 597.744, 790.701 597.741, 788.846 599.250 M 291.867 626.133 C 289.794 628.206, 289.753 628.768, 290.410 646.383 C 291.360 671.886, 292.897 693.655, 294.425 703.259 C 295.613 710.722, 296.036 711.700, 299.072 713.985 C 305.388 718.739, 308.687 722.811, 309.987 727.454 C 311.471 732.754, 312.437 727.554, 300.037 781 C 295.555 800.321, 292.026 817.793, 292.017 820.712 C 291.988 829.795, 295.268 836.498, 303.902 845 C 316.085 856.996, 335.974 865.979, 362.560 871.492 C 382.299 875.585, 392.951 876.501, 420.500 876.477 C 451.985 876.449, 470.326 874.254, 493 867.800 C 502.010 865.236, 503 864.563, 503 861 C 503 855.854, 501.037 855.440, 490.232 858.308 C 468.073 864.189, 445.638 867, 420.862 867 C 382.851 867, 352.586 861.270, 328.338 849.483 C 310.186 840.660, 301.770 831.308, 301.805 820 C 301.812 817.525, 305.909 797.875, 310.909 776.334 C 315.909 754.793, 320 736.840, 320 736.439 C 320 736.038, 322.363 737.935, 325.250 740.654 C 332.055 747.062, 339.148 751.014, 351.500 755.280 C 389.345 768.350, 451.694 768.399, 489.228 755.387 C 501.543 751.118, 508.862 747.114, 515.265 741.142 C 517.886 738.697, 520.189 736.878, 520.383 737.099 C 520.877 737.662, 532 782.582, 532 784.013 C 532 784.658, 529.485 787.956, 526.412 791.343 C 519.840 798.584, 512.835 812.235, 510.423 822.500 C 508.081 832.471, 508.287 848.425, 510.885 858.287 C 514.192 870.837, 520.204 881.254, 529.477 890.500 C 538.442 899.440, 545.129 903.769, 555.643 907.443 C 590.021 919.454, 627.820 904.308, 643.036 872.424 C 648.454 861.071, 650.289 851.456, 649.781 837.084 C 649.417 826.789, 648.840 823.045, 646.610 816.500 C 642.744 805.154, 636.796 795.598, 628.558 787.500 C 620.130 779.216, 611.473 773.920, 600.500 770.336 C 593.679 768.108, 590.657 767.713, 580 767.657 C 565.679 767.583, 558.770 769.077, 547.734 774.634 C 543.918 776.556, 540.697 777.987, 540.577 777.814 C 540.457 777.641, 537.101 764, 533.121 747.500 C 529.140 731, 525.464 715.886, 524.951 713.914 C 518.807 690.293, 471.191 674.318, 413 676.355 C 380.123 677.506, 355.443 682.573, 337.572 691.841 C 328.933 696.322, 319.944 704.533, 317.481 710.194 C 316.450 712.562, 315.525 714.633, 315.425 714.795 C 315.325 714.957, 313.951 713.813, 312.372 712.252 C 310.792 710.691, 308.449 708.689, 307.164 707.803 C 305.187 706.439, 304.617 704.680, 303.450 696.346 C 302.691 690.931, 301.768 680.424, 301.399 672.997 L 300.727 659.493 305.613 657.730 C 315.817 654.049, 332 638.621, 332 632.574 C 332 627.084, 326.184 626.349, 323.037 631.441 C 318.992 637.986, 305.194 649, 301.040 649 C 300.383 649, 300 644.965, 300 638.057 C 300 627.882, 299.844 627.004, 297.777 625.557 C 294.896 623.538, 294.415 623.585, 291.867 626.133 M 635.760 639.502 C 627.577 641.565, 623.550 643.886, 614.683 651.653 C 599.839 664.655, 597.394 665.700, 585.963 663.926 C 582.016 663.314, 578.420 663.193, 577.971 663.656 C 577.522 664.120, 576.407 667.425, 575.494 671 C 571.185 687.859, 566.674 699.119, 557.069 716.982 C 550.132 729.882, 547.489 735.691, 548.316 736.216 C 550.331 737.498, 566.454 737.120, 568.332 735.747 C 571.762 733.238, 587.878 696.315, 591.063 683.665 C 591.947 680.154, 592.959 678.520, 594.758 677.701 C 596.887 676.730, 597.490 676.887, 599.054 678.818 C 600.753 680.916, 600.772 681.410, 599.341 686.282 C 596.762 695.066, 590.932 710.138, 587.363 717.250 C 585.499 720.962, 584.236 724, 584.554 724 C 584.873 724, 586.577 722.899, 588.342 721.552 C 593.770 717.412, 604.141 713.135, 611.772 711.888 C 617.329 710.980, 624.993 710.965, 644.272 711.823 C 658.147 712.441, 706.625 714.544, 752 716.496 C 810.455 719.011, 836.601 720.493, 841.708 721.582 C 855.560 724.534, 866.599 731.916, 875.763 744.355 C 886.184 758.502, 887.520 759.764, 893.260 760.894 C 896.142 761.462, 900.750 762.042, 903.500 762.185 L 908.500 762.443 908.766 757.972 C 909.391 747.488, 911.436 738.560, 917.440 720.100 C 928.693 685.508, 931.344 675.834, 929.835 674.877 C 929.101 674.412, 924.770 674.024, 920.210 674.015 C 909.530 673.996, 906.290 672.358, 897.500 662.536 C 892.210 656.626, 889.168 654.204, 883.543 651.424 C 875.768 647.581, 869.830 646.717, 843.906 645.655 L 832.311 645.180 830.156 649.617 C 828.970 652.057, 828 654.229, 828 654.444 C 828 654.659, 830.349 655.338, 833.219 655.954 C 841.085 657.640, 847.399 662.154, 850.445 668.265 C 853.430 674.256, 853.623 677.803, 851.331 684.572 C 849.036 691.350, 840.381 699.774, 832.441 702.959 C 823.831 706.411, 810.872 706.587, 750.673 704.070 C 671.803 700.772, 668.374 700.540, 661.779 698.044 C 651.895 694.302, 645 685.578, 645 676.812 C 645 671.762, 648.254 664.873, 652.860 660.171 C 660.729 652.137, 669.855 649.030, 685.643 649.012 C 696.645 648.999, 697 648.812, 697 643.039 L 697 640.241 683.750 639.634 C 649.439 638.063, 641.558 638.041, 635.760 639.502 M 671.227 659.811 C 658.271 663.961, 651.152 675.839, 657.095 683.393 C 660.600 687.850, 666.383 690.100, 676.891 691.095 C 689.803 692.318, 785.198 696.197, 806.500 696.366 C 822.284 696.490, 823.858 696.335, 828.500 694.199 C 836.838 690.361, 843 683.246, 843 677.454 C 843 671.291, 836.608 665.766, 828.270 664.724 L 824.040 664.196 822.345 669.575 C 820.758 674.608, 820.757 675.074, 822.325 676.806 C 824.553 679.269, 824.443 682.289, 822.044 684.460 C 820.172 686.154, 817.861 686.139, 768.294 684.099 C 739.807 682.926, 709.300 681.684, 700.500 681.338 C 682.951 680.649, 680.535 680.155, 679.733 677.089 C 678.998 674.275, 682.508 670, 685.556 670 C 687.453 670, 688.521 668.905, 690.570 664.862 C 692.654 660.750, 692.906 659.556, 691.837 658.878 C 689.580 657.448, 676.799 658.026, 671.227 659.811 M 391.616 687.036 C 371.729 689.289, 350.965 695.013, 340.075 701.243 C 332.865 705.368, 326.575 711.726, 325.009 716.473 C 322.707 723.448, 326.960 731.452, 336.405 737.923 C 372.945 762.955, 478.600 761.110, 508.353 734.921 C 513.925 730.016, 516.273 725.893, 516.273 721.013 C 516.273 706.633, 494.629 694.080, 460 688.377 C 448.812 686.535, 403.828 685.652, 391.616 687.036 M 898.236 688.250 C 896.714 690.136, 888.776 710.699, 883.369 726.762 L 878.571 741.015 880.738 743.182 C 884.652 747.096, 886.789 744.861, 890.516 732.956 C 892.316 727.205, 896.562 715.430, 899.950 706.788 C 905.008 693.889, 905.916 690.711, 905.020 689.038 C 903.803 686.763, 899.811 686.299, 898.236 688.250 M 403 695.092 C 377.839 696.857, 355.561 702.084, 346.108 708.438 C 341.154 711.768, 337 717.154, 337 720.247 C 337 734.732, 367.648 745.475, 412.522 746.720 C 471.282 748.349, 513.238 733.447, 502.252 714.849 C 494.243 701.291, 447.439 691.974, 403 695.092 M 394 705.122 C 367.695 708.146, 346.362 715.518, 347.188 721.297 C 347.864 726.030, 367.731 733.153, 388.711 736.185 C 400.367 737.870, 439.852 737.878, 451.500 736.198 C 471.120 733.368, 486.575 728.540, 493 723.234 L 495.500 721.170 493.084 718.594 C 490.283 715.607, 478.678 710.935, 468.274 708.605 C 449.795 704.467, 414.210 702.798, 394 705.122 M 705.888 741.476 C 703.462 742.817, 702.051 745.239, 700.515 750.701 C 699.621 753.880, 701.646 760.426, 704.615 763.955 C 706.629 766.348, 707.978 767, 710.915 767 C 716.093 767, 719.139 763.608, 719.760 757.149 C 720.844 745.869, 713.321 737.370, 705.888 741.476 M 730.027 745.971 C 722.547 753.979, 724.926 769, 733.675 769 C 738.040 769, 740.987 766.725, 743.635 761.314 C 748.297 751.784, 744.984 743, 736.727 743 C 733.664 743, 732.193 743.652, 730.027 745.971 M 683.667 760.815 C 680.693 764.101, 679.762 768.403, 681.017 773.062 C 683.461 782.138, 692.060 786.031, 697.545 780.545 C 703.904 774.187, 697.858 759, 688.968 759 C 686.704 759, 684.684 759.692, 683.667 760.815 M 750.396 765.429 C 745.811 767.425, 742.715 772.397, 742.201 778.586 C 741.817 783.224, 742.073 784.163, 744.337 786.428 C 747.848 789.939, 752.791 789.888, 757.059 786.297 C 764.886 779.711, 764.786 767.864, 756.881 765.108 C 755.132 764.499, 753.656 764.018, 753.601 764.039 C 753.545 764.061, 752.103 764.686, 750.396 765.429 M 714.500 773.206 C 713.400 773.835, 708.112 778.750, 702.750 784.126 C 693.066 793.836, 693 793.935, 693 798.816 C 693 806.874, 698.706 811.811, 706.718 810.685 C 708.798 810.392, 712.602 809.839, 715.170 809.456 C 718.438 808.967, 721.270 809.245, 724.599 810.379 C 737.033 814.616, 745 810.601, 745 800.099 C 745 796.737, 744.252 795.224, 740.500 791 C 738.025 788.213, 734.859 783.682, 733.465 780.930 C 732.018 778.075, 729.550 775.086, 727.715 773.968 C 724.153 771.796, 717.620 771.419, 714.500 773.206 M 566 778.491 C 555.380 780.872, 545.519 786.475, 536.957 794.995 C 522.233 809.644, 515.607 829.881, 518.981 849.890 L 520.215 857.204 525.858 856.502 C 534.276 855.456, 546.467 851.366, 555.743 846.474 C 578.365 834.545, 597.140 813.106, 603.388 792.067 C 606.092 782.958, 605.975 782.709, 597.750 780.051 C 588.632 777.105, 575.139 776.442, 566 778.491 M 403.656 779.133 C 401.536 780.365, 398.997 785.870, 399.006 789.218 C 399.024 796.750, 404.440 805, 409.367 805 C 410.754 805, 413.096 803.961, 414.573 802.691 C 419.725 798.260, 418.537 783.590, 412.694 779.498 C 410.210 777.758, 406.293 777.600, 403.656 779.133 M 429.420 779.885 C 425.548 782.247, 423.500 787.018, 423.500 793.677 C 423.500 800.737, 426.197 804.387, 431.718 804.801 C 435.168 805.060, 436.105 804.664, 438.342 802.006 C 443.836 795.476, 444.133 785.979, 439.003 780.850 C 435.671 777.517, 433.640 777.312, 429.420 779.885 M 611.133 795.250 C 603.216 820.638, 583.194 842.928, 556.726 855.821 C 548.679 859.740, 532.604 864.985, 528.543 865.015 C 527.419 865.024, 525.945 865.383, 525.268 865.814 C 523.568 866.893, 527.077 873.246, 533.420 880.576 L 538.340 886.261 546.437 885.756 C 554.605 885.246, 568.880 881.100, 577.500 876.734 C 592.787 868.991, 610.184 853.113, 618.833 839.009 C 624.662 829.504, 629.460 817.903, 630.523 810.741 C 631.196 806.206, 631.027 805.720, 626.925 800.402 C 623.209 795.586, 615.208 788, 613.844 788 C 613.597 788, 612.377 791.263, 611.133 795.250 M 385.261 799.529 C 379.909 803.279, 380.547 813.747, 386.490 819.690 C 390.327 823.527, 393.577 823.907, 397.328 820.957 C 406.938 813.397, 395.206 792.564, 385.261 799.529 M 445.490 802.310 C 438.656 809.144, 438.643 820.431, 445.465 823.685 C 448.612 825.185, 449.036 825.165, 452.162 823.370 C 459.513 819.151, 462.162 806.994, 456.942 801.438 C 453.635 797.918, 449.572 798.228, 445.490 802.310 M 415.005 810.752 C 413.083 811.713, 410.608 814.017, 409.505 815.871 C 408.402 817.725, 404.688 822.320, 401.250 826.082 C 395.281 832.613, 395 833.152, 395 838.060 C 395 842.572, 395.415 843.615, 398.400 846.600 C 401.248 849.448, 402.506 849.993, 406.150 849.956 C 408.543 849.932, 412.729 849.325, 415.453 848.607 C 418.847 847.713, 421.524 847.590, 423.953 848.214 C 435.224 851.112, 440.839 850.146, 443.585 844.835 C 446.547 839.107, 444.912 832.008, 439.477 827 C 437.985 825.625, 435.005 821.731, 432.854 818.347 C 429.868 813.649, 428 811.817, 424.952 810.597 C 419.949 808.596, 419.294 808.606, 415.005 810.752 M 636.551 820.500 C 630.525 837.840, 624.235 848.450, 612.855 860.472 C 596.590 877.655, 577.750 888.518, 556.335 893.061 L 550.500 894.299 555.500 896.504 C 563.112 899.861, 570.630 901.364, 580 901.400 C 590.315 901.439, 597.164 899.886, 606.824 895.318 C 629.207 884.731, 643.363 858.214, 640.092 833 C 639.486 828.325, 638.598 823.150, 638.118 821.500 C 637.346 818.841, 637.168 818.727, 636.551 820.500" stroke="none" fill="black" fill-rule="evenodd"/>
</svg>