<svg xmlns="http://www.w3.org/2000/svg" width="100%" height="auto" viewBox="0 0 1024 1024" version="1.1">
	<path d="M 504.213 116.045 C 502.956 116.550, 491.706 125.201, 479.213 135.270 C 445.314 162.595, 366.382 226.438, 325 260.004 C 282.099 294.802, 206.954 355.586, 181.846 375.799 C 163.858 390.280, 161.994 392.450, 162.004 398.899 C 162.008 402.187, 165.190 407.471, 168.196 409.186 C 169.891 410.153, 178.162 410.632, 199.500 411 L 228.500 411.500 228.438 414.250 C 228.403 415.762, 228.291 502.725, 228.188 607.500 L 228 798 205.573 798 L 183.145 798 181.016 800.707 C 178.526 803.873, 178.964 807.551, 182.153 810.250 C 184.009 811.820, 186.930 812, 210.555 812 C 236.460 812, 236.929 811.963, 239.377 809.750 L 241.865 807.500 242.559 605.945 C 243.189 422.840, 243.107 404.108, 241.663 401.316 C 240.789 399.625, 239.346 397.963, 238.455 397.621 C 237.565 397.280, 224.273 397, 208.918 397 C 193.563 397, 181.018 396.663, 181.040 396.250 C 181.063 395.837, 185.675 391.800, 191.290 387.279 C 200.356 379.979, 227.194 358.310, 300.400 299.187 C 330.809 274.628, 399.570 218.976, 423 199.960 C 490.015 145.570, 509.703 130.020, 511.561 130.010 C 512.758 130.004, 523.025 137.658, 536.061 148.275 C 595.417 196.616, 659.070 247.075, 659.983 246.511 C 660.642 246.103, 661 233.227, 661 209.941 L 661 174 695.500 174 L 730 174 730.026 236.250 L 730.052 298.500 762.706 324.500 C 780.665 338.800, 808.438 360.850, 824.422 373.500 L 853.485 396.500 823.653 397 L 793.821 397.500 791.910 399.861 C 790.044 402.167, 790 406.879, 790 604.656 L 790 807.091 792.455 809.545 L 794.909 812 820.389 812 C 834.404 812, 846.954 811.588, 848.279 811.084 C 849.604 810.580, 851.274 808.752, 851.992 807.020 C 853.151 804.221, 853.074 803.575, 851.291 801.186 L 849.287 798.500 826.894 798 L 804.500 797.500 804.247 604.250 L 803.995 411 832.747 410.996 C 859.501 410.993, 861.723 410.857, 864.701 409.040 C 870.490 405.511, 872.623 398.040, 869.543 392.084 C 868.700 390.454, 845.415 371.210, 814.293 346.424 C 784.707 322.861, 757.125 300.827, 753 297.460 L 745.500 291.337 745 230.919 C 744.517 172.575, 744.431 170.380, 742.477 167 C 741.279 164.927, 738.644 162.582, 736.015 161.250 C 731.656 159.040, 730.930 159, 695.500 159 C 644.418 159, 646.781 157.334, 646 193.887 L 645.500 217.275 611.500 189.962 C 592.800 174.940, 564.828 152.382, 549.340 139.834 C 533.851 127.285, 519.984 116.564, 518.524 116.009 C 515.281 114.776, 507.325 114.796, 504.213 116.045 M 450.415 295.421 C 448.719 296.160, 446.356 298.003, 445.165 299.517 L 443 302.270 443 364.253 L 443 426.235 446.882 430.118 L 450.765 434 511.632 433.965 C 577.456 433.926, 575.316 434.102, 579.054 428.433 C 580.912 425.614, 580.987 423.106, 580.993 363.885 L 581 302.270 578.832 299.514 C 574.455 293.950, 575.033 293.997, 511.782 294.039 C 465.267 294.070, 452.877 294.349, 450.415 295.421 M 455.457 308.252 C 455.185 308.960, 455.084 320.331, 455.231 333.520 L 455.500 357.500 480.500 357.500 L 505.500 357.500 505.500 332.500 L 505.500 307.500 480.725 307.232 C 461.251 307.022, 455.845 307.240, 455.457 308.252 M 518.457 308.252 C 518.185 308.960, 518.084 320.331, 518.231 333.520 L 518.500 357.500 543.500 357.500 L 568.500 357.500 568.500 332.500 L 568.500 307.500 543.725 307.232 C 524.251 307.022, 518.845 307.240, 518.457 308.252 M 675.003 337.492 C 674.451 338.943, 674 340.954, 674 341.960 C 674 344.610, 670.099 356.862, 667.844 361.295 C 662.874 371.064, 653.335 377.312, 637.902 380.905 C 633.500 381.931, 629.640 383.027, 629.325 383.342 C 627.650 385.017, 630.631 386.795, 637.645 388.305 C 646.488 390.209, 655.895 394.336, 660.770 398.451 C 666.737 403.488, 671.832 414.631, 674.086 427.572 C 675.131 433.573, 676.531 435.590, 678.657 434.157 C 679.194 433.796, 680.456 429.527, 681.461 424.671 C 683.865 413.055, 688.539 403.407, 694.045 398.694 C 699.822 393.748, 704.951 391.397, 716.125 388.573 C 723.624 386.677, 725.500 385.841, 725.500 384.397 C 725.500 382.974, 724.118 382.312, 719 381.280 C 703.318 378.121, 692.918 371.839, 687.464 362.231 C 685.987 359.629, 683.546 352.550, 682.041 346.500 C 680.052 338.510, 678.852 335.412, 677.655 335.177 C 676.625 334.976, 675.629 335.844, 675.003 337.492 M 455.233 395.750 L 455.500 420.500 480.750 420.767 L 506 421.034 506 396.017 L 506 371 480.483 371 L 454.965 371 455.233 395.750 M 518 396.017 L 518 421.034 543.250 420.767 L 568.500 420.500 568.767 395.750 L 569.035 371 543.517 371 L 518 371 518 396.017 M 718.999 447.505 C 715.974 462.078, 710.696 467.815, 697.121 471.290 C 687.688 473.704, 688.264 475.551, 699.176 477.892 C 709.938 480.202, 716.511 487.706, 718.880 500.387 C 719.363 502.975, 720.019 505.352, 720.336 505.670 C 721.809 507.142, 723.809 504.756, 724.399 500.823 C 725.355 494.451, 729.180 486.927, 733.305 483.305 C 736.451 480.543, 740.051 479.060, 750.750 476.119 C 755.716 474.753, 753.982 473.200, 744.500 470.520 C 732.669 467.177, 728.314 462.538, 725.096 449.850 C 722.695 440.384, 720.641 439.594, 718.999 447.505 M 328 450.516 C 303.523 455.517, 283.853 470.714, 273.119 492.917 C 269.348 500.718, 268.559 503.337, 268.532 508.144 C 268.505 513.125, 268.879 514.330, 271.169 516.622 C 273.737 519.192, 274.506 519.343, 291.350 520.585 C 310.177 521.974, 312.938 522.761, 317.341 527.994 C 321.069 532.424, 321.743 537.240, 319.104 540.595 C 317.133 543.100, 317 544.472, 317 562.231 C 317 578.077, 317.272 581.651, 318.655 583.993 C 320.281 586.746, 320.204 587.025, 314.172 600.281 C 282.609 669.647, 272.919 695.850, 266.864 728.214 C 264.930 738.555, 264.714 743.977, 264.286 792.953 C 263.949 831.616, 264.146 848.078, 264.998 852.453 C 267.370 864.626, 275.136 874.517, 286.803 880.224 L 293.500 883.500 358.500 883.500 L 423.500 883.500 429.298 880.783 C 440.440 875.563, 447.617 867.365, 451.108 855.870 C 453.050 849.477, 453.114 847.153, 452.736 797.356 C 452.302 740.102, 452.283 739.911, 445.644 725.668 C 440.885 715.459, 434.724 707.816, 419.679 693.463 C 401.100 675.739, 399.968 673.405, 404.062 661.282 C 406.682 653.525, 405.788 649.652, 399.513 641.571 C 395.632 636.573, 395 635.104, 395 631.075 C 395 626.405, 395.138 626.121, 403.191 614.164 C 405.556 610.653, 406.329 604.935, 405.071 600.264 C 404.115 596.715, 403.028 594.863, 397.527 587.416 C 396.140 585.538, 396.143 585.021, 397.557 582.186 C 398.848 579.599, 399.071 575.848, 398.813 561.073 L 398.500 543.106 395.149 539.651 C 392.299 536.713, 391.900 535.733, 392.478 533.098 C 393.133 530.117, 393.356 530, 398.371 530 L 403.583 530 406.401 535.746 C 414.976 553.230, 433.004 572, 441.221 572 C 445.143 572, 449.092 569.798, 452.852 565.516 C 457.073 560.709, 456.849 557.967, 451.510 549.091 C 443.596 535.931, 437.566 518.302, 436.784 506.037 C 436.542 502.236, 436.797 501.525, 438.500 501.236 C 439.600 501.049, 441.400 500.495, 442.500 500.003 C 443.600 499.511, 449.450 498.599, 455.500 497.976 C 477.865 495.673, 478 495.535, 478 475 C 478 461.823, 477.791 460.004, 476.016 457.747 C 473.627 454.710, 472.953 454.528, 456.639 452.528 C 449.565 451.661, 442.957 450.512, 441.954 449.976 C 438.994 448.391, 336.007 448.880, 328 450.516 M 333 462.027 C 309.721 466.174, 288.788 482.769, 282.019 502.446 L 280.199 507.736 286.246 508.368 C 289.572 508.716, 295.130 509, 298.597 509 C 316.044 509, 327.477 516.513, 331.597 530.686 L 333.142 536 356.464 536 C 381.703 536, 381 536.157, 381 530.534 C 381 529.268, 382.807 524.622, 385.015 520.209 C 391.965 506.323, 405.532 496.309, 422.528 492.520 C 426.362 491.665, 430.525 490.736, 431.777 490.457 C 434.033 489.953, 434.052 489.812, 433.777 475.724 L 433.500 461.500 385.500 461.363 C 359.100 461.287, 335.475 461.586, 333 462.027 M 446 475.138 L 446 487.276 453.653 486.582 C 457.862 486.201, 462.602 485.630, 464.187 485.313 L 467.069 484.736 466.785 475.133 L 466.500 465.530 458 464.353 C 453.325 463.705, 448.712 463.136, 447.750 463.087 C 446.175 463.009, 446 464.211, 446 475.138 M 419.500 505.399 C 413.099 507.423, 408.999 509.917, 409.017 511.776 C 409.048 514.928, 415.537 529.589, 420.244 537.141 C 427.906 549.435, 439.243 560.888, 442.509 559.635 C 443.672 559.189, 442.853 556.922, 438.589 548.785 C 435.625 543.128, 432.063 535.125, 430.675 531 C 428.098 523.342, 425 509.717, 425 506.042 C 425 503.705, 424.894 503.693, 419.500 505.399 M 559.961 525.461 C 556.546 527.319, 555.655 529.343, 551.576 544.500 C 542.622 577.772, 541.738 580.257, 538.485 581.302 C 534.260 582.659, 532.632 584.329, 529.217 590.806 C 525.252 598.327, 524.521 602.217, 526.049 607.675 C 527.830 614.034, 531.295 616.974, 545.752 624.387 L 558.500 630.923 513.932 630.961 C 464.348 631.004, 462.050 631.254, 456.273 637.223 C 448.201 645.563, 447.828 659.931, 455.475 668 L 457.844 670.500 455.379 677.807 C 448.619 697.843, 450.785 720.074, 461.043 735.945 C 470.336 750.324, 485.691 760.317, 505.322 764.763 C 515.548 767.079, 538.826 767.028, 550 764.666 C 591.877 755.811, 631.532 727.946, 656.258 690 C 659.304 685.325, 662.601 679.813, 663.584 677.750 L 665.370 674 687.685 674 C 708.268 674, 710.001 674.136, 710.008 675.750 C 710.022 678.598, 705.687 712.455, 705.239 713 C 705.013 713.275, 704.036 712.523, 703.067 711.329 C 695.543 702.048, 680.551 703.301, 674.045 713.753 C 672.356 716.467, 669.342 725.107, 666.454 735.512 L 661.664 752.769 657.774 749.951 C 650.656 744.795, 642.450 744.910, 636.368 750.250 C 629.125 756.610, 628.969 757.853, 630 801 L 630.490 821.500 627.789 827.274 C 626.304 830.449, 620.080 841.382, 613.958 851.570 L 602.827 870.092 556.164 869.796 C 514.330 869.531, 509.176 869.323, 506.369 867.786 C 502.626 865.737, 498.196 860.689, 497.493 857.673 C 496.981 855.477, 494.832 838.518, 488.890 789.792 L 485.633 763.083 479.888 760.021 C 476.729 758.337, 473.961 757.306, 473.738 757.730 C 473.515 758.153, 473.895 763.225, 474.583 769 C 475.270 774.775, 477.430 793, 479.383 809.500 C 484.949 856.538, 485.045 857.233, 486.635 862.220 C 488.667 868.591, 495.626 876.134, 502.221 879.114 L 507.500 881.500 555.491 881.787 L 603.482 882.075 606.491 884.895 C 613.431 891.399, 665.554 907.031, 693.671 911.042 C 706.353 912.850, 711.663 910.129, 714.010 900.619 C 715.253 895.582, 719.363 881.282, 722.667 870.500 C 725.940 859.817, 727.721 856.886, 740.905 840.500 C 754.231 823.937, 768.936 802.117, 775.389 789.334 C 782.427 775.390, 782.774 767.084, 776.594 760.531 C 774.764 758.591, 771.848 756.720, 770.113 756.373 C 765.968 755.544, 765.741 754.986, 767.507 749.981 C 768.328 747.653, 768.990 744.343, 768.978 742.624 C 768.944 737.838, 765.630 731.582, 761.433 728.384 C 758.197 725.918, 756.754 725.502, 751.466 725.517 L 745.283 725.534 745.327 720.517 C 745.437 707.733, 733.068 698.602, 721.565 702.975 C 718.413 704.174, 718.454 704.930, 720.645 686.116 L 722.320 671.733 726.520 667.532 C 733.823 660.229, 734.778 649.772, 728.977 640.625 C 724.521 633.598, 719.890 631.675, 706.250 631.187 C 700.063 630.965, 695 630.625, 695 630.430 C 695 630.235, 703.428 617.371, 713.728 601.842 L 732.457 573.609 732.840 566.832 C 733.176 560.875, 732.894 559.496, 730.509 555.426 C 723.876 544.107, 706.669 543.002, 698.401 553.364 C 695.793 556.632, 682.967 577.350, 661.325 613.250 L 650.625 631 646.796 631 C 644.136 631, 639.688 629.333, 632.233 625.544 C 626.330 622.543, 620.863 619.658, 620.084 619.132 C 618.463 618.039, 620.620 614.122, 637.187 588.068 C 643.067 578.821, 646.999 571.606, 646.996 570.068 C 646.990 565.907, 643.380 561.095, 638.741 559.065 C 636.408 558.045, 619.267 549.737, 600.648 540.605 C 582.029 531.472, 565.829 524.018, 564.648 524.040 C 563.467 524.062, 561.357 524.702, 559.961 525.461 M 564.463 540.250 C 564.081 542.038, 561.120 552.385, 557.884 563.244 C 554.648 574.103, 552 583.357, 552 583.809 C 552 584.260, 553.565 585.376, 555.479 586.289 C 559.665 588.285, 558.639 589.810, 566.440 570 C 572.469 554.691, 574.807 551.291, 578.093 553.050 C 579.142 553.611, 580 554.889, 580 555.890 C 580 556.891, 577.361 564.413, 574.135 572.605 C 565.837 593.681, 566.101 591.589, 571.416 594.172 C 573.913 595.385, 576.115 596.180, 576.310 595.939 C 576.504 595.697, 579.946 588.420, 583.959 579.766 C 587.973 571.113, 591.852 563.538, 592.580 562.934 C 594.304 561.503, 597.016 562.072, 598.316 564.136 C 599.110 565.398, 597.679 569.513, 592.054 582.136 C 588.043 591.136, 584.576 598.975, 584.348 599.556 C 584.121 600.137, 586.025 601.657, 588.580 602.933 C 592.397 604.839, 593.381 605.007, 594.097 603.876 C 594.576 603.119, 598.460 595.820, 602.727 587.655 C 606.994 579.491, 611.331 572.358, 612.364 571.805 C 613.821 571.025, 614.716 571.271, 616.343 572.899 L 618.443 574.999 609.681 591.989 L 600.918 608.980 604.209 610.986 C 608.166 613.399, 608.617 613.441, 609.373 611.471 C 609.696 610.630, 611.335 607.817, 613.016 605.221 C 614.697 602.624, 620.282 593.750, 625.428 585.500 L 634.785 570.500 600.745 553.750 C 582.023 544.538, 566.357 537, 565.932 537 C 565.507 537, 564.846 538.462, 564.463 540.250 M 328 562.500 L 328 577.121 331.750 576.810 L 335.500 576.500 335.421 562.500 L 335.342 548.500 331.671 548.190 L 328 547.879 328 562.500 M 344.223 562.250 L 344.500 576.500 348.750 576.807 L 353 577.115 353 562.557 L 353 548 348.473 548 L 343.945 548 344.223 562.250 M 362 562.500 L 362 577 366.500 577 L 371 577 371 562.500 L 371 548 366.500 548 L 362 548 362 562.500 M 380 562.500 L 380 577 383.500 577 L 387 577 387 562.500 L 387 548 383.500 548 L 380 548 380 562.500 M 710.500 557.945 C 707.413 559.209, 706.519 560.536, 687.547 592 C 677.765 608.225, 668.469 623.638, 666.889 626.250 L 664.018 631 672.281 631 L 680.543 631 700.968 600.250 C 714.176 580.366, 721.538 568.362, 721.803 566.279 C 722.128 563.717, 721.593 562.439, 719.183 560.029 C 716.108 556.954, 714.099 556.472, 710.500 557.945 M 328.261 598.250 C 326.014 603.337, 319.473 618.075, 313.724 631 C 287.745 689.406, 279.443 716.122, 276.926 749.408 C 276.319 757.439, 275.998 782.424, 276.180 807.500 L 276.500 851.500 279.157 856.500 C 282.442 862.682, 286.156 866.274, 292 868.919 C 296.371 870.898, 298.287 870.957, 358.783 870.978 L 421.066 871 425.873 868.564 C 428.517 867.225, 432.158 864.445, 433.965 862.387 C 440.735 854.676, 440.500 856.921, 440.500 800 C 440.500 742.227, 440.408 741.313, 433.247 727.613 C 430.272 721.923, 426.099 716.998, 412.392 703 C 402.668 693.071, 394.311 683.632, 393.072 681.182 C 389.887 674.880, 389.473 668.654, 391.758 661.431 C 393.931 654.560, 393.603 652.877, 388.963 647.104 C 385.777 643.139, 383 635.650, 383 631.023 C 383 626.186, 385.935 618.373, 389.511 613.689 C 395.659 605.637, 395.370 603.169, 387.114 593.250 L 383.576 589 357.961 589 L 332.345 589 328.261 598.250 M 538.989 596.250 C 536.994 599.522, 536.403 604.535, 537.765 606.629 C 538.169 607.251, 548.981 612.999, 561.791 619.404 L 585.082 631.049 601.291 630.775 L 617.500 630.500 580.255 611.750 C 559.771 601.438, 542.552 593, 541.991 593 C 541.430 593, 540.079 594.462, 538.989 596.250 M 464.672 645.043 C 460.012 648.709, 460.255 658.461, 465.071 661.038 C 466.185 661.634, 502.374 662, 560.227 662 L 653.586 662 654.543 658.831 C 656.742 651.550, 666.422 649.156, 672.012 654.511 C 673.599 656.032, 675.033 658.226, 675.199 659.388 C 675.493 661.448, 676.002 661.507, 695.775 661.771 L 716.049 662.042 718.525 659.566 C 722.177 655.914, 721.977 649.823, 718.077 645.923 L 715.154 643 591.212 643 C 467.908 643, 467.256 643.011, 464.672 645.043 M 474.987 674.750 C 474.980 675.163, 475.904 682.925, 477.041 692 C 478.178 701.075, 480.126 716.825, 481.370 727 L 483.631 745.500 487.566 747.733 C 489.730 748.961, 494.875 751.082, 499 752.446 C 538.707 765.573, 591.058 747.842, 629.005 708.415 C 638.523 698.526, 646.789 687.921, 652.907 677.750 L 655.163 674 565.082 674 C 515.537 674, 474.994 674.337, 474.987 674.750 M 462.176 688.478 C 460.550 696.574, 460.705 708.432, 462.530 715.540 C 464.163 721.896, 468.876 732.458, 469.709 731.625 C 470.337 730.996, 465.119 687.194, 464.101 684.561 C 463.540 683.108, 463.057 684.090, 462.176 688.478 M 356.472 712.046 C 356.116 712.621, 355.016 717.040, 354.028 721.864 C 349.477 744.078, 339.732 753.268, 315.693 758.018 C 307.039 759.728, 308.185 761.851, 319.295 764.693 C 331.070 767.705, 335.951 769.997, 341.589 775.161 C 347.504 780.577, 352.493 790.924, 354.105 801.116 C 356.082 813.616, 359.942 814.632, 361.838 803.151 C 365.498 780.989, 375.092 769.903, 394.500 765.410 C 404.784 763.030, 406.334 762.498, 406.766 761.202 C 407.257 759.729, 404.501 758.619, 395 756.464 C 375.840 752.116, 366.745 742.608, 362.513 722.500 C 361.586 718.100, 360.612 713.712, 360.347 712.750 C 359.817 710.823, 357.489 710.400, 356.472 712.046 M 721.931 715.712 C 719.580 717.689, 715.218 725.543, 705.822 744.712 C 695.591 765.583, 692.537 771, 691.003 771 C 687.577 771, 687.115 768.070, 689.187 759.500 C 693.417 742.013, 696.764 724.217, 696.290 721.736 C 695.640 718.337, 692.721 715.750, 689.536 715.750 C 686.270 715.750, 684.240 717.489, 682.419 721.849 C 680.713 725.932, 673.374 752.177, 668.139 772.918 C 665.686 782.636, 663.936 787.683, 662.769 788.401 C 659.764 790.249, 658.247 787.222, 657.052 777 C 655.662 765.105, 654.527 761.560, 651.293 759.016 C 647.841 756.301, 645.555 756.479, 643.055 759.657 C 641.023 762.241, 640.972 763.173, 641.232 793.407 L 641.500 824.500 638.900 830.667 C 637.470 834.059, 631.282 845.344, 625.150 855.746 C 619.017 866.148, 614 875.141, 614 875.731 C 614 876.321, 615.462 877.325, 617.250 877.961 C 643.548 887.320, 671.075 894.964, 691.356 898.538 C 699.308 899.939, 701.366 900.026, 702.007 898.988 C 702.444 898.281, 705.105 889.603, 707.920 879.704 C 710.735 869.805, 714.352 858.953, 715.957 855.589 C 717.563 852.225, 724.126 842.954, 730.543 834.987 C 742.893 819.650, 760.433 794.069, 766.415 782.667 C 770.754 774.397, 771.099 769.766, 767.549 767.440 C 762.795 764.325, 760.869 765.865, 745.262 785.250 C 740.059 791.712, 735.433 797, 734.983 797 C 732.668 797, 731 795.542, 731 793.519 C 731 792.271, 734.757 785.232, 739.348 777.876 C 758.346 747.438, 759.929 743.722, 756.018 738.750 C 751.891 733.504, 746.916 735.762, 739.339 746.321 C 736.505 750.269, 730.255 759.688, 725.448 767.250 C 718.489 778.202, 716.256 781, 714.478 781 C 709.172 781, 709.555 779.101, 718.842 759.372 C 732.422 730.521, 734.298 725.915, 734.404 721.162 C 734.575 713.436, 728.033 710.577, 721.931 715.712" stroke="none" fill="black" fill-rule="evenodd"/>
</svg>