<svg xmlns="http://www.w3.org/2000/svg" width="100%" height="auto" viewBox="0 0 1024 1024" version="1.1">
	<path d="M 407.500 166.972 C 404.750 167.977, 397.775 170.892, 392 173.451 C 386.225 176.010, 361.700 185.240, 337.500 193.962 C 286.642 212.292, 285.863 212.608, 276.872 218.585 C 266.965 225.171, 262.847 229.903, 229.952 272.500 C 226.979 276.350, 214.739 292.325, 202.752 308 C 190.766 323.675, 176.946 341.713, 172.043 348.085 C 160.437 363.165, 158.656 366.276, 158.712 371.365 C 158.784 378.040, 160.363 380.407, 170.701 389.338 C 206.666 420.409, 259.939 465.698, 262.827 467.657 C 265.395 469.400, 267.664 470, 271.689 470 C 278.353 470, 281.212 468.563, 290.335 460.630 C 294.276 457.203, 298.063 454.058, 298.750 453.640 C 299.745 453.036, 299.983 466.389, 299.918 519.191 L 299.835 585.500 295.317 576 C 292.832 570.775, 283.841 551.425, 275.337 533 C 266.833 514.575, 258.771 498.378, 257.422 497.007 C 255.486 495.040, 253.971 494.517, 250.234 494.530 C 247.630 494.538, 244.375 494.889, 243 495.310 C 240.776 495.991, 240.250 495.602, 238.237 491.788 C 232.915 481.703, 222.711 479.871, 205.146 485.848 C 187.964 491.695, 165.404 504.219, 154.806 513.795 C 147.475 520.417, 145.059 529.420, 148.441 537.513 L 149.882 540.962 146.323 542.651 C 138.551 546.339, 137.033 554.367, 142.097 565 C 143.800 568.575, 151.232 584.672, 158.612 600.772 C 169.660 624.871, 198.806 687.419, 212.061 715.474 C 216.411 724.680, 221.891 727.682, 229.028 724.770 C 232.206 723.474, 232.708 723.541, 235.868 725.685 C 239.808 728.359, 248.305 728.818, 256.948 726.823 C 261.564 725.757, 262.307 725.837, 264.774 727.661 C 269.076 730.842, 271.952 737.106, 273.508 746.682 C 277.260 769.765, 294.011 819.090, 305.319 840.353 C 311.066 851.160, 318.510 859.141, 326.521 863.085 C 332.579 866.067, 333.444 866.222, 341.722 865.803 C 350.994 865.333, 356.272 863.410, 362.500 858.232 C 371.579 850.684, 376.165 837.578, 374.043 825.244 C 373.405 821.535, 372.636 817.488, 372.333 816.250 L 371.783 814 431.008 814 L 490.233 814 489.665 816.750 C 489.353 818.263, 488.335 824.061, 487.404 829.635 C 485.713 839.753, 485.714 839.778, 487.941 844.378 C 490.708 850.094, 494.815 853.112, 500.736 853.780 C 504.115 854.160, 505.962 855.045, 507.895 857.208 C 509.815 859.357, 511.684 860.259, 515 860.638 C 517.475 860.922, 520.400 861.528, 521.500 861.986 C 525.937 863.833, 527.367 863.970, 530.963 862.893 C 534.095 861.954, 535.141 862.046, 537.277 863.446 C 538.994 864.571, 541.593 865.061, 545.169 864.932 C 548.101 864.827, 551.850 865.047, 553.500 865.420 C 555.570 865.889, 557.628 865.515, 560.139 864.214 C 563.393 862.528, 564.068 862.480, 566.510 863.759 C 568.262 864.677, 570.544 864.966, 572.871 864.565 C 574.867 864.221, 578.841 863.977, 581.702 864.024 C 584.962 864.078, 587.836 863.498, 589.402 862.472 C 591.557 861.060, 592.394 861.013, 595.475 862.127 C 598.167 863.100, 599.767 863.149, 601.951 862.324 C 603.547 861.722, 606.942 861.465, 609.495 861.752 C 613.196 862.169, 614.716 861.847, 616.997 860.160 C 619.626 858.217, 620.087 858.164, 622.679 859.516 C 626.131 861.317, 627.768 861.349, 631 859.679 C 632.784 858.757, 634.408 858.659, 636.669 859.337 C 639.223 860.102, 640.641 859.868, 643.968 858.134 C 647.261 856.417, 648.515 856.205, 650.162 857.087 C 651.318 857.705, 653.829 857.915, 655.864 857.562 C 657.864 857.215, 661.678 856.972, 664.340 857.022 C 667.220 857.075, 670.163 856.468, 671.608 855.521 C 673.623 854.201, 674.686 854.125, 677.864 855.078 C 680.974 856.009, 682.228 855.944, 684.541 854.732 C 686.661 853.622, 688.109 853.491, 690.198 854.219 C 692.410 854.990, 693.819 854.775, 696.824 853.209 C 699.611 851.756, 701.116 851.486, 702.405 852.207 C 703.375 852.750, 706.043 852.905, 708.334 852.552 C 710.626 852.198, 714.792 851.946, 717.594 851.992 C 721.238 852.050, 723.370 851.521, 725.086 850.131 C 726.902 848.661, 727.938 848.432, 729.353 849.189 C 730.381 849.739, 733.084 849.911, 735.361 849.571 C 737.637 849.231, 741.453 848.985, 743.839 849.023 C 746.434 849.064, 749.488 848.319, 751.436 847.170 C 753.795 845.778, 755.172 845.517, 756.431 846.221 C 757.387 846.756, 760.043 846.918, 762.334 846.581 C 764.626 846.244, 768.775 845.996, 771.556 846.031 C 775.177 846.076, 777.337 845.523, 779.169 844.082 C 781.383 842.340, 782.145 842.228, 784.845 843.247 C 787.244 844.153, 788.995 844.149, 792.436 843.228 C 794.897 842.570, 798.256 842.301, 799.902 842.630 C 802.048 843.060, 803.945 842.579, 806.610 840.932 C 809.373 839.225, 811.551 838.700, 815.097 838.888 C 817.721 839.027, 820.910 838.573, 822.184 837.878 C 823.458 837.184, 826.183 836.565, 828.241 836.504 C 830.839 836.426, 832.841 835.568, 834.796 833.696 C 837.044 831.542, 838.564 831, 842.354 831 C 844.964 831, 848.373 830.341, 849.931 829.536 C 854.007 827.428, 857.815 822.505, 858.598 818.331 C 859.244 814.885, 858.807 811.741, 854.129 786.179 L 852.240 775.859 854.463 773.679 C 862.329 765.967, 864.411 757.832, 863.718 737.525 C 863.436 729.261, 862.623 720.778, 861.911 718.674 C 858.411 708.321, 844.548 699.485, 827 696.420 C 817.527 694.765, 800.598 694.832, 781.500 696.600 L 774.500 697.248 773.287 690.874 C 770.780 677.697, 763.702 664.435, 755.152 656.894 C 749.213 651.657, 743.186 648.616, 732.794 645.616 L 724.500 643.222 724.245 548.111 C 724.105 495.800, 724.330 453.010, 724.745 453.023 C 725.160 453.036, 728.875 456.017, 733 459.647 C 743.388 468.790, 745.557 469.992, 751.685 469.996 C 758.857 470.001, 760.762 469.075, 769.689 461.243 C 777.708 454.209, 814.111 422.865, 844.780 396.590 C 854.283 388.448, 862.721 380.507, 863.530 378.943 C 864.338 377.379, 865 373.876, 865 371.159 C 865 364.901, 867.440 368.358, 814.076 299 C 766.567 237.253, 756.497 225.447, 744.686 217.647 C 737.928 213.185, 732.239 210.771, 711 203.356 C 684.928 194.253, 660.506 185.129, 638.500 176.269 C 603.040 161.993, 604.939 162.087, 592.511 173.990 C 571.008 194.582, 543.973 204.993, 512 204.992 C 479.538 204.992, 452.912 194.986, 431.391 174.701 C 420.400 164.341, 417.380 163.364, 407.500 166.972 M 403.248 183.751 C 397.906 186.075, 395.001 187.896, 395.003 188.920 C 395.013 195.185, 403.667 220.134, 409.253 230 C 429.591 265.921, 464.857 287.669, 506 289.662 C 527.783 290.717, 545.316 287.079, 564.500 277.524 C 594.502 262.581, 615.219 235.220, 625.435 197.046 C 626.822 191.864, 627.826 187.492, 627.665 187.332 C 626.953 186.620, 612.598 181, 611.490 181 C 610.810 181, 609.953 182.909, 609.581 185.250 C 608.619 191.317, 603.320 206.383, 599.469 214 C 589.238 234.238, 572.394 250.828, 552.844 259.924 C 537.408 267.105, 530.792 268.473, 511.500 268.473 C 492.254 268.473, 485.585 267.101, 470.327 260.003 C 442.253 246.945, 421.705 221.014, 414.057 188.991 C 412.975 184.462, 411.956 180.623, 411.793 180.460 C 411.630 180.296, 407.784 181.777, 403.248 183.751 M 429 192.885 C 429 194.621, 434.840 207.709, 437.976 213 C 458.744 248.044, 499.300 263.707, 537.715 251.520 C 560.159 244.399, 581.331 223.923, 591.120 199.870 C 592.704 195.978, 594 192.623, 594 192.417 C 594 192.210, 590.957 194.009, 587.238 196.415 C 563.120 212.016, 540.728 218.477, 511 218.413 C 491.783 218.371, 481.114 216.713, 465.819 211.389 C 453.560 207.122, 448.143 204.469, 437.250 197.399 C 432.712 194.454, 429 192.423, 429 192.885 M 638.963 198.348 C 636.863 207.444, 631.937 221.250, 627.492 230.500 C 605.236 276.816, 563.905 302.961, 512.500 303.241 C 454.879 303.555, 407.585 269.943, 388.189 214.892 C 386.521 210.158, 384.613 203.520, 383.948 200.142 C 383.284 196.764, 382.259 194, 381.670 194 C 379.486 194, 296.278 224.351, 290.536 227.242 C 279.448 232.825, 271.826 241.457, 229.380 296.500 C 182.664 357.081, 171.925 371.271, 172.204 372.045 C 172.367 372.495, 183.807 382.456, 197.627 394.182 C 211.447 405.907, 233.568 424.838, 246.785 436.250 C 260.002 447.663, 271.432 457, 272.185 457 C 272.938 457, 279.504 451.795, 286.777 445.433 L 300 433.866 300 400.387 L 300 366.909 302.455 364.455 C 305.576 361.334, 308.432 361.341, 311.569 364.478 L 314.046 366.955 313.402 490.728 L 312.757 614.500 320.440 631 C 335.706 663.786, 335.298 662.745, 334.686 667.308 C 334.273 670.381, 333.213 672.333, 330.709 674.628 C 328.260 676.872, 327.101 678.964, 326.612 682.023 C 325.855 686.758, 323.743 690.210, 317.320 697.207 C 313.740 701.109, 313 702.595, 313 705.892 C 313 711.457, 314.313 714.341, 319.323 719.778 C 331.395 732.877, 350.066 764.165, 362.273 791.750 L 365.924 800 429.040 800 L 492.156 800 488.541 795.777 C 482.785 789.053, 481.789 783.882, 482.171 762.722 C 482.492 744.957, 482.568 744.384, 485.230 739.855 C 488.580 734.157, 492.471 730.800, 500.321 726.838 C 511.339 721.276, 521.959 719.361, 561.480 715.811 L 598.102 712.521 604.486 699.511 C 615.141 677.798, 628.939 662.859, 646.836 653.661 C 663.242 645.228, 677.704 642, 699.072 642 L 711 642 711 504 C 711 367.333, 711.019 365.981, 713 364 C 714.100 362.900, 716.125 362, 717.500 362 C 718.875 362, 720.900 362.900, 722 364 C 723.921 365.921, 724 367.333, 724 399.831 L 724 433.663 731.250 440.095 C 745.825 453.027, 750.807 457, 752.446 457 C 753.366 457, 756.455 454.839, 759.310 452.198 C 765.986 446.022, 787.257 427.567, 822.840 397.080 C 843.160 379.669, 851.056 372.322, 850.741 371.118 C 850.335 369.563, 828.426 340.288, 804.628 309.500 C 782.991 281.507, 756.018 248.057, 749.581 241.233 C 738.783 229.786, 734.147 227.431, 693.172 212.572 C 673.002 205.259, 652.822 197.907, 648.326 196.235 L 640.153 193.195 638.963 198.348 M 417.753 370.457 C 405.019 375.337, 399.686 388.282, 404.676 402.205 C 407.051 408.830, 405.724 411.410, 398.903 413.436 C 387.089 416.945, 380.921 423.079, 378.853 433.378 C 376.756 443.818, 381.426 453.608, 390.629 458.062 C 394.742 460.053, 396.164 460.213, 404.522 459.626 C 413.743 458.978, 413.852 458.997, 415.916 461.621 C 417.535 463.678, 418 465.698, 418 470.667 C 418 481.056, 422.344 488.692, 430.906 493.352 C 437.352 496.861, 443.493 497.934, 450.679 496.807 C 462.135 495.010, 470.671 486.797, 473.446 474.899 C 475.661 465.405, 477.730 463.841, 489.228 462.972 C 499.636 462.185, 503.167 460.789, 508.413 455.387 C 516.711 446.842, 516.589 432.771, 508.136 423.658 C 505.166 420.457, 499.002 417, 496.262 417 C 495.263 417, 493.407 416.273, 492.138 415.384 C 490.012 413.895, 489.885 413.299, 490.523 407.804 C 491.386 400.363, 489.845 394.481, 485.721 389.477 C 479.795 382.288, 469.024 379.991, 460.141 384.022 C 454.410 386.622, 450.435 386.563, 448.240 383.843 C 439.623 373.164, 435.009 370.086, 426.622 369.425 C 423.606 369.188, 419.960 369.612, 417.753 370.457 M 422.388 382.980 C 419.504 384.145, 416 388.795, 416 391.457 C 416 392.660, 416.727 395.777, 417.616 398.385 C 419.988 405.348, 419.155 413.797, 415.642 418.403 C 412.576 422.422, 409.121 424.478, 401.756 426.665 C 393.317 429.171, 389.560 435.164, 392.519 441.400 C 394.730 446.058, 397.195 446.852, 407.600 446.259 C 414.916 445.841, 417.253 446.073, 420.053 447.493 C 428.033 451.540, 430.241 455.524, 431.017 467.282 C 431.570 475.653, 431.761 476.228, 435.095 479.562 C 443.948 488.414, 458.954 483.369, 460.596 470.989 C 462.283 458.267, 471.957 450, 485.154 450 C 492.535 450, 499.179 447.582, 500.377 444.461 C 501.611 441.245, 500.961 436.220, 498.987 433.711 C 497.859 432.276, 494.674 430.398, 491.737 429.435 C 484.672 427.119, 481.356 424.618, 478.857 419.720 C 477.063 416.203, 476.854 414.566, 477.413 408.399 C 478.011 401.796, 477.871 400.962, 475.749 398.494 C 472.875 395.153, 468.410 394.959, 462 397.895 C 452.228 402.371, 442.786 399.686, 436.001 390.501 C 433.501 387.117, 430.436 384.244, 428.432 383.407 C 426.580 382.633, 424.937 382.029, 424.782 382.063 C 424.627 382.098, 423.550 382.511, 422.388 382.980 M 507.427 490.474 C 502.499 492.930, 499.470 496.597, 498.082 501.785 C 497.655 503.381, 495.866 505.226, 493.444 506.567 C 491.275 507.767, 488.158 510.634, 486.517 512.937 C 482.406 518.708, 482.276 526.797, 486.201 532.727 C 488.925 536.844, 495.729 541, 499.745 541 C 501.440 541, 502.167 542.064, 503.421 546.376 C 506.517 557.027, 516.602 562.333, 526.535 558.540 C 530.862 556.887, 537 550.876, 537 548.291 C 537 547.064, 537.994 546.721, 544.916 545.558 C 553.325 544.145, 559.532 535.028, 558.817 525.142 C 557.966 513.388, 550.955 505.986, 539.915 505.187 C 533.869 504.750, 533.806 504.714, 532.020 500.623 C 529.695 495.299, 526.707 492.225, 521.605 489.908 C 516.122 487.418, 513.337 487.529, 507.427 490.474 M 215.500 496.482 C 199.812 500.717, 173.095 514.822, 163.750 523.802 C 159.652 527.741, 158.676 532.656, 161.523 535.019 C 163.421 536.594, 162.824 536.847, 200.798 518.367 L 230.096 504.109 228.091 500.178 C 225.260 494.629, 223.872 494.221, 215.500 496.482 M 513.280 502.075 C 511.991 502.562, 510.812 504.085, 510.469 505.707 C 509.116 512.101, 507.100 514.916, 502.032 517.484 C 497.700 519.679, 497 520.445, 497 522.989 C 497 525.699, 497.442 526.073, 502.333 527.495 C 508.581 529.311, 513.580 533.740, 514.530 538.302 C 516.388 547.221, 521.454 548.650, 525.775 541.473 C 528.783 536.476, 534.520 533, 539.759 533 C 545.780 533, 548.170 525.080, 543.545 520.455 C 541.555 518.464, 540.086 518, 535.778 518 C 528.649 518, 524.062 514.897, 521.136 508.094 C 518.713 502.462, 516.581 500.828, 513.280 502.075 M 244.765 510.514 C 237.106 515.718, 173.787 546.444, 160.001 551.646 C 156.427 552.994, 153.194 554.413, 152.817 554.799 C 152.246 555.383, 159.010 570.556, 175.197 605 C 176.618 608.025, 182.729 621.075, 188.775 634 C 194.821 646.925, 203.459 665.375, 207.970 675 C 212.480 684.625, 218.012 696.438, 220.263 701.250 C 222.513 706.063, 224.625 710, 224.954 710 C 225.284 710, 228.017 708.136, 231.027 705.859 C 234.037 703.581, 250.450 694.855, 267.500 686.469 C 297.182 671.869, 312.877 665.018, 316.718 664.985 C 321.719 664.942, 321.452 663.947, 309.457 637.895 C 299.154 615.518, 281.186 576.827, 266.318 545 C 263.620 539.225, 258.732 528.553, 255.456 521.285 C 252.180 514.016, 249.267 508.054, 248.982 508.035 C 248.697 508.016, 246.800 509.131, 244.765 510.514 M 199.223 563.557 C 198 564.413, 197.007 565.650, 197.015 566.307 C 197.054 569.354, 199.106 570.415, 206.284 571.101 C 214.296 571.866, 219.840 574.164, 225.354 579.006 C 229.571 582.709, 232.646 582.872, 234.193 579.475 C 235.224 577.213, 234.988 576.579, 231.922 573.390 C 227.126 568.401, 221.541 565.339, 213.986 563.558 C 205.717 561.609, 202.003 561.609, 199.223 563.557 M 255.837 594.706 C 254.395 596.243, 251.950 599.975, 250.403 603 C 247.919 607.859, 247.586 609.607, 247.546 618 C 247.502 627.173, 247.579 627.511, 249.805 627.827 C 253.643 628.371, 255 626.328, 255 620.003 C 255 613.152, 256.805 607.597, 261.026 601.463 C 264.712 596.104, 264.695 592.640, 260.980 592.206 C 259.262 592.005, 257.623 592.802, 255.837 594.706 M 192.571 596.571 C 190.089 599.054, 190.710 601.538, 194.685 605.028 C 201.690 611.179, 212.087 614.009, 214.960 610.548 C 216.754 608.387, 215.253 605.086, 212.183 604.441 C 207.710 603.502, 203.418 601.306, 199.734 598.072 C 195.751 594.574, 194.773 594.369, 192.571 596.571 M 282.750 631.080 C 281.487 631.816, 281 633.372, 281 636.675 C 281 639.464, 279.973 643.539, 278.368 647.114 C 276.172 652.008, 275.951 653.236, 277.033 654.540 C 279.403 657.395, 283.247 655.913, 285.879 651.128 C 289.082 645.306, 290.038 634.181, 287.549 631.692 C 285.603 629.746, 285.142 629.687, 282.750 631.080 M 226.977 654.023 C 224.652 656.348, 225.171 657.925, 229.664 662.196 C 235.669 667.906, 249.184 671.673, 252.339 668.518 C 255.610 665.247, 253.101 661, 247.896 661 C 243.858 661, 238.459 658.610, 234.351 655.003 C 230.305 651.451, 229.638 651.362, 226.977 654.023 M 684.500 653.707 C 658.390 657.250, 636.282 670.522, 622.687 690.815 C 612.057 706.681, 605.056 725.612, 602.873 744.393 C 601.432 756.790, 601.644 757.259, 609.745 759.614 C 616.655 761.623, 635.919 761.211, 640.500 758.957 C 643.834 757.316, 643.932 757, 646.398 739.920 C 649.032 721.674, 656.520 702.048, 666.671 686.786 C 673.138 677.061, 687.012 663.354, 694.795 659 C 705.536 652.990, 705.524 653.049, 696 653.182 C 691.325 653.247, 686.150 653.483, 684.500 653.707 M 715.942 661.287 C 706.529 664.496, 698.869 669.401, 689.494 678.223 C 681.609 685.643, 672.124 697.914, 670.043 703.387 C 669.099 705.869, 669.211 706, 672.275 706.008 C 674.049 706.013, 688.325 704.874, 704 703.479 C 748.656 699.503, 762.141 698.192, 762.545 697.788 C 763.439 696.894, 759.756 684.460, 756.952 678.906 C 748.066 661.301, 733.835 655.188, 715.942 661.287 M 296 687.353 C 270.819 699.150, 245.199 712.055, 243.933 713.580 C 242.441 715.378, 243.606 715.403, 254.603 713.813 C 261.033 712.884, 263.701 712.894, 266.922 713.858 C 276.571 716.750, 282.905 726.636, 286.144 743.865 C 292.358 776.911, 313.047 831.870, 323.903 844.166 C 333.595 855.145, 346.821 855.801, 355.653 845.743 C 365.196 834.874, 362.576 822.106, 342.472 781.500 C 331.501 759.342, 320.232 741.010, 310.612 729.674 C 302.899 720.584, 299.750 713.599, 299.750 705.579 C 299.750 698.073, 301.263 694.872, 308.569 686.925 C 311.556 683.676, 314 680.788, 314 680.509 C 314 679.234, 310.449 680.584, 296 687.353 M 786.500 708.127 C 781.550 708.598, 761.750 710.350, 742.500 712.019 C 692.434 716.361, 663.655 719.095, 662.861 719.586 C 661.569 720.384, 656.950 741.831, 656.326 749.928 L 655.704 758 658.723 758 C 660.383 758, 672.487 756.885, 685.621 755.523 C 698.754 754.161, 732 750.782, 759.500 748.014 C 787 745.247, 813.349 742.326, 818.054 741.525 C 834.933 738.650, 846.203 733.396, 850 726.631 C 851.376 724.179, 851.325 723.652, 849.380 720.230 C 846.720 715.550, 837.433 710.570, 827.500 708.496 C 819.820 706.893, 801.213 706.725, 786.500 708.127 M 557.500 728.089 C 526.515 730.993, 518.746 732.258, 508.500 736.066 C 500.484 739.046, 494 745.354, 494 750.172 C 494 756.455, 502.134 762.220, 516.524 766.137 C 527.304 769.072, 551.559 769.262, 575.800 766.601 C 590.973 764.936, 593.002 764.506, 592.300 763.101 C 591.860 762.221, 591.549 756.100, 591.609 749.500 C 591.703 739.050, 592.247 734.951, 594.627 726.750 C 595.272 724.527, 595.648 724.514, 557.500 728.089 M 843.749 745.714 C 835.187 750.021, 819.976 753.410, 800 755.461 C 791.475 756.337, 757.725 759.754, 725 763.056 C 692.275 766.358, 638.500 771.785, 605.500 775.115 C 547.512 780.967, 545.081 781.133, 533 780.085 C 526.125 779.488, 517.297 778.160, 513.382 777.134 C 507.394 775.564, 503.995 774.194, 493.630 769.175 C 493.152 768.943, 492.940 771.940, 493.160 775.834 C 493.492 781.699, 494.070 783.635, 496.530 787.117 C 502.410 795.438, 515.185 800.317, 536 802.189 C 547.193 803.196, 550.842 802.887, 672.772 790.605 C 741.671 783.665, 802.646 777.503, 808.272 776.911 C 828.380 774.797, 843.342 769.350, 848.843 762.140 C 851.130 759.143, 851.549 757.497, 851.853 750.329 C 852.047 745.748, 851.822 742.071, 851.353 742.159 C 850.884 742.246, 847.462 743.846, 843.749 745.714 M 838.480 782.490 L 835.461 783.818 836.164 795.159 C 837.766 820.967, 837.930 821.944, 840.785 822.661 C 844.121 823.498, 848.203 821.207, 849.391 817.830 C 850.558 814.511, 844.400 780.957, 842.646 781.082 C 842.016 781.126, 840.141 781.760, 838.480 782.490 M 818 787.383 L 811.500 788.522 811.869 808.511 C 812.077 819.791, 812.675 829.045, 813.241 829.750 C 814.735 831.611, 817.450 831.265, 819.548 828.946 C 821.027 827.313, 822.148 827.018, 825.032 827.505 C 831.030 828.519, 831.357 827.411, 830.572 808.744 C 830.196 799.810, 829.638 791.038, 829.333 789.250 C 828.705 785.575, 828.507 785.542, 818 787.383 M 792.750 790.257 L 784 791.242 784 811.921 C 784 826.671, 784.344 832.944, 785.200 833.800 C 786.873 835.473, 789.618 835.296, 792.633 833.321 C 794.685 831.977, 795.573 831.877, 797.085 832.821 C 800.236 834.789, 802.849 834.214, 804.224 831.250 C 806.188 827.018, 805.092 789.574, 803 789.398 C 802.175 789.329, 797.563 789.716, 792.750 790.257 M 764.164 793.248 L 755.828 794.217 756.164 814.957 C 756.419 830.670, 756.833 836.097, 757.872 837.348 C 759.681 839.525, 761.634 839.433, 764.693 837.027 C 766.987 835.222, 767.446 835.179, 770.051 836.527 C 773.664 838.395, 773.541 838.409, 775.961 835.811 C 778.278 833.324, 778.471 829.131, 777.345 805.658 C 776.719 792.608, 776.597 792.006, 774.595 792.139 C 773.443 792.216, 768.749 792.715, 764.164 793.248 M 738 795.680 C 729.218 796.583, 730 794.415, 730 817.864 C 730 836.770, 730.169 838.843, 731.829 840.345 C 734.093 842.394, 735.395 842.433, 737 840.500 C 738.503 838.689, 741.338 838.569, 743.958 840.206 C 745.548 841.199, 746.251 841.083, 747.944 839.551 C 749.896 837.784, 750 836.614, 750 816.345 L 750 795 745.750 795.160 C 743.413 795.248, 739.925 795.482, 738 795.680 M 707.250 798.737 L 702 799.105 702 820.352 C 702 835.545, 702.342 841.942, 703.200 842.800 C 704.933 844.533, 709.040 844.274, 711.227 842.294 C 712.766 840.902, 713.466 840.810, 715.042 841.794 C 717.824 843.531, 720.436 843.281, 722.421 841.087 C 723.963 839.384, 724.124 836.927, 723.897 818.587 L 723.643 798 718.071 798.185 C 715.007 798.287, 710.138 798.535, 707.250 798.737 M 689.500 800.564 C 688.400 800.743, 684.913 801.172, 681.750 801.517 L 676 802.144 676.106 814.822 C 676.280 835.670, 677.221 845.117, 679.250 846.391 C 680.547 847.205, 681.453 847.166, 682.750 846.239 C 685.938 843.959, 687.246 843.673, 689.119 844.842 C 691.829 846.535, 693.789 846.263, 694.985 844.028 C 695.655 842.775, 695.942 834.470, 695.770 821.278 C 695.474 798.494, 695.790 799.538, 689.500 800.564 M 658 803.680 C 656.075 803.878, 653.462 804.271, 652.194 804.553 L 649.888 805.066 650.194 826.115 C 650.477 845.574, 650.646 847.271, 652.434 848.577 C 654.106 849.798, 654.676 849.787, 656.649 848.495 C 659.374 846.709, 662.173 846.573, 663.749 848.149 C 664.614 849.014, 665.528 848.884, 667.449 847.626 L 670 845.954 670 824.477 L 670 803 665.750 803.160 C 663.413 803.248, 659.925 803.482, 658 803.680 M 632.750 806.272 L 623 807.244 623 828.422 C 623 850.219, 623.308 852, 627.078 852 C 628 852, 629.315 851.325, 630 850.500 C 631.408 848.804, 635.563 848.484, 636.500 850 C 637.485 851.594, 640.545 851.161, 642.345 849.171 C 643.775 847.591, 644 844.468, 644 826.171 C 644 814.527, 643.663 805.067, 643.250 805.150 C 642.837 805.232, 638.112 805.737, 632.750 806.272 M 500.634 808.340 C 497.971 819.031, 495.158 838.285, 495.953 840.377 C 497.664 844.876, 505.294 848.029, 506.537 844.750 C 507.662 841.780, 511.867 810.475, 511.217 809.900 C 510.823 809.551, 508.401 808.571, 505.836 807.723 C 501.276 806.214, 501.160 806.228, 500.634 808.340 M 610 808.556 C 609.175 808.734, 605.462 809.168, 601.750 809.519 L 595 810.159 595 830.880 C 595 845.662, 595.344 851.944, 596.200 852.800 C 597.693 854.293, 601.654 854.369, 602.549 852.921 C 602.976 852.230, 604.987 852.086, 608.137 852.519 C 616.111 853.616, 616 853.942, 616 829.378 L 616 808 613.750 808.116 C 612.513 808.180, 610.825 808.378, 610 808.556 M 580.500 811.581 C 579.400 811.751, 575.913 812.172, 572.750 812.517 L 567 813.144 567 833.072 C 567 851.830, 567.120 853.120, 569.050 855.050 L 571.101 857.101 574.530 854.982 C 577.854 852.927, 578.050 852.917, 580.952 854.631 C 583.888 856.365, 583.995 856.353, 586.473 854.025 L 589 851.651 589 831.326 L 589 811 585.750 811.136 C 583.962 811.211, 581.600 811.411, 580.500 811.581 M 516.173 825.250 C 512.752 846.964, 512.599 848.812, 514.074 850.589 C 515.044 851.758, 516.390 852.033, 519.057 851.607 C 521.920 851.149, 523.100 851.453, 524.510 853.011 C 526.593 855.313, 528.761 855.497, 531.280 853.586 C 532.723 852.491, 533.237 849.807, 534 839.368 C 534.518 832.291, 534.955 823.742, 534.971 820.372 L 535 814.243 527.459 813.122 C 523.312 812.505, 519.545 812, 519.090 812 C 518.634 812, 517.322 817.962, 516.173 825.250 M 331.826 815.712 C 326.731 818.873, 325.265 827.524, 329.016 832.293 C 331.377 835.294, 337.100 837.443, 340.476 836.595 C 344.480 835.591, 348.725 831.282, 349.433 827.503 C 351.228 817.938, 340.172 810.535, 331.826 815.712 M 541.660 819.750 C 541.331 822.913, 540.781 831.800, 540.437 839.500 C 539.921 851.047, 540.072 853.844, 541.299 855.465 C 542.770 857.406, 542.830 857.407, 546.343 855.514 C 549.696 853.709, 550.007 853.696, 551.779 855.300 C 554.309 857.589, 556.513 857.440, 558.961 854.811 C 560.867 852.766, 561 851.364, 561 833.311 L 561 814 551.629 814 L 542.258 814 541.660 819.750" stroke="none" fill="black" fill-rule="evenodd"/>
</svg>