<svg xmlns="http://www.w3.org/2000/svg" width="100%" height="auto" viewBox="0 0 1024 1024" version="1.1">
	<path d="M 703 141.045 C 689.594 143.293, 675.917 151.757, 660.479 167.361 C 648.076 179.897, 641.319 189.451, 633.506 205.500 C 622.594 227.914, 618.662 244.808, 618.610 269.500 C 618.570 289.049, 620.163 299.755, 625.478 315.639 C 631.812 334.571, 639.396 347.911, 655.661 368.733 C 668.976 385.777, 674.353 401.047, 671.985 415.088 C 669.967 427.052, 664.904 435.573, 650.942 450.500 C 639.851 462.357, 630.429 474.571, 628.651 479.393 C 628.267 480.434, 627.755 481.089, 627.514 480.847 C 627.272 480.605, 627.497 452.413, 628.013 418.196 C 628.817 364.895, 628.741 354.775, 627.478 347.536 C 623.280 323.462, 610.537 308.953, 586.516 300.897 L 578.500 298.209 578 272.807 C 577.562 250.540, 577.277 247.066, 575.696 244.655 C 573.504 241.314, 568.313 238.009, 565.250 238.004 C 563.362 238.001, 563 237.457, 563 234.625 C 563 225.516, 559.393 219.991, 552.180 218.048 L 548 216.923 548 201.075 L 548 185.227 552.250 184.645 C 571.062 182.066, 582.788 183.134, 599.854 188.981 C 614.451 193.982, 615.203 193.714, 623.586 180.500 C 631.353 168.256, 628.264 163.993, 606.611 157.077 C 587.804 151.070, 576.658 149.701, 548 149.874 C 487.688 150.239, 484.916 150.353, 479.813 152.687 C 473.191 155.717, 470.653 160.847, 471.178 170.140 C 471.527 176.313, 471.888 177.289, 475.022 180.523 C 477.155 182.723, 480.116 184.504, 482.741 185.165 L 487 186.237 487 201.539 L 487 216.841 483.750 217.528 C 479.604 218.405, 474.424 221.537, 473.425 223.770 C 473 224.722, 472.393 228.183, 472.076 231.463 C 471.514 237.279, 471.417 237.444, 468.123 238.113 C 463.616 239.029, 459.881 241.895, 457.752 246.071 C 456.227 249.060, 456.003 252.655, 456.002 274.092 L 456 298.683 451.750 299.939 C 437.291 304.211, 419.878 318.763, 412.788 332.500 C 405.019 347.553, 405.615 335.911, 405.027 483.917 C 404.610 588.585, 404.238 616.421, 403.250 616.750 C 402.307 617.064, 401.999 614.754, 401.995 607.333 C 401.980 575.167, 398.317 542.243, 389.569 495.631 C 384.651 469.432, 383.638 457.958, 384.274 435.684 C 384.823 416.439, 386.675 402.242, 391.144 383 C 398.668 350.605, 399.405 345.443, 399.432 325 C 399.457 306.192, 399.359 305.216, 396.663 297.500 C 392.804 286.455, 387.894 278.029, 381.052 270.711 L 375.246 264.500 374.546 248 C 372.938 210.134, 371.202 190.030, 369.250 186.689 C 365.434 180.154, 359.743 177.795, 342.170 175.465 C 311.370 171.380, 274.039 171.220, 240.704 175.029 C 213.128 178.180, 207.792 181.125, 206.003 194.180 C 205.027 201.296, 203.427 225.790, 202.421 248.993 C 201.824 262.781, 201.535 264.637, 199.801 265.852 C 196.794 267.958, 186.186 281.697, 183.571 286.872 C 173.446 306.912, 172.540 330.442, 180.578 364.672 C 187.001 392.027, 188.831 401.423, 190.420 415.202 C 193.959 445.896, 191.604 472.383, 181.514 515.368 C 180.627 519.145, 180.065 522.398, 180.264 522.597 C 180.463 522.797, 182.589 522.625, 184.987 522.215 C 189.958 521.366, 188.683 524.791, 194.746 496 C 199.769 472.144, 200.500 465.157, 200.498 441 C 200.495 414.542, 199.489 406.817, 191.503 371.925 C 183.696 337.820, 182.476 325.143, 185.485 309.415 C 187.547 298.637, 194.364 285.070, 201.374 277.794 L 206.871 272.088 212.686 274.444 C 246.623 288.194, 330.403 288.218, 364.224 274.486 L 369.947 272.162 374.840 277.516 C 381.076 284.338, 384.223 289.744, 387.704 299.610 C 390.374 307.179, 390.485 308.253, 390.435 326 C 390.385 343.667, 390.214 345.243, 386.641 361 C 377.379 401.845, 375 418.656, 375 443.249 C 375 462.391, 376.393 474.689, 381.882 504 C 390.392 549.443, 392.477 569.732, 392.314 605.500 C 392.116 648.725, 390.320 711.088, 389.073 718 C 386.072 734.633, 383.165 742, 377.835 746.485 L 374.583 749.222 364.951 739.345 C 357.179 731.376, 354.879 728.311, 353.043 723.484 C 350.780 717.532, 350.776 717.436, 352.348 705.500 C 354.524 688.982, 352.887 676.217, 346.725 661.659 C 344.755 657.007, 344.744 656.704, 346.422 653.862 C 348.051 651.104, 348.058 650.737, 346.519 648.388 C 345.220 646.406, 344.297 645.989, 342.184 646.429 C 339.705 646.945, 339.137 646.371, 334.741 638.899 L 329.982 630.810 332.491 627.828 C 335.442 624.321, 335.472 624.118, 333.443 621.223 C 331.491 618.436, 328.617 618.383, 325.917 621.083 C 324.771 622.229, 323.741 623.017, 323.627 622.833 C 323.514 622.650, 320.627 619.290, 317.211 615.366 C 313.795 611.443, 311.010 607.843, 311.022 607.366 C 311.034 606.890, 311.924 605.375, 313 604 C 316.624 599.367, 315.061 595, 309.779 595 C 307.739 595, 306.641 595.693, 305.818 597.500 C 305.192 598.875, 304.189 599.979, 303.589 599.954 C 302.990 599.928, 299.442 597.098, 295.705 593.664 L 288.910 587.421 290.865 583.054 C 293.465 577.246, 292.508 574.500, 287.885 574.500 C 285.019 574.500, 284.279 575.003, 283.056 577.782 C 282.261 579.588, 281.116 580.875, 280.511 580.643 C 279.906 580.411, 276.406 578.120, 272.732 575.552 L 266.053 570.882 268.008 565.737 C 269.793 561.040, 269.829 560.387, 268.419 558.236 C 267.309 556.541, 266.120 555.966, 264.187 556.190 C 261.970 556.446, 261.257 557.287, 260.109 561 C 259.343 563.475, 258.622 565.622, 258.505 565.770 C 258.388 565.919, 254.852 564.406, 250.646 562.409 C 242.289 558.440, 242.381 558.619, 244.185 549.885 C 245.523 543.407, 244.524 541, 240.500 541 C 237.359 541, 236.238 542.725, 235.432 548.797 C 235.050 551.684, 234.360 554.277, 233.901 554.561 C 233.039 555.094, 219.052 551.231, 217.791 550.111 C 217.401 549.766, 217.516 546.423, 218.045 542.683 C 219.064 535.493, 218.407 532.754, 215.387 531.595 C 214.469 531.243, 212.657 531.650, 211.359 532.500 C 209.235 533.892, 209 534.778, 209 541.378 L 209 548.710 200.810 548.605 C 192.910 548.504, 192.598 548.587, 192.027 550.947 C 191.537 552.971, 191.224 552.482, 190.217 548.121 C 189.548 545.221, 189 540.943, 189 538.615 C 189 531.927, 184.976 528.579, 180.903 531.877 C 178.788 533.590, 178.754 533.898, 179.976 540.372 C 180.673 544.067, 180.987 547.346, 180.674 547.659 C 180.361 547.972, 176.888 548.775, 172.955 549.443 C 166.638 550.516, 165.741 550.473, 165.251 549.079 C 163.495 544.082, 159.504 542.680, 156.496 546.004 C 154.964 547.697, 154.868 548.416, 155.879 550.633 C 156.537 552.077, 156.946 553.334, 156.787 553.427 C 156.629 553.520, 153.350 555.137, 149.500 557.021 C 140.214 561.564, 129.605 572.066, 125.278 581 C 121.080 589.665, 117.266 603.147, 115.950 613.970 C 112.331 643.735, 129.202 678.174, 163.296 710.619 C 193.641 739.497, 226.707 757.316, 261.500 763.543 C 280.951 767.024, 289.940 771.028, 299.567 780.500 C 307.456 788.262, 311.129 794.160, 322.541 817.387 C 327.706 827.899, 334.228 839.956, 337.034 844.180 C 346.377 858.242, 358.230 869.621, 371.061 876.846 C 400.948 893.675, 436.845 884.421, 445.594 857.632 C 446.515 854.809, 447.378 852.369, 447.510 852.209 C 447.641 852.048, 452.868 853.465, 459.125 855.356 C 471.458 859.084, 484.529 861.945, 501 864.523 C 515.152 866.738, 560.150 867.653, 577.872 866.086 C 606.803 863.528, 635.163 856.671, 656.253 847.134 L 663.007 844.081 664.489 847.628 C 666.968 853.561, 671.610 858.515, 677.704 861.733 C 680.892 863.415, 694.525 868.980, 708 874.098 C 732.189 883.285, 732.614 883.404, 741.500 883.451 C 749.647 883.495, 751.005 883.220, 755.833 880.546 C 762.116 877.066, 765.064 873.796, 769.061 865.880 C 772.640 858.789, 772.860 854.141, 769.750 851.276 C 768.513 850.136, 755.688 843.306, 741.250 836.098 C 726.813 828.890, 715 822.571, 715 822.055 C 715 821.540, 715.441 820.846, 715.979 820.513 C 716.518 820.180, 729.136 825.104, 744.021 831.454 C 758.905 837.804, 772.224 843, 773.618 843 C 777.393 843, 782 837.943, 782 833.799 C 782 831.955, 781.364 829.538, 780.588 828.428 C 779.811 827.319, 767.773 820.715, 753.838 813.753 C 725.739 799.715, 723.973 798.670, 725.582 797.036 C 726.365 796.240, 729.671 797.211, 737.582 800.562 C 771.244 814.822, 781.472 819, 782.716 819 C 788.294 819, 792.959 812.371, 791.361 806.717 C 790.516 803.729, 788.517 802.503, 763.294 789.500 C 748.357 781.800, 735.825 775.182, 735.445 774.793 C 735.064 774.404, 735.013 773.409, 735.331 772.581 C 736.006 770.820, 737.878 771.543, 769.783 785.883 C 780.939 790.898, 791.302 795, 792.811 795 C 800.625 795, 804.614 784.074, 798.618 779.098 C 796.861 777.640, 782.333 769.930, 759.750 758.472 C 750.673 753.866, 745 750.413, 745 749.494 C 745 748.672, 745.381 748, 745.846 748 C 746.311 748, 758.550 753.175, 773.043 759.500 C 787.537 765.825, 800.685 771, 802.263 771 C 806.338 771, 808.962 769.320, 810.463 765.751 C 811.801 762.567, 811.099 757.699, 808.997 755.597 C 808.426 755.026, 795.942 748.392, 781.255 740.856 C 766.568 733.319, 754.390 726.669, 754.192 726.077 C 753.216 723.148, 758.198 724.300, 771.256 730.024 C 779.090 733.458, 789.002 738.019, 793.282 740.161 C 806.967 747.008, 810.788 748.225, 814.624 746.959 C 816.477 746.347, 818.670 744.881, 819.497 743.701 C 821.792 740.425, 821.418 734.727, 818.750 732.311 C 817.513 731.190, 804.424 724.086, 789.663 716.523 C 770.728 706.822, 763.139 702.461, 763.889 701.711 C 765.198 700.402, 767.352 701.074, 783.750 707.900 C 813.373 720.232, 820.524 723, 822.767 723 C 824.080 723, 826.469 721.685, 828.077 720.077 C 831.504 716.650, 832.014 711.447, 829.250 708.107 C 828.288 706.944, 816.090 700.392, 802.144 693.548 C 773.468 679.474, 772.679 679.018, 773.841 677.209 C 774.474 676.221, 781.115 678.512, 802.085 686.951 C 817.538 693.171, 830.938 697.989, 832.795 697.993 C 837.482 698.003, 841 694.248, 841 689.237 C 841 687.117, 840.437 684.624, 839.750 683.698 C 839.063 682.772, 826.237 675.951, 811.250 668.540 C 793.295 659.662, 784 654.543, 784 653.533 C 784 651.605, 786.007 651.585, 790.216 653.473 C 803.695 659.519, 840.721 674, 842.702 674 C 846.391 674, 851 668.889, 851 664.799 C 851 662.955, 850.369 660.557, 849.598 659.473 C 848.827 658.388, 836.002 651.432, 821.098 644.015 C 800.965 633.995, 794 630.076, 794 628.765 C 794 627.794, 794.384 627, 794.853 627 C 795.322 627, 807.584 631.876, 822.103 637.835 C 836.621 643.794, 849.275 648.950, 850.222 649.293 C 853.019 650.305, 857.949 648, 859.530 644.941 C 861.432 641.265, 861.394 638.007, 859.417 635.184 C 858.486 633.856, 846.728 627.368, 830.917 619.458 C 813.685 610.838, 804 605.454, 804 604.496 C 804 603.673, 804.703 603, 805.562 603 C 806.421 603, 818.870 607.950, 833.225 614 C 848.377 620.386, 860.688 625, 862.574 625 C 866.384 625, 871 620.327, 871 616.470 C 871 611.031, 869.037 609.256, 855.111 602.104 C 811.940 579.932, 811.730 579.808, 815.263 578.452 C 816.531 577.966, 835.074 585.524, 853.860 594.185 C 869.904 601.582, 873.535 602.429, 877.211 599.637 C 881.727 596.205, 881.707 588.340, 877.174 585.141 C 874.934 583.560, 836.620 562.566, 827.750 558.059 C 826.237 557.291, 825 555.838, 825 554.831 C 825 553.824, 825.208 553, 825.463 553 C 828.035 553, 848.742 562.726, 865.091 571.613 C 872.582 575.685, 879.909 579, 881.418 579 C 885.398 579, 890 574.067, 890 569.799 C 890 565.512, 887.847 562.473, 883.091 560.046 C 877.906 557.401, 850.138 540.646, 852 541.286 C 852.825 541.569, 861.956 545.221, 872.291 549.401 C 882.626 553.580, 892.119 557, 893.386 557 C 899.360 557, 903.595 545.282, 900.998 535.935 C 898.962 528.603, 894.518 525.105, 873.863 514.575 C 863.214 509.146, 854.388 504.620, 854.250 504.519 C 854.113 504.417, 856.892 500.010, 860.425 494.726 C 875.622 471.996, 883.372 447.912, 884.630 419.500 C 886.117 385.900, 877.440 356.654, 858 329.745 C 851.506 320.756, 835.009 304.588, 824 296.422 C 818.775 292.547, 806.625 284.059, 797 277.561 C 766.788 257.163, 752.141 244.160, 740.885 227.743 C 733.595 217.112, 729.519 207.595, 726.860 195 C 725.190 187.089, 724.903 182.472, 725.143 167.404 C 725.395 151.637, 725.210 148.969, 723.707 146.675 C 720.481 141.752, 712.205 139.502, 703 141.045 M 696.205 152.520 C 682.727 157.706, 664.770 173.273, 652.970 190 C 641.779 205.862, 632.861 227.131, 629.278 246.500 C 627.246 257.485, 627.052 281.101, 628.901 292.500 C 631.786 310.290, 641.433 333.808, 651.955 348.702 C 664.684 366.721, 677.341 378.576, 707 400.260 C 736.889 422.111, 747.622 432.433, 754.091 445.545 C 762.425 462.440, 762.018 477.550, 752.748 495.368 C 749.143 502.296, 745.899 506.161, 729.930 522.546 C 705.629 547.481, 698.239 558.550, 694.413 575.746 C 692.207 585.660, 692.932 602.797, 695.942 611.941 C 699.069 621.437, 705.587 633.040, 711.814 640.194 C 718.185 647.513, 729.873 657.171, 731.880 656.774 C 732.638 656.623, 734.596 653.075, 736.229 648.889 L 739.199 641.279 735.695 636.688 C 724.306 621.767, 721.366 603.316, 727.381 584.500 C 731.783 570.728, 739.425 559.898, 761.961 535.500 C 773.906 522.568, 779.756 514.700, 785.313 504.094 C 796.421 482.891, 797.809 463.519, 789.658 443.450 C 782.162 424.994, 767.861 409.114, 740.603 388.981 C 709.230 365.808, 698.880 356.774, 685.637 341 C 672.398 325.232, 663.623 308.597, 658.309 289.191 C 655.959 280.611, 655.646 277.608, 655.578 263 C 655.518 250.239, 655.921 244.687, 657.359 238.500 C 659.586 228.917, 661.349 225.379, 660.598 232 C 656.867 264.906, 661.893 292.617, 676.046 317.177 C 689.094 339.819, 703.525 354.260, 741.257 382.434 C 774.303 407.111, 789.531 424.703, 796.698 446.484 C 799.007 453.498, 799.343 456.187, 799.386 468 C 799.432 480.254, 799.179 482.239, 796.655 489.500 C 790.852 506.189, 782.930 518.062, 762.806 540.236 C 750.086 554.251, 741.985 564.502, 737.622 572.106 C 730.143 585.138, 727.237 602.725, 730.425 615.647 C 732.165 622.699, 738.809 636.423, 740.388 636.224 C 740.876 636.163, 745.745 625.175, 751.208 611.806 C 774.702 554.318, 791.549 515.126, 794.939 510.071 C 802.844 498.285, 817.881 492.582, 832.253 495.919 L 836.006 496.791 837.981 490.145 C 847.265 458.913, 840.343 425.975, 818.503 397.461 C 810.153 386.560, 796.671 374.118, 771.995 354.541 C 759.623 344.725, 744.610 331.925, 738.634 326.097 C 712.380 300.494, 697.624 274.580, 690.444 241.471 C 687.797 229.268, 687.993 207.112, 690.849 195.500 C 694.751 179.640, 700.296 167.230, 708.389 156.250 L 712.996 150 707.748 150.049 C 704.703 150.077, 699.857 151.115, 696.205 152.520 M 507.352 159.964 C 480.731 160.580, 480 160.809, 480 168.500 C 480 176.290, 484.691 178.065, 507 178.721 C 519.001 179.074, 526.772 178.763, 535.500 177.582 C 562.223 173.967, 568.664 173.558, 579.602 174.780 C 588.339 175.756, 599.487 178.664, 609.172 182.493 C 610.419 182.986, 611.751 181.806, 614.422 177.840 C 616.390 174.918, 618 172.239, 618 171.886 C 618 169.760, 598.489 163.645, 583.274 161.003 C 571.031 158.877, 560.498 158.733, 507.352 159.964 M 711.864 164 C 698.048 182.347, 691.883 208.804, 695.454 234.419 C 701.200 275.628, 722.795 308.159, 768.500 344.453 C 794.624 365.199, 797.185 367.328, 805.793 375.462 C 841.274 408.991, 854.342 447.493, 843.997 488.013 C 842.897 492.319, 841.741 496.513, 841.426 497.331 C 841.059 498.288, 841.651 499.072, 843.085 499.527 C 845.592 500.323, 846.253 499.645, 853.396 488.958 C 862.780 474.917, 869.689 457.836, 873.610 438.976 C 875.831 428.291, 876.128 400.963, 874.141 390 C 869.429 363.996, 856.732 339.717, 838.024 320.940 C 826.938 309.813, 819.594 304.120, 793.103 286.118 C 760.590 264.024, 749.076 254.238, 737.484 238.850 C 722.415 218.845, 716.364 201.420, 715.138 174.500 L 714.500 160.500 711.864 164 M 266.644 182.089 C 247.722 183.171, 225.349 185.827, 221.457 187.454 C 211.484 191.620, 220.238 196.132, 246.076 200.143 C 258.502 202.071, 264.448 202.382, 289 202.382 C 313.370 202.382, 319.542 202.064, 331.592 200.191 C 355.991 196.399, 365.960 191.386, 356.750 187.541 C 352.095 185.599, 330.449 183.146, 307.910 182.007 C 286.730 180.938, 286.772 180.938, 266.644 182.089 M 531.751 187.582 C 531.431 187.902, 523.256 188.149, 513.585 188.132 L 496 188.099 496 203.943 C 496 216.453, 496.289 219.897, 497.373 220.313 C 498.128 220.603, 503.866 221.141, 510.123 221.510 C 521.780 222.196, 536.801 220.936, 537.892 219.180 C 538.226 218.642, 538.365 211.181, 538.201 202.601 L 537.902 187 535.118 187 C 533.586 187, 532.072 187.262, 531.751 187.582 M 213.663 208.750 C 213.320 212.463, 212.553 226.257, 211.959 239.404 C 211.078 258.923, 211.121 263.460, 212.190 264.138 C 215.453 266.207, 229.515 270.145, 240 271.926 C 265.009 276.175, 297.301 276.956, 324 273.956 C 336.035 272.604, 354.405 268.552, 361.084 265.776 L 366.224 263.640 365.550 249.070 C 364.605 228.666, 363.013 202.680, 362.687 202.354 C 362.537 202.204, 359.059 203.136, 354.957 204.425 C 348.640 206.411, 338.629 208.423, 324.424 210.562 C 321.534 210.997, 321.280 211.394, 320.213 217.128 C 318.197 227.971, 313.245 232.560, 301.809 234.187 C 291.789 235.613, 272.070 234.595, 267.801 232.431 C 261.082 229.027, 257.794 224.144, 256.571 215.754 C 255.785 210.367, 257.200 211.007, 240.500 208.483 C 234.450 207.569, 226.228 205.736, 222.229 204.410 C 218.230 203.085, 214.807 202, 214.623 202 C 214.438 202, 214.006 205.037, 213.663 208.750 M 265.006 213.250 C 265.009 213.938, 265.480 216.187, 266.052 218.248 C 267.792 224.512, 270.790 225.451, 289 225.431 C 299.405 225.419, 305.236 225.007, 306.740 224.177 C 309.456 222.677, 312 218.022, 312 214.550 L 312 212 288.500 212 C 270.364 212, 265.001 212.285, 265.006 213.250 M 482.250 228.138 C 481.563 228.832, 481 231.732, 481 234.581 L 481 239.763 485.250 240.814 C 498.905 244.190, 527.643 244.771, 543.500 241.991 C 552.981 240.328, 554 239.663, 554 235.132 C 554 232.896, 553.251 230.298, 552.250 229.065 C 550.508 226.919, 550.467 226.917, 543.500 228.633 C 534.916 230.747, 502.694 231.117, 494 229.201 C 490.975 228.535, 487.375 227.739, 486 227.432 C 484.594 227.119, 482.953 227.428, 482.250 228.138 M 467.087 248.913 C 465.024 250.976, 464.973 251.716, 465.233 275.737 L 465.500 300.438 470.184 302.177 C 480.987 306.187, 492.395 307.437, 518 307.417 C 539.025 307.401, 543.847 307.104, 552 305.324 C 557.225 304.183, 563.188 302.541, 565.250 301.676 L 569 300.102 569 275.551 C 569 252.333, 568.891 250.891, 567 249 C 564.550 246.550, 564.606 246.550, 555.167 248.944 C 536.469 253.685, 503.153 254.188, 484 250.019 C 478.775 248.882, 473.309 247.691, 471.854 247.372 C 469.952 246.955, 468.612 247.388, 467.087 248.913 M 733.052 253.378 C 732.972 254.719, 738.777 264.729, 743.851 272 C 753.269 285.497, 764.172 295.433, 794.822 318.450 C 823.016 339.624, 836.410 353.381, 846.954 372 C 854.368 385.090, 860.372 402.693, 861.675 415.160 C 862.016 418.429, 862.656 420.743, 863.097 420.302 C 864.330 419.067, 862.261 400.510, 859.951 392.090 C 854.507 372.244, 843.714 354.798, 826.692 338.327 C 819.936 331.790, 805.994 320.369, 791.518 309.514 C 761.705 287.159, 747.694 273.683, 734.802 254.965 C 733.869 253.609, 733.081 252.895, 733.052 253.378 M 573.544 307.928 C 572.384 309.806, 557.277 313.892, 545.353 315.555 C 536.133 316.840, 528.724 317.096, 512 316.710 C 488.769 316.173, 477.302 314.602, 466.256 310.444 C 462.684 309.100, 458.736 308, 457.483 308 C 456.229 308, 451.135 310.037, 446.163 312.526 C 430.913 320.160, 421.240 331.703, 416.152 348.338 L 413.656 356.500 413.235 482.285 C 413.003 551.467, 413.059 608.711, 413.359 609.494 C 413.800 610.643, 415.159 610.349, 420.412 607.967 C 434.073 601.773, 459.833 595.950, 489.500 592.350 C 510.778 589.768, 580.657 589.719, 601.879 592.271 C 609.787 593.222, 616.575 594, 616.964 594 C 617.538 594, 619.512 411.612, 619.459 363.500 C 619.443 348.974, 618.202 342.452, 613.767 333.589 C 608.255 322.576, 595.137 312.447, 581.968 309.038 C 579.511 308.402, 576.750 307.664, 575.834 307.400 C 574.918 307.135, 573.887 307.373, 573.544 307.928 M 239.580 359.225 C 231.091 360.989, 226.076 366.161, 223.351 375.963 C 221.752 381.714, 221.752 383.205, 223.355 401.287 C 227.984 453.488, 227.603 473.175, 221.376 503.435 C 217.299 523.251, 217.320 522.791, 220.422 523.570 C 221.891 523.938, 223.313 524.020, 223.582 523.751 C 224.507 522.826, 229.121 499.482, 231.044 486 C 233.621 467.926, 233.600 440.371, 230.988 412 C 229.900 400.175, 229.007 387.783, 229.005 384.462 C 228.998 376.229, 232.035 370.240, 237.656 367.401 C 241.714 365.351, 242.941 365.304, 289.833 365.401 C 336.647 365.498, 337.925 365.552, 340.677 367.559 C 342.230 368.691, 344.512 371.599, 345.750 374.020 C 348.467 379.337, 348.559 383.475, 346.521 408.497 C 344.194 437.058, 343.665 458.177, 344.881 474 C 345.980 488.295, 347.315 497.080, 354.379 536.500 C 362.851 583.775, 364.009 617.244, 358.464 654.585 C 357.206 663.063, 357.121 665.879, 358.059 668.143 C 359.385 671.343, 361.596 671.910, 362.383 669.250 C 366.377 655.739, 368.369 629.446, 367.703 599.037 C 367.102 571.625, 365.893 561.462, 358.567 522.220 C 356.634 511.866, 354.326 498.468, 353.439 492.447 C 351.251 477.595, 350.489 445.856, 351.881 427.500 C 354.642 391.077, 355.009 382.319, 354.001 376.928 C 352.657 369.740, 348.665 364.218, 342.531 361.062 L 337.581 358.514 290.531 358.464 C 264.654 358.437, 241.726 358.779, 239.580 359.225 M 453.878 375.498 C 451.316 376.322, 447.478 378.711, 445.269 380.855 C 437.685 388.215, 437.999 383.997, 438.006 478.428 C 438.009 534.008, 438.367 563.780, 439.060 566.277 C 440.355 570.939, 445.130 576.517, 449.905 578.946 C 458.722 583.430, 506.157 586.716, 537.777 585.033 C 559.467 583.879, 579.022 581.703, 583.703 579.923 C 588.328 578.165, 592.889 574.126, 595.259 569.692 L 597.500 565.500 597.500 479.500 C 597.500 382.747, 597.879 387.737, 589.983 380.604 C 583.082 374.369, 578.364 373.649, 553.727 375.067 C 534.104 376.197, 491.475 375.919, 467 374.502 C 461.027 374.156, 457.126 374.452, 453.878 375.498 M 455.741 382.357 C 450.666 384.265, 449.008 385.786, 446.863 390.500 C 445.151 394.265, 445.043 399.447, 445.022 478.849 C 444.998 572.317, 444.683 567.787, 451.489 571.993 C 460.199 577.376, 509.490 580.473, 546.170 577.942 C 577.508 575.780, 583.420 574.335, 588.438 567.615 C 590.476 564.887, 590.504 563.876, 590.812 482.177 C 591.028 424.806, 590.788 397.943, 590.026 394.412 C 588.818 388.807, 584.705 383.955, 579.500 381.991 C 577.259 381.145, 569.798 381.165, 550 382.071 C 525.780 383.179, 499.655 382.985, 469.979 381.476 C 462.289 381.086, 458.499 381.320, 455.741 382.357 M 678.359 389.705 C 680.588 397.368, 681.247 401.480, 681.291 408 C 681.404 424.617, 675.776 436.733, 660.061 453.704 C 640.711 474.600, 634.232 484.673, 629.750 500.825 C 626.797 511.470, 626.575 539.555, 629.352 551.402 C 633.036 567.119, 639.541 581.150, 649.164 594.136 C 654.801 601.743, 654.866 601.791, 663.164 604.531 C 667.749 606.044, 675.100 609.128, 679.500 611.382 C 683.900 613.637, 687.761 615.610, 688.080 615.768 C 688.398 615.925, 687.780 612.779, 686.706 608.777 C 683.862 598.182, 683.933 582.117, 686.872 571.114 C 691.734 552.912, 699.153 541.857, 722.516 518 C 740.583 499.551, 744.684 494.413, 747.947 486.133 C 754.654 469.120, 751.744 452.686, 739.341 437.525 C 734.723 431.880, 718.408 417, 716.837 417 C 716.436 417, 717.034 419.587, 718.165 422.750 C 721.173 431.157, 721.110 444.327, 718.016 453.950 C 714.290 465.540, 708.139 473.809, 691.593 489.473 C 675.110 505.079, 669.758 511.607, 664.738 522.237 C 655.230 542.370, 655.508 566.213, 665.523 589.443 C 667.406 593.812, 668.766 597.567, 668.546 597.788 C 667.915 598.419, 662.936 590.124, 659.806 583.226 C 650.763 563.302, 650.887 538.082, 660.117 519.753 C 665.576 508.912, 668.827 504.955, 687.436 486.500 C 706.515 467.578, 709.920 462.933, 713.405 451.068 C 715.402 444.269, 715.462 431.918, 713.530 425.412 C 710.370 414.772, 705.562 408.877, 691.168 397.991 C 683.435 392.143, 678.056 388.663, 678.359 389.705 M 812.399 505.906 C 807.445 508.156, 801.949 513.465, 799.779 518.097 C 795.722 526.759, 754.177 627.440, 717.498 717.500 C 712.440 729.918, 707.816 741.270, 695.398 771.750 C 692.317 779.313, 686.852 792.700, 683.253 801.500 C 670.899 831.707, 670.787 832.044, 671.239 837.690 C 671.695 843.389, 675.245 849.804, 679.475 852.575 C 686.021 856.865, 732.984 874.150, 739.776 874.770 C 743.301 875.092, 746.486 874.704, 749.375 873.601 C 754.323 871.711, 758.867 867.458, 757.437 866.054 C 756.922 865.548, 751.100 862.682, 744.500 859.686 C 737.900 856.689, 728.450 852.336, 723.500 850.013 C 718.550 847.689, 712.176 844.752, 709.335 843.486 C 704.184 841.192, 701.999 838.758, 702.001 835.316 C 702.001 834.317, 706.298 822.925, 711.549 810 C 716.801 797.075, 724.187 778.850, 727.964 769.500 C 734.638 752.975, 737.933 744.920, 750.932 713.344 C 757.289 697.901, 760.100 693.750, 764.198 693.750 C 765.465 693.750, 779.021 698.821, 794.322 705.018 C 818.875 714.962, 822.316 716.112, 823.622 714.807 C 824.852 713.577, 824.875 713.141, 823.760 712.216 C 823.022 711.604, 810.962 705.460, 796.960 698.563 C 782.957 691.666, 770.206 684.894, 768.625 683.512 C 766.201 681.395, 765.850 680.499, 766.389 677.803 C 767.325 673.123, 769.502 670.329, 772.689 669.715 C 775.546 669.165, 783.402 671.973, 815.894 685.159 C 831.412 691.456, 834 692.031, 834 689.182 C 834 687.802, 827.568 684.171, 807.250 674.082 C 792.538 666.777, 779.712 660.101, 778.750 659.245 C 776.264 657.036, 776.478 650.934, 779.161 647.523 C 781.042 645.131, 781.849 644.838, 785.411 645.258 C 787.660 645.523, 801.174 650.539, 815.442 656.403 C 829.709 662.268, 841.972 666.841, 842.692 666.565 C 846.740 665.011, 842.735 662.374, 816.082 649.041 C 800.728 641.360, 787.858 634.579, 787.482 633.971 C 786.243 631.966, 786.773 625.996, 788.413 623.493 C 791.917 618.145, 793.867 618.681, 838.643 637.288 C 851.663 642.699, 855.904 643.311, 853.486 639.429 C 852.928 638.533, 840.732 631.883, 826.384 624.650 C 812.036 617.418, 799.555 610.882, 798.648 610.128 C 796.524 608.359, 796.497 602.163, 798.601 599.159 C 799.481 597.902, 801.282 596.463, 802.601 595.962 C 805.309 594.932, 806.773 595.455, 840.362 609.441 C 851.837 614.219, 861.849 617.888, 862.612 617.595 C 863.376 617.302, 864 616.470, 864 615.746 C 864 615.021, 851.962 608.190, 837.250 600.565 C 822.538 592.940, 809.712 586.024, 808.750 585.196 C 804.229 581.306, 808.617 571.116, 814.849 571.032 C 817.638 570.994, 830.227 576.011, 853.443 586.410 C 862.762 590.585, 871.232 594, 872.266 594 C 878.826 594, 866.717 586.081, 833.780 568.831 C 826.081 564.799, 819.091 560.467, 818.246 559.205 C 815.270 554.756, 819.929 546, 825.273 546 C 828.282 546, 845.383 553.597, 863.800 563.115 C 873.315 568.033, 881.527 571.792, 882.050 571.469 C 884.481 569.967, 882.144 567.692, 871.250 560.957 C 847.813 546.467, 842.383 543.197, 835.763 539.589 C 832.057 537.569, 828.545 535.018, 827.957 533.920 C 826.504 531.205, 827.672 528.075, 830.545 526.983 C 833.026 526.040, 836.730 527.085, 850 532.474 C 870.575 540.830, 890.445 548.043, 891.632 547.588 C 892.496 547.256, 893 545.476, 893 542.754 C 893 538.569, 891.276 534.902, 888.046 532.214 C 885.203 529.848, 838.567 506.949, 833.568 505.465 C 826.722 503.431, 817.422 503.625, 812.399 505.906 M 191.365 557 C 191.751 558.925, 192.336 563.040, 192.665 566.144 C 193.190 571.105, 193.021 571.918, 191.270 572.856 C 187.764 574.732, 185.628 572.043, 184.500 564.333 C 183.347 556.455, 182.716 556.087, 173.612 557.977 L 168.231 559.094 171.221 568.297 C 172.865 573.359, 174.950 580.124, 175.855 583.331 C 177.441 588.956, 177.431 589.212, 175.559 590.581 C 171.587 593.485, 170.568 592.114, 165.415 576.933 C 162.907 569.545, 160.480 563.114, 160.020 562.642 C 158.738 561.326, 147.419 567.810, 142.056 572.932 C 127.547 586.790, 124.940 607.814, 134.795 631.500 C 145.274 656.687, 169.216 684.450, 200 707.110 C 206.837 712.143, 223.875 721.945, 232.622 725.877 C 245.013 731.448, 255.381 734.673, 270.500 737.659 C 292.284 741.961, 302.324 746.758, 314.255 758.562 C 322.494 766.714, 327.543 774.249, 336.999 792.500 C 352.451 822.324, 357.540 830.355, 367.215 840.174 C 378.037 851.157, 387.806 856.607, 400.934 858.988 C 421.174 862.658, 440 849.697, 440 832.092 C 440 818.356, 425.957 801.516, 391 773.333 C 357.099 746.002, 348.051 736.650, 344.460 725.232 C 342.733 719.743, 342.744 717.406, 344.593 697.379 C 344.976 693.228, 344.762 687.455, 344.080 683.538 C 342.434 674.087, 338.144 660.993, 336.706 661.036 C 336.043 661.056, 334.243 662.101, 332.707 663.358 C 330.365 665.274, 330.062 666.036, 330.831 668.072 C 331.335 669.407, 332.285 673.703, 332.942 677.618 C 335.122 690.612, 330.530 704.962, 321.794 712.449 C 299.839 731.267, 260.291 726.987, 218.767 701.302 C 195.390 686.842, 171.214 663.209, 157.574 641.484 C 141.497 615.877, 139.817 590.795, 153.258 577.048 C 156.872 573.351, 157.362 573.304, 158.829 576.523 C 159.833 578.727, 159.597 579.574, 156.963 583.210 C 143.470 601.837, 154.006 632.082, 185.344 664.680 C 225.854 706.820, 279.758 727.266, 310.040 711.980 C 322.924 705.476, 329.293 690.947, 326.250 675 C 325.502 671.081, 325.091 670.534, 323.062 670.762 C 320.067 671.099, 318 669.358, 318 666.499 C 318 664.858, 320.056 662.695, 325.531 658.574 L 333.062 652.905 329.781 647.118 C 327.977 643.935, 325.787 640.269, 324.915 638.971 L 323.331 636.612 316.544 643.806 C 312.812 647.763, 309.394 651, 308.950 651 C 307.525 651, 305 647.912, 305.008 646.179 C 305.012 645.255, 307.944 641.209, 311.524 637.186 L 318.031 629.871 313.427 624.010 C 308.558 617.813, 305.209 614.409, 304.651 615.089 C 304.466 615.315, 302.219 618.777, 299.657 622.781 C 294.772 630.419, 292.786 631.984, 290.114 630.302 C 287.181 628.455, 287.798 626.116, 293.549 617.293 L 299.241 608.562 292.549 602.221 C 288.868 598.734, 285.368 596.044, 284.770 596.243 C 284.173 596.442, 282.125 600.182, 280.221 604.553 C 278.316 608.924, 276.307 613.063, 275.756 613.750 C 274.384 615.464, 271.510 615.320, 269.967 613.460 C 268.426 611.604, 269.167 608.953, 274.354 597.760 L 277.941 590.019 272.720 586.171 C 262.713 578.795, 263.505 578.561, 259.971 589.936 C 256.764 600.259, 254.716 602.669, 251.452 599.960 C 249.363 598.226, 249.628 595.587, 252.960 584.960 C 254.588 579.768, 255.600 575.232, 255.210 574.880 C 253.884 573.685, 242.506 568.004, 241.433 568.002 C 240.847 568.001, 239.565 572.257, 238.585 577.459 C 237.605 582.662, 236.194 587.424, 235.450 588.042 C 233.822 589.393, 230.399 588.482, 229.637 586.495 C 229.148 585.222, 231.303 570.150, 232.595 565.807 C 233 564.446, 231.574 563.633, 225.299 561.647 L 217.500 559.180 216.850 561.340 C 216.492 562.528, 216.155 566.522, 216.100 570.215 C 216.016 575.847, 215.677 577.102, 214 578 C 212.579 578.760, 211.421 578.760, 210 578 C 208.208 577.041, 208 575.906, 208 567.110 L 208 557.290 200.914 556.696 C 197.016 556.369, 193.116 555.516, 192.245 554.801 C 190.838 553.644, 190.740 553.887, 191.365 557 M 627 585.120 L 627 595.740 633.097 596.939 C 639.644 598.227, 641.002 597.912, 639.048 595.558 C 638.368 594.739, 635.379 589.665, 632.406 584.284 L 627 574.500 627 585.120 M 191.022 581.959 C 190.320 583.271, 190.289 585.337, 190.928 588.209 C 191.454 590.569, 192.197 595.986, 192.579 600.247 C 193.398 609.354, 194.600 611.568, 198.234 610.656 C 199.634 610.305, 200.998 609.447, 201.266 608.750 C 201.716 607.575, 199.570 587.332, 198.455 582.250 C 197.803 579.273, 192.569 579.069, 191.022 581.959 M 215.515 592.976 C 214.628 594.412, 213.781 617.736, 214.531 620.096 C 215.027 621.659, 215.884 622.045, 218.335 621.807 L 221.500 621.500 222.280 608.139 C 222.844 598.495, 222.740 594.392, 221.908 593.389 C 220.585 591.795, 216.411 591.526, 215.515 592.976 M 167.250 598.662 C 165.448 599.389, 165.733 603.319, 168.300 613.131 C 171.344 624.768, 173.618 627.289, 177.351 623.164 C 178.905 621.447, 178.839 620.654, 176.337 610.914 C 174.865 605.186, 173.232 599.938, 172.708 599.250 C 171.742 597.983, 169.525 597.744, 167.250 598.662 M 513 599.682 C 466.325 602.327, 422.646 613.035, 407.326 625.589 C 382.228 646.155, 423.192 668.235, 502 676.619 C 523.364 678.892, 569.747 678.886, 591.500 676.608 C 651.432 670.331, 693 654.546, 693 638.064 C 693 625.876, 671.715 614.258, 636.269 607.097 C 607.046 601.194, 580.510 598.933, 543.500 599.194 C 529.750 599.291, 516.025 599.510, 513 599.682 M 237.513 607.186 C 236.511 609.966, 234.055 631.979, 234.590 633.375 C 235.379 635.429, 237.809 636.172, 239.966 635.018 C 241.891 633.988, 244.108 622.211, 244.373 611.614 C 244.499 606.543, 244.473 606.497, 241.243 606.186 C 239.220 605.991, 237.807 606.370, 237.513 607.186 M 258.655 621.829 C 257.745 622.835, 257.003 624.297, 257.007 625.079 C 257.011 625.860, 256.058 630.651, 254.890 635.724 C 253.722 640.796, 253.029 645.634, 253.351 646.474 C 253.696 647.372, 255.169 648, 256.930 648 C 260.258 648, 260.769 646.844, 264.533 630.807 C 266.019 624.477, 266.110 622.838, 265.047 621.557 C 263.321 619.477, 260.681 619.590, 258.655 621.829 M 186.603 622.540 C 185.343 623.800, 185.094 625.282, 185.542 628.843 C 185.865 631.405, 186.437 636.371, 186.814 639.881 C 187.350 644.865, 187.976 646.577, 189.677 647.704 C 191.617 648.990, 192.053 648.947, 193.693 647.307 C 195.362 645.638, 195.455 644.494, 194.690 634.984 C 194.226 629.218, 193.497 623.825, 193.071 623 C 191.963 620.856, 188.531 620.612, 186.603 622.540 M 124.666 628 C 127.153 652.172, 141.418 676.590, 168.604 703.211 C 196.978 730.994, 227.296 747.503, 262.866 754.539 C 285.224 758.961, 293.429 762.614, 304.392 773.027 C 314.102 782.251, 318.443 788.896, 329.155 810.935 C 343.195 839.821, 353.450 853.742, 368.782 864.722 C 379.164 872.157, 387.745 875.240, 399.571 875.784 C 415.529 876.517, 426.960 871.863, 433.141 862.117 C 436.849 856.269, 436.751 855.327, 432.750 858.370 C 420.550 867.650, 399.418 868.288, 382.679 859.882 C 364.060 850.531, 352.234 836.323, 334.560 802.069 C 322.039 777.802, 317.002 770.131, 308.034 761.671 C 298.179 752.375, 288.733 748.036, 269.500 743.973 C 249.253 739.695, 240.833 736.936, 225.500 729.554 C 203.759 719.088, 183.794 704.650, 165.137 685.904 C 145.363 666.036, 136.033 651.982, 125.034 625.500 C 124.491 624.193, 124.364 625.059, 124.666 628 M 280.786 636.250 C 279.349 637.375, 277.045 642.348, 272.250 654.672 C 270.880 658.193, 270.837 659.099, 271.976 660.471 C 273.568 662.389, 276.954 662.129, 278.110 660 C 281.367 654, 287 640.754, 287 639.095 C 287 637.981, 286.130 636.605, 285.066 636.035 C 282.654 634.744, 282.713 634.741, 280.786 636.250 M 211.571 638.571 C 210.075 640.068, 209.791 643.166, 209.550 660.628 C 209.489 665.078, 212.545 667.813, 215.271 665.747 C 217.430 664.110, 219.686 640.532, 217.890 638.367 C 216.376 636.544, 213.507 636.636, 211.571 638.571 M 702 686.465 C 702 710.592, 702.216 730.118, 702.480 729.854 C 703.038 729.295, 706.029 722.160, 717.508 694 C 722.104 682.725, 726.562 671.846, 727.414 669.825 L 728.964 666.150 722.566 661.585 C 719.048 659.074, 712.981 653.774, 709.084 649.807 L 702 642.596 702 686.465 M 237.230 654.765 C 235.108 656.647, 230.566 674.903, 231.166 679.139 C 231.549 681.847, 235.999 682.986, 237.659 680.801 C 239.085 678.922, 244.203 657.137, 243.489 655.983 C 242 653.573, 239.189 653.026, 237.230 654.765 M 292.576 662.079 C 287.333 671.102, 286.980 674.324, 291.179 674.810 C 293.521 675.080, 294.498 674.172, 298.929 667.605 C 301.718 663.472, 304 659.432, 304 658.627 C 304 655.502, 302.710 654, 300.028 654 C 297.632 654, 296.653 655.061, 292.576 662.079 M 399.902 659.318 C 399.848 661.068, 399.656 666.550, 399.475 671.500 C 399.018 684.022, 399.904 686.650, 406.797 693.225 C 421.447 707.198, 457.480 718.187, 505 723.173 C 521.121 724.865, 570.534 724.860, 587 723.166 C 640.316 717.680, 680.205 704.332, 690.436 688.554 C 692.884 684.778, 693 683.954, 693 670.292 L 693 655.985 687.250 659.874 C 680.300 664.576, 675.720 666.880, 666.500 670.312 C 632.220 683.071, 574.771 689.867, 524.083 687.159 C 468.639 684.197, 427.533 674.689, 405.250 659.673 L 400 656.135 399.902 659.318 M 260.335 670.199 C 259.789 670.915, 257.822 676.066, 255.963 681.648 C 253.103 690.241, 252.789 692.041, 253.915 693.398 C 255.504 695.312, 258.378 695.486, 259.724 693.750 C 260.257 693.063, 262.401 688.039, 264.488 682.586 C 267.265 675.330, 268.017 672.246, 267.290 671.086 C 266.023 669.061, 261.633 668.501, 260.335 670.199 M 308.146 682.071 C 304.766 685.960, 302 689.920, 302 690.871 C 302 693.022, 303.900 695.003, 305.950 694.990 C 308.139 694.977, 320 681.570, 320 679.109 C 320 677.231, 317.400 675, 315.212 675 C 314.706 675, 311.526 678.182, 308.146 682.071 M 285.231 682.250 C 282.522 685.590, 276.890 699.077, 277.457 700.864 C 278.178 703.137, 280.343 704.189, 282.553 703.341 C 284.336 702.657, 292 687.958, 292 685.222 C 292 681.566, 287.418 679.554, 285.231 682.250 M 399 734.271 L 399 768.542 408.888 776.807 C 420.368 786.403, 435.154 801.423, 439.830 808.240 C 444.740 815.397, 448.039 825.174, 448.699 834.526 L 449.274 842.677 457.387 845.286 C 475.015 850.954, 495.777 855.015, 517 856.946 C 531.643 858.279, 562.251 858.298, 576.500 856.983 C 606.329 854.231, 636.832 846.643, 655.164 837.416 C 660.853 834.552, 661.932 833.582, 662.539 830.781 C 663.178 827.836, 676.331 794.669, 688.428 765.500 L 692.990 754.500 692.995 727.199 L 693 699.899 686.464 704.563 C 651.817 729.287, 561.805 740.674, 486 729.924 C 449.360 724.728, 418.744 714.678, 404.014 703.011 C 401.923 701.355, 399.939 700, 399.606 700 C 399.273 700, 399 715.422, 399 734.271 M 759.414 712.750 C 758.973 714.263, 758.586 715.852, 758.556 716.281 C 758.507 716.959, 767.864 721.326, 804.362 737.658 C 810.146 740.246, 812.519 740.881, 813.340 740.060 C 814.100 739.300, 814.137 738.441, 813.457 737.362 C 812.445 735.759, 763.463 710.050, 761.358 710.018 C 760.731 710.008, 759.856 711.237, 759.414 712.750 M 749.524 737.250 C 748.765 739.038, 748.449 740.805, 748.822 741.178 C 750.018 742.374, 800.955 764, 802.577 764 C 803.601 764, 804.029 763.272, 803.820 761.888 C 803.568 760.227, 798.051 757.022, 778 746.891 C 763.975 739.805, 752.141 734.005, 751.702 734.003 C 751.263 734.002, 750.283 735.462, 749.524 737.250 M 449.684 740.449 C 439.747 743.993, 438.778 747.423, 439.204 777.570 C 439.585 804.529, 440.427 808.466, 447.615 816.864 C 452.102 822.106, 456.040 824.135, 468.033 827.384 C 518.851 841.155, 581.709 840.571, 630.214 825.879 C 641.473 822.468, 647.253 818.573, 650.674 812.093 C 652.951 807.779, 653 807.083, 653 779.277 C 653 749.379, 652.925 748.825, 648.175 743.734 C 643.630 738.861, 640.068 738.609, 623.166 741.967 C 571.472 752.237, 520.160 752.217, 469.094 741.908 C 452.512 738.561, 454.548 738.714, 449.684 740.449 M 390 745.820 C 390 746.271, 388.333 748.587, 386.296 750.968 L 382.591 755.295 386.008 758.148 C 387.887 759.716, 389.779 761, 390.212 761 C 390.646 761, 391 757.400, 391 753 C 391 748.600, 390.775 745, 390.500 745 C 390.225 745, 390 745.369, 390 745.820 M 450.229 746.669 C 446.584 748.136, 446 752.334, 446 777.084 C 446 792.545, 446.419 802.665, 447.161 805.142 C 449.111 811.651, 454.151 816.560, 461.261 818.878 C 502.017 832.162, 560.722 834.635, 607.765 825.048 C 622.522 822.041, 635.014 818.213, 639.338 815.375 C 641.752 813.790, 643.904 811.211, 645.135 808.428 C 646.947 804.332, 647.071 802.013, 646.797 777.412 L 646.500 750.824 643.694 748.412 C 640.237 745.440, 637.254 745.378, 625.115 748.028 C 576.964 758.537, 514.663 758.498, 466.761 747.928 C 458.238 746.048, 452.802 745.634, 450.229 746.669 M 740.006 760.480 C 738.860 763.953, 739.259 766, 741.080 766 C 741.609 766, 752.566 770.706, 765.429 776.458 C 790.910 787.852, 793.413 788.758, 794.509 786.985 C 795.856 784.806, 796.678 785.309, 761.257 766.624 C 751.223 761.331, 742.595 757, 742.084 757 C 741.573 757, 740.638 758.566, 740.006 760.480 M 730.536 784.568 C 729.691 786.590, 729 788.405, 729 788.602 C 729 789.335, 737.135 793.001, 759.825 802.493 C 782.488 811.974, 786.436 812.977, 784.723 808.817 C 784.425 808.093, 772.456 801.513, 758.126 794.196 L 732.072 780.893 730.536 784.568 M 720.085 809.187 C 719.474 810.940, 719.346 812.746, 719.800 813.200 C 721.502 814.902, 772.452 836.041, 773.699 835.562 C 777.703 834.026, 773.791 831.402, 749.007 819.004 C 734.711 811.852, 722.606 806, 722.105 806 C 721.605 806, 720.696 807.434, 720.085 809.187 M 391.643 807.990 C 379.174 811.892, 379.030 827.456, 391.385 835.750 C 399.670 841.312, 410.653 839.896, 415.040 832.701 C 417.862 828.074, 417.630 821.391, 414.488 816.767 C 409.860 809.957, 398.861 805.731, 391.643 807.990 M 393.345 815.451 C 383.570 819.704, 392.989 833.766, 404.500 832.103 C 409.652 831.359, 411.730 824.916, 408.367 820.114 C 406.855 817.954, 399.794 814.022, 397.500 814.061 C 396.950 814.071, 395.080 814.696, 393.345 815.451 M 710.816 832.504 C 710.189 833.882, 709.861 835.186, 710.088 835.404 C 711.588 836.843, 763.369 859.890, 764.094 859.442 C 764.592 859.134, 765 858.106, 765 857.158 C 765 855.901, 758.027 851.982, 739.250 842.684 C 725.087 835.672, 713.153 829.949, 712.729 829.967 C 712.304 829.985, 711.444 831.127, 710.816 832.504" stroke="none" fill="black" fill-rule="evenodd"/>
</svg>