<svg xmlns="http://www.w3.org/2000/svg" width="100%" height="auto" viewBox="0 0 1024 1024" version="1.1">
	<path d="M 289.061 100.017 C 274.261 102.093, 261.314 107.813, 257.748 113.849 C 255.442 117.754, 255.514 124.691, 257.903 128.608 C 258.945 130.318, 262.518 133.468, 265.843 135.608 L 271.889 139.500 271.944 148.166 L 272 156.833 260.069 157.166 C 247.152 157.528, 245.121 158.279, 240.562 164.385 C 238.611 166.997, 238.491 168.581, 238.334 193.729 L 238.167 220.311 228.099 227.029 C 214.165 236.327, 206.024 243.184, 193.368 256.280 C 177.525 272.674, 169.273 285.756, 163.814 303.133 C 161.814 309.500, 161.506 312.537, 161.541 325.500 C 161.592 344.207, 163.142 350.243, 173.481 372 C 183.008 392.047, 184.367 396.789, 184.367 410 C 184.367 422.507, 183.209 426.927, 174.803 446.500 C 156.808 488.405, 150.151 519.601, 146.957 577 C 144.815 615.488, 148.932 671.046, 156.590 707 C 164.144 742.464, 174.392 757.067, 195.508 762.458 C 201.959 764.105, 224.979 765.961, 239.250 765.985 C 244.063 765.993, 248 766.419, 248 766.932 C 248 768.615, 242.151 783.767, 239.409 789.190 C 237.932 792.110, 233.341 798.775, 229.207 804 C 225.073 809.225, 220.638 815.783, 219.353 818.573 C 210.064 838.734, 218.952 854.971, 239.292 854.994 C 241.927 854.997, 250.027 854.275, 257.292 853.388 C 272.930 851.480, 282.424 852.230, 302.244 856.939 C 322.886 861.843, 339.121 864.791, 365.576 868.438 C 396.636 872.720, 405.503 874.866, 419.674 881.532 C 435.139 888.807, 440.292 890.390, 448.500 890.384 C 459.382 890.376, 464.897 886.927, 469.159 877.463 C 471.072 873.218, 471.348 871.126, 471.072 863 C 470.296 840.151, 470.233 840.635, 475.937 825.500 C 480.748 812.731, 485.226 796.559, 488.031 781.824 L 489.111 776.148 492.563 777.591 C 494.462 778.384, 506.102 781.939, 518.431 785.491 C 545.736 793.357, 558.660 798.183, 575 806.612 C 589.761 814.226, 600.782 821.938, 618.491 837.044 C 633.170 849.565, 638.086 853.015, 649.538 858.835 C 674.623 871.584, 703.867 875.106, 729.571 868.474 C 748.618 863.560, 761.830 856.268, 793 833.464 C 805.861 824.055, 823.384 813.392, 841.797 803.771 C 857.359 795.639, 862.016 791.772, 865.902 783.754 C 870.809 773.629, 871.121 769.133, 870.797 713 L 870.500 661.500 867.857 656.500 C 857.937 637.732, 817.814 616.695, 779.128 609.977 C 772.855 608.888, 760.472 607.292, 751.611 606.430 C 742.750 605.569, 734.150 604.510, 732.500 604.077 C 725.816 602.324, 742.869 601.807, 763.110 603.149 C 774.631 603.912, 800.463 604.500, 822.500 604.500 L 861.500 604.500 865.259 602.163 C 867.326 600.878, 870.251 597.728, 871.759 595.163 L 874.500 590.500 874.500 447.968 C 874.500 310.429, 874.434 305.289, 872.613 301.251 C 870.764 297.150, 870.764 297.011, 872.613 294.283 C 874.382 291.674, 874.518 288.675, 874.789 246.231 C 875.062 203.414, 874.973 200.728, 873.157 196.623 C 871.045 191.847, 866.396 187.842, 861 186.150 C 856.031 184.591, 464.955 184.588, 460 186.147 C 454.703 187.813, 449.994 191.801, 447.913 196.384 C 446.180 200.200, 446.042 203.681, 446.022 244.185 C 446.008 272.672, 446.370 288.849, 447.064 290.685 C 447.649 292.233, 449.240 294.666, 450.599 296.092 C 452.713 298.308, 452.921 299.078, 452.035 301.407 C 450.700 304.919, 450.705 513.532, 452.041 523.500 C 452.557 527.350, 453.274 545.568, 453.634 563.984 L 454.290 597.468 457.235 600.220 C 461.855 604.535, 466.575 605.308, 484.750 604.726 C 493.688 604.440, 501 604.375, 501 604.583 C 501 604.790, 499.087 605.934, 496.750 607.124 C 480.934 615.182, 470.629 623.189, 466.667 630.500 C 464.683 634.162, 464.473 636.223, 464.175 654.894 L 463.849 675.289 455.175 674.645 C 444.877 673.882, 442.007 673.203, 442.515 671.651 C 444.840 664.547, 448.993 600.914, 448.985 572.500 C 448.972 517.256, 443.112 482.724, 426.911 442.415 C 424.239 435.768, 421.373 427.443, 420.542 423.915 C 417.358 410.407, 419.307 394.954, 426.030 380.407 C 438.512 353.397, 441.337 343.215, 441.404 325 C 441.459 310.287, 439.727 301.426, 434.467 289.500 C 424.232 266.292, 401.630 242.081, 374.467 225.230 L 366.500 220.288 366 193.215 C 365.531 167.837, 365.370 165.965, 363.429 163.321 C 359.743 158.300, 355.703 157.003, 343.750 157.002 L 333 157 333.002 148.250 L 333.004 139.500 337.424 136.708 C 339.855 135.172, 343.454 132.133, 345.422 129.955 C 348.520 126.526, 349 125.324, 349 121 C 349 116.700, 348.515 115.469, 345.512 112.145 C 341.718 107.945, 333.876 103.987, 324.480 101.531 C 317.164 99.618, 297.801 98.790, 289.061 100.017 M 288.500 112.701 C 282.873 113.455, 272.123 117.237, 270.008 119.207 C 267.384 121.652, 268.205 122.826, 275.434 126.962 C 284.291 132.030, 284.512 132.496, 284.262 145.594 L 284.045 157 302.022 157 L 320 157 320 147.149 C 320 133.454, 320.737 131.826, 329.162 126.906 C 333.978 124.093, 336.022 122.330, 335.808 121.172 C 335.335 118.604, 325.303 114.146, 317.500 113.035 C 310.713 112.070, 294.603 111.884, 288.500 112.701 M 253.250 170.031 C 251.008 170.932, 251 171.016, 251 193.993 L 251 217.050 253.565 218.025 C 255.099 218.608, 274.911 219, 302.843 219 C 343.502 219, 349.843 218.798, 351.777 217.443 C 353.962 215.913, 354 215.501, 354 193.478 C 354 172.348, 353.890 171.011, 352.066 170.035 C 349.632 168.732, 256.490 168.729, 253.250 170.031 M 462.357 196.992 C 456.990 199.158, 457 199.065, 457 244.523 C 457 275.916, 457.305 286.905, 458.200 287.800 C 459.125 288.725, 505.337 289, 660.118 289 C 770.513 289, 861.548 288.727, 862.418 288.393 C 863.827 287.853, 864 283.077, 864 244.816 L 864 201.846 861.077 198.923 L 858.154 196 661.327 196.063 C 553.072 196.098, 463.536 196.516, 462.357 196.992 M 750.089 220.174 C 733.766 223.047, 726.826 243.259, 737.773 256.048 C 742.286 261.321, 747.925 263.950, 754.782 263.978 C 768.202 264.034, 777.672 253.901, 776.813 240.408 C 775.950 226.851, 763.917 217.741, 750.089 220.174 M 495.391 221.380 C 484.480 226.312, 479.043 241.447, 484.436 251.876 C 488.169 259.095, 496.319 263.943, 504.782 263.978 C 513.879 264.016, 521.122 259.527, 524.887 251.517 C 529.463 241.782, 526.178 229.852, 517.187 223.554 C 513.511 220.979, 511.812 220.491, 505.687 220.253 C 501.093 220.075, 497.378 220.481, 495.391 221.380 M 560 221.541 C 544.926 228.300, 541.958 247.854, 554.355 258.739 C 564.348 267.512, 580.227 265.170, 587.741 253.814 C 590.149 250.177, 590.500 248.673, 590.500 242 C 590.500 235.327, 590.149 233.823, 587.741 230.186 C 583.421 223.657, 578 220.605, 570.111 220.261 C 565.706 220.068, 562.332 220.495, 560 221.541 M 618.923 222.923 L 616 225.846 616 242.407 L 616 258.968 618.917 262.234 L 621.834 265.500 658.667 265.809 C 682.377 266.008, 696.778 265.744, 699.087 265.067 C 705.718 263.126, 706.457 261.390, 706.852 246.821 C 707.290 230.716, 706.563 225.472, 703.465 222.374 L 701.091 220 661.469 220 L 621.846 220 618.923 222.923 M 809.491 221.865 C 801.369 225.555, 795.140 236.736, 796.628 244.955 C 798.691 256.344, 807.684 264, 819 264 C 831.665 264, 840.956 254.690, 840.956 242 C 840.956 229.108, 831.735 219.968, 818.782 220.022 C 815.853 220.034, 811.714 220.855, 809.491 221.865 M 239.267 234.364 C 221.235 245.578, 198.696 266.003, 188.701 280.187 C 177.008 296.781, 172.421 311.375, 173.236 329.397 C 173.817 342.247, 176.783 352.430, 184.389 367.686 C 194.272 387.508, 198.012 403.489, 196.058 417.541 C 194.141 431.322, 194.318 430.779, 182.828 458 C 167.687 493.872, 159.731 535.627, 158.344 586.500 C 156.870 640.594, 164.945 706.158, 176.134 730.931 C 181.392 742.573, 186.573 747.382, 197.131 750.420 C 203.448 752.238, 224.845 753.994, 240.711 753.998 L 251.923 754 252.901 750.250 C 253.439 748.188, 254.579 743.743, 255.435 740.374 C 256.290 737.005, 259.253 726.880, 262.018 717.874 C 268.001 698.392, 268.701 692.708, 267.025 677.224 C 265.907 666.899, 265.950 664.742, 267.384 659.146 C 269.393 651.305, 271.972 647.565, 277.212 644.892 C 286.512 640.147, 296.341 641.476, 315 650 C 328.144 656.005, 337.430 658.107, 363.715 661.027 C 387.900 663.715, 407.931 666.508, 420.478 668.942 C 425.965 670.007, 430.571 670.763, 430.712 670.621 C 431.265 670.069, 433.046 654.663, 434.541 637.500 C 436.768 611.944, 437.813 572.845, 436.871 550.371 C 434.976 505.214, 430.142 481.974, 414.016 440.500 C 411.425 433.837, 409.201 425.952, 408.375 420.500 C 405.893 404.114, 408.245 392.425, 418.921 368.090 C 422.683 359.515, 426.736 348.594, 427.927 343.821 C 430.596 333.129, 430.855 318.514, 428.552 308.500 C 426.576 299.906, 418.642 283.537, 412.602 275.595 C 403.031 263.007, 387.316 248.579, 372 238.319 C 359.046 229.640, 361.387 230.104, 336 231.193 C 314.899 232.099, 260.981 231.599, 251 230.404 C 246.951 229.920, 245.776 230.316, 239.267 234.364 M 500.418 230.969 C 493.721 233.678, 490.907 243.069, 495.168 248.486 C 502.942 258.370, 517.222 252.668, 516.099 240.128 C 515.477 233.189, 507.069 228.278, 500.418 230.969 M 562.912 232.280 C 558.492 235.259, 556.815 238.604, 557.376 243.328 C 558.521 252.967, 570.004 256.842, 576.923 249.923 C 582.357 244.489, 581.248 235.952, 574.580 231.886 C 570.493 229.394, 567.021 229.511, 562.912 232.280 M 627.109 231.369 C 625.871 232.860, 625.746 251.972, 626.962 253.938 C 627.431 254.697, 637.909 254.947, 661.567 254.764 L 695.500 254.500 695.500 242.500 L 695.500 230.500 661.883 230.237 C 634.110 230.019, 628.065 230.216, 627.109 231.369 M 749.237 231.945 C 742.305 236.282, 741.194 245.461, 747.010 250.355 C 753.424 255.752, 761.541 254.095, 765.358 246.610 C 767.173 243.050, 767.221 242.378, 765.921 238.700 C 763.309 231.311, 755.382 228.102, 749.237 231.945 M 814.500 231.364 C 809.465 233.651, 807.500 236.644, 807.500 242.024 C 807.500 247.771, 810.315 251.415, 816.092 253.146 C 821.272 254.698, 826.774 251.987, 829.412 246.584 C 831.147 243.030, 831.193 242.298, 829.912 238.674 C 827.526 231.925, 820.548 228.615, 814.500 231.364 M 466.303 301.197 C 460.697 303.905, 460.949 296.546, 461.236 448.907 L 461.500 588.955 464.270 591.727 L 467.041 594.500 487.270 594.825 C 518.483 595.327, 516.807 595.718, 536.103 583.432 C 565.587 564.659, 577.057 560.225, 598.500 559.311 C 621.127 558.346, 632.898 561.559, 664 577.192 C 686.616 588.559, 695.978 592.195, 707.500 594.086 C 712.375 594.887, 735.889 595.186, 784.946 595.072 C 862.684 594.891, 860.742 595.048, 862.930 588.770 C 863.670 586.648, 864 542.980, 864 447.252 C 864 296.019, 864.299 303.824, 858.405 301.139 C 854.976 299.576, 469.538 299.634, 466.303 301.197 M 289 302.580 C 255.142 305.443, 242.820 307.840, 230.325 313.995 C 217.107 320.507, 211.030 328.860, 210.209 341.646 C 209.658 350.223, 210.949 356.177, 216.245 369.500 C 223.362 387.404, 225.132 394.449, 225.728 407.250 C 226.599 425.964, 224.865 433.563, 212.622 464.714 C 200.223 496.261, 192.243 531.582, 188.836 570 C 187.193 588.530, 187.173 635.825, 188.805 646.500 C 194.017 680.608, 212.059 696.001, 250.132 698.823 C 258.132 699.416, 260.570 699.287, 261.641 698.216 C 265.160 694.697, 262.497 693.308, 250 692.148 C 229.462 690.240, 215.688 684.990, 207.826 676.073 C 197.191 664.010, 194 649.071, 194 611.349 L 194 589.146 197.692 586.102 C 206.396 578.928, 223.717 575.170, 239.321 577.070 C 253.287 578.771, 259.102 580.717, 290.232 594.106 C 302.890 599.550, 316.155 604.482, 323 606.290 C 333.285 609.006, 336.084 609.333, 349.500 609.381 C 360.995 609.422, 366.005 609.015, 370.942 607.640 C 379.478 605.263, 389.105 600.831, 395.120 596.510 C 397.806 594.579, 400.212 593, 400.465 593 C 401.486 593, 398.183 629.789, 395.810 644.850 C 394.028 656.165, 393.920 658.336, 395.103 659.085 C 398.319 661.121, 399.744 659.347, 401.465 651.165 C 406.764 625.975, 409.398 571.410, 407.006 536.384 C 404.982 506.739, 400.978 487.826, 389.461 453.500 C 379.257 423.088, 377.975 415.372, 380.426 399.101 C 381.561 391.565, 383.254 385.648, 386.577 377.601 C 395.830 355.199, 397.327 350.172, 397.332 341.500 C 397.338 331.831, 395.240 326.459, 389.042 320.271 C 380.734 311.976, 365.448 306.467, 344 304.037 C 334.065 302.912, 296.765 301.924, 289 302.580 M 279.408 309.963 C 255.576 312.106, 237.545 316.364, 228.791 321.917 C 219.175 328.016, 214.774 338.251, 216.806 349.787 C 217.392 353.114, 220.359 362.135, 223.399 369.834 C 236.039 401.836, 236.033 421.483, 223.373 454.924 C 210.395 489.210, 206.024 503.666, 201.582 527 C 197.966 545.990, 193.938 579, 195.236 579 C 195.518 579, 197.717 577.902, 200.124 576.560 C 207.790 572.287, 219.362 569.659, 230.500 569.663 C 246.666 569.669, 260.669 573.523, 287.936 585.471 C 320.384 599.689, 330.049 602.352, 349.500 602.438 C 369.478 602.526, 380.813 599.006, 395.081 588.280 L 401.254 583.640 400.702 556.070 C 399.884 515.144, 396.540 495.090, 384.850 461 C 373.922 429.131, 372.807 424.046, 373.330 408.500 C 373.822 393.904, 375.279 387.355, 381.232 373 C 389.826 352.277, 391.282 347.183, 390.747 339.706 C 390.354 334.217, 389.665 331.980, 387.346 328.661 C 381.303 320.017, 369.226 314.685, 348.500 311.514 C 335.892 309.584, 294.063 308.646, 279.408 309.963 M 506.655 332.459 C 495.815 336.324, 490.807 349.774, 496.121 360.750 C 498.816 366.317, 503.968 369.744, 511.848 371.209 L 518 372.353 518.006 445.927 C 518.009 492.129, 518.385 520.846, 519.016 523.118 C 520.589 528.781, 524.102 533.183, 529 535.627 L 533.500 537.873 658.548 538.549 C 753.942 539.065, 784.963 538.942, 789.359 538.029 C 796.147 536.620, 801.403 532.522, 804.135 526.509 C 805.844 522.747, 805.957 517.878, 805.978 447.379 L 806 372.258 811.145 371.575 C 823.294 369.963, 830 362.865, 830 351.615 C 830 342.381, 826.427 336.566, 818.500 332.896 C 814.661 331.119, 808.368 331.045, 662.500 331.066 C 536.331 331.084, 509.847 331.321, 506.655 332.459 M 508.301 343.772 C 503.608 347.461, 503.323 354.076, 507.682 358.171 L 510.161 360.500 660.830 360.763 C 772.946 360.959, 812.216 360.731, 814.297 359.873 C 820.388 357.359, 821.568 348.165, 816.328 344.043 C 813.738 342.006, 813.305 342, 662.115 342.022 C 519.998 342.043, 510.362 342.153, 508.301 343.772 M 537 371.790 C 533.323 371.985, 531.086 372.628, 530.250 373.732 C 529.277 375.017, 529 391.410, 529 447.787 C 529 528.830, 528.661 524.978, 535.974 527.009 C 538.187 527.624, 585.402 527.991, 662.782 527.994 C 797.067 528, 791.825 528.221, 794.006 522.483 C 795.182 519.391, 795.379 375.145, 794.211 373.307 C 793.631 372.395, 763.803 372.041, 667.976 371.807 C 598.964 371.638, 540.025 371.631, 537 371.790 M 290.276 412.750 C 270.526 433.209, 254.681 456.858, 248.434 475.203 C 243.352 490.126, 243.207 502.568, 247.953 516.364 C 258.300 546.437, 293.689 560.766, 322.500 546.548 C 335.732 540.018, 345.348 528.840, 350.207 514.343 C 352.059 508.814, 352.492 505.387, 352.460 496.500 C 352.425 486.798, 352.045 484.412, 349.238 476.277 C 345.189 464.541, 341.275 456.781, 333.715 445.500 C 320.091 425.172, 303.464 407, 298.488 407 C 296.559 407, 294.300 408.582, 290.276 412.750 M 739.986 407.644 C 737.771 408.246, 680.555 466.984, 680.197 469.023 C 679.832 471.103, 682.492 473.986, 684.821 474.035 C 687.078 474.083, 746 414.297, 746 411.960 C 746 410.961, 745.293 409.436, 744.429 408.571 C 742.825 406.968, 742.624 406.926, 739.986 407.644 M 293.883 423.750 C 277.485 440.900, 262.222 464.814, 257.116 481.355 C 251.520 499.484, 257.028 520.582, 270.134 531.220 C 283.801 542.314, 301.845 544.807, 317.259 537.733 C 323.776 534.742, 333.080 526.341, 336.345 520.499 C 346.256 502.765, 344.297 483.602, 330.020 458.650 C 323.558 447.356, 301.399 419, 299.035 419 C 298.699 419, 296.381 421.137, 293.883 423.750 M 729.668 463.807 C 706.383 487.127, 703.869 489.965, 704.168 492.589 C 704.443 495.003, 705.012 495.549, 707.500 495.788 C 710.222 496.050, 712.898 493.671, 736.329 470.165 C 759.480 446.940, 762.123 443.956, 761.829 441.377 C 761.557 438.998, 760.980 438.451, 758.500 438.218 C 755.782 437.962, 753.072 440.367, 729.668 463.807 M 592.061 570.034 C 576.286 572.206, 567.389 576.206, 541 592.991 C 530.825 599.463, 514.625 609.146, 505 614.509 C 483.813 626.313, 479.422 629.260, 476.928 633.350 C 474.169 637.875, 474.529 640.473, 478.530 644.901 C 485.472 652.585, 503.877 660.194, 533.329 667.557 C 581.744 679.659, 603.834 690.558, 631.700 716.092 C 651.205 733.964, 670.069 743.556, 693.500 747.515 C 704.369 749.351, 713.497 749.035, 725 746.423 C 740.468 742.910, 751.721 736.854, 773.500 720.321 C 791.456 706.691, 800.916 701.065, 829.649 686.933 C 856.272 673.839, 860 671.307, 860 666.325 C 860 657.400, 847.433 646.771, 823.338 635.318 C 802.387 625.359, 785.835 620.972, 754.180 616.986 C 715.967 612.175, 694.680 605.597, 664.191 589.178 C 650.310 581.702, 640.797 577.303, 632.552 574.544 C 620.067 570.368, 603.245 568.494, 592.061 570.034 M 597.635 598.073 C 592.128 602.404, 596.272 609, 604.500 609 C 609.584 609, 614 605.979, 614 602.500 C 614 599.021, 609.584 596, 604.500 596 C 601.735 596, 599.357 596.718, 597.635 598.073 M 542.223 627.557 C 539.559 629.422, 539.334 633.095, 541.750 635.252 C 544.616 637.810, 550.951 637.906, 553.429 635.429 C 557.252 631.605, 553.728 626, 547.500 626 C 545.820 626, 543.445 626.701, 542.223 627.557 M 652.228 627.230 C 649.432 628.578, 648.310 632.464, 650.097 634.617 C 655.091 640.635, 666.283 636.393, 663.633 629.487 C 663.003 627.844, 658.897 625.959, 656.185 626.068 C 655.258 626.105, 653.478 626.628, 652.228 627.230 M 732.295 635.132 C 729.084 636.036, 726 639.287, 726 641.768 C 726 642.496, 727.105 644.195, 728.455 645.545 C 730.382 647.473, 731.945 648, 735.732 648 C 742.087 648, 745 645.947, 745 641.466 C 745 636.271, 738.956 633.257, 732.295 635.132 M 608 649.752 C 601.643 652.927, 603.177 660.060, 610.513 661.436 C 620.427 663.296, 626.291 653.109, 617.436 649.409 C 613.117 647.604, 612.235 647.636, 608 649.752 M 282.838 654.526 C 281.222 655.403, 279.504 657.733, 278.465 660.453 C 276.921 664.495, 276.878 666.053, 278.028 676.371 C 279.793 692.208, 278.949 699.827, 273.524 717 C 271.005 724.975, 266.242 741.350, 262.939 753.389 C 253.494 787.822, 249.913 796.057, 237.796 811.218 C 230.165 820.766, 227 827.154, 227 833.008 C 227 842.104, 233.256 844.913, 248.824 842.808 C 262.029 841.023, 284.660 841.262, 293.500 843.280 C 297.350 844.159, 307.250 846.434, 315.500 848.336 C 331.652 852.058, 349.106 855.031, 369 857.448 C 396.944 860.843, 410.661 864.270, 424.768 871.380 C 436.193 877.138, 441.864 879.074, 447.512 879.141 C 457.464 879.260, 460.532 875.165, 459.980 862.500 C 459.028 840.688, 459.293 838.715, 465.391 822.232 C 472.690 802.501, 476.418 786.628, 480.068 759.738 C 483.668 733.214, 485.475 727.353, 493.840 715.067 C 504.278 699.734, 506.246 693.125, 501.984 687.707 C 497.928 682.550, 493.585 682.215, 467.500 685.048 C 455.864 686.311, 455.014 686.267, 439.500 683.588 C 430.700 682.068, 416.047 679.550, 406.937 677.991 C 397.828 676.433, 378.253 673.773, 363.437 672.080 C 333.951 668.712, 322.154 666.117, 311.168 660.584 C 297.160 653.530, 288.200 651.614, 282.838 654.526 M 790.960 656.831 C 786.532 660.417, 790.472 666, 797.430 666 C 800.170 666, 805 662.445, 805 660.427 C 805 655.581, 795.507 653.149, 790.960 656.831 M 474 664.546 L 474 673.092 483.800 672.417 C 499.555 671.331, 508.901 675.170, 513.120 684.459 C 517.219 693.482, 514.802 703.838, 505.376 717.644 C 501.792 722.894, 499.071 727.742, 499.329 728.416 C 499.778 729.584, 505.994 731.561, 539 741.031 C 557.883 746.449, 568.476 750.581, 583.897 758.544 C 598.804 766.241, 609.530 773.745, 625.991 787.992 C 645.640 804.999, 655.063 810.745, 673.705 817.090 C 693.859 823.948, 713.181 824.128, 732.158 817.635 C 745.121 813.200, 753.275 808.357, 774.522 792.470 C 795.011 777.149, 809.869 768.058, 835.500 755.157 C 845.400 750.174, 855.188 744.692, 857.250 742.975 L 861 739.854 861 711.344 C 861 695.663, 860.662 683.006, 860.250 683.217 C 859.837 683.428, 853.813 686.354, 846.862 689.721 C 808.751 708.177, 800.093 713.199, 777.845 729.754 C 759.240 743.597, 750.292 748.982, 739.250 752.977 C 712.493 762.659, 684.374 760.365, 656.500 746.228 C 645.885 740.844, 638.424 735.479, 625.342 723.824 C 612.344 712.243, 607.700 708.638, 598.481 702.967 C 582.328 693.032, 566.313 687.021, 531.860 677.963 C 501.908 670.089, 487.614 664.773, 477.846 657.874 C 476.386 656.844, 474.923 656, 474.596 656 C 474.268 656, 474 659.846, 474 664.546 M 680.986 666.810 C 678.514 668.812, 678.017 673.111, 679.983 675.480 C 682.864 678.950, 691.647 679.198, 695.597 675.920 C 697.086 674.684, 697.463 670.239, 696.235 668.400 C 693.807 664.763, 684.688 663.813, 680.986 666.810 M 308.149 680.604 C 308.365 681.774, 310.999 683.756, 315.029 685.781 C 322.379 689.476, 327.254 690.327, 327.726 688 C 327.940 686.942, 325.594 685.584, 319.765 683.391 C 315.219 681.682, 310.667 679.928, 309.649 679.495 C 308.176 678.869, 307.869 679.096, 308.149 680.604 M 746.131 687.093 C 742.697 690.292, 743.596 694.059, 748.348 696.379 C 751.639 697.986, 752.758 698.090, 756.081 697.094 C 765.459 694.284, 763.094 685, 753 685 C 749.691 685, 747.739 685.595, 746.131 687.093 M 297.551 687.250 C 297.339 687.938, 296.898 693.225, 296.571 699 C 296.244 704.775, 295.698 711.638, 295.358 714.250 C 294.871 717.995, 295.043 719, 296.173 719 C 298.536 719, 302.382 701.209, 301.516 694.284 C 301.132 691.205, 300.585 688.082, 300.301 687.343 C 299.653 685.654, 298.061 685.600, 297.551 687.250 M 348.500 695.604 C 338.600 697.641, 324.800 704.669, 317.224 711.531 C 310.319 717.785, 303.130 727.254, 300.098 734.088 L 298.141 738.500 298.071 733.750 C 297.940 724.966, 294.661 728.774, 292.322 740.425 C 288.532 759.311, 279.742 777.990, 264.098 800.399 C 248.868 822.217, 249.100 824.527, 266.150 820.842 C 274.589 819.018, 279.547 818.613, 293 818.651 C 321.836 818.730, 339.257 823.079, 372.500 838.497 C 394.402 848.655, 404.381 852.176, 416.400 853.990 C 429.636 855.988, 436.987 853.974, 440.647 847.348 C 444.973 839.519, 448.798 818.982, 447.529 810.403 C 447.019 806.956, 447.554 805.004, 450.903 798.078 C 455.058 789.485, 458.642 775.634, 461.416 757.451 C 463.468 743.997, 467.097 731.842, 473.140 718.187 C 477.861 707.519, 478.059 706.739, 476.604 704.518 C 475.064 702.168, 475.017 702.163, 454.780 702.243 C 439.871 702.303, 429.997 701.770, 417.500 700.233 C 408.150 699.083, 396.675 697.853, 392 697.501 C 387.325 697.149, 380.256 696.217, 376.292 695.430 C 367.366 693.659, 357.655 693.719, 348.500 695.604 M 347.788 704.551 C 334.550 707.761, 319.609 718.356, 312.346 729.684 C 305.168 740.881, 302.055 754.080, 303.981 765.152 C 310.871 804.766, 362.675 816.189, 394.073 785.018 C 406.181 772.997, 411.324 761.572, 411.434 746.448 C 411.497 737.873, 411.294 736.979, 407.583 729.470 C 401.147 716.449, 391.015 708.391, 376.276 704.571 C 368.932 702.669, 355.593 702.659, 347.788 704.551 M 399.500 705.569 C 411.358 714.497, 422.102 731.256, 424.977 745.308 C 425.631 748.502, 426.036 754.866, 425.878 759.451 L 425.590 767.787 432.090 774.144 C 436.673 778.625, 439.633 782.662, 442.126 787.830 L 445.661 795.160 447.828 789.499 C 450.584 782.297, 452.325 774.742, 454.938 758.651 C 457.674 741.807, 461.090 729.914, 466.550 718.231 C 468.997 712.993, 471 708.566, 471 708.394 C 471 708.221, 464.363 708.335, 456.250 708.647 C 443.930 709.121, 438.084 708.785, 420.766 706.607 C 396.710 703.582, 396.871 703.590, 399.500 705.569 M 690.272 713.211 C 685.595 715.468, 686.241 721.264, 691.357 722.953 C 699.821 725.746, 706.321 716.745, 698.434 713.152 C 695.387 711.764, 693.238 711.779, 690.272 713.211 M 348.813 716.470 C 340.594 718.733, 334.664 722.216, 328.431 728.440 C 321.704 735.158, 316.780 744.052, 316.610 749.796 C 316.513 753.066, 316.780 753.500, 318.891 753.500 C 320.206 753.500, 321.614 752.825, 322.020 752 C 322.426 751.175, 324.030 747.669, 325.583 744.208 C 331.543 730.932, 343.626 722.960, 358.955 722.191 C 369.501 721.662, 372.023 720.166, 368.429 716.571 C 366.481 714.624, 355.718 714.568, 348.813 716.470 M 493.111 744.806 C 492.533 748.487, 491.768 754.540, 491.413 758.254 L 490.766 765.009 495.205 766.973 C 497.647 768.053, 507.752 771.185, 517.660 773.933 C 567.967 787.885, 587.313 797.649, 622.117 826.653 C 645.009 845.730, 656.932 852.251, 679 857.763 C 693.175 861.303, 713.140 861.525, 726 858.284 C 743.886 853.777, 755.516 847.558, 781.165 828.787 C 797.638 816.733, 813.885 806.634, 833 796.569 C 842.075 791.791, 850.964 786.468, 852.752 784.742 C 857.095 780.551, 859.585 773.360, 860.367 762.750 C 860.873 755.888, 860.730 754, 859.706 754 C 858.988 754, 857.973 754.395, 857.450 754.878 C 856.928 755.360, 847.275 760.448, 836 766.183 C 813.494 777.631, 798.609 786.691, 783.625 798.060 C 753.445 820.961, 740.180 827.844, 719.119 831.532 C 703.730 834.227, 688.151 832.756, 670.789 826.968 C 654.428 821.514, 642.053 814.253, 626.654 801.072 C 603.210 781.004, 594.346 774.778, 577.500 766.548 C 562.645 759.291, 551.338 755.230, 523.257 747.066 C 510.191 743.267, 498.299 739.698, 496.831 739.135 L 494.162 738.111 493.111 744.806 M 291.488 764.750 C 286.726 777.433, 277.805 792.806, 266.880 807.158 C 263.646 811.406, 261 815.046, 261 815.247 C 261 815.447, 264.938 814.807, 269.750 813.823 C 284.117 810.885, 311.458 811.726, 327.696 815.605 C 329.733 816.091, 328.807 815.131, 324.313 812.097 C 309.426 802.044, 296.773 782.082, 295.302 766.326 C 294.977 762.847, 294.387 760, 293.991 760 C 293.596 760, 292.469 762.138, 291.488 764.750 M 413.209 774.107 C 406.617 788.014, 389.765 802.318, 373.631 807.701 C 366.412 810.110, 363.966 810.419, 351.821 810.457 C 337.599 810.502, 336.655 810.929, 346.145 813.025 C 354.978 814.975, 370.982 813.849, 379.197 810.698 C 396.089 804.219, 407.856 792.619, 414.171 776.220 C 417.936 766.441, 417.401 765.264, 413.209 774.107 M 419.154 785.190 C 415.615 792.619, 413.386 795.723, 407.147 801.907 C 393.882 815.054, 381.501 820.664, 363 821.910 C 356.101 822.375, 353.186 822.893, 354.500 823.422 C 355.600 823.865, 364.150 827.825, 373.500 832.221 C 397.502 843.508, 408.961 847.241, 421.309 847.796 C 430.496 848.209, 431.275 848.091, 433.578 845.926 C 437.444 842.295, 440.174 832.135, 440.750 819.232 C 441.320 806.465, 440.066 798.159, 436.392 790.376 C 433.768 784.816, 426.543 775.980, 424.665 776.033 C 424.024 776.051, 421.544 780.172, 419.154 785.190" stroke="none" fill="black" fill-rule="evenodd"/>
</svg>