<svg xmlns="http://www.w3.org/2000/svg" width="100%" height="auto" viewBox="0 0 1024 1024" version="1.1">
	<path d="M 393.481 205.976 C 355.685 213.551, 320.077 237.921, 297.738 271.500 C 290.335 282.627, 282.921 297.551, 279.353 308.510 C 276.769 316.445, 276.723 316.929, 278.337 319.391 C 279.265 320.809, 281.148 322.250, 282.520 322.594 C 286.965 323.710, 289.417 320.952, 292.933 310.882 C 309.392 263.750, 349.650 228.489, 397.820 219.016 C 403.014 217.994, 407.995 216.409, 409.070 215.436 C 411.869 212.904, 411.543 208.572, 408.365 206.073 C 405.268 203.636, 405.159 203.636, 393.481 205.976 M 488.746 225.023 C 477.615 227.832, 467.281 236.434, 462.169 247.146 L 459.056 253.669 453.278 254.960 C 421.808 261.988, 388.956 282.561, 368.485 308.059 C 350.117 330.939, 338.457 360.729, 336.175 390.610 L 335.500 399.449 331.270 400.169 C 305.962 404.475, 294.296 436.739, 308.698 462.592 C 314.800 473.546, 326.379 481.771, 337.063 482.739 L 342.751 483.255 346.042 490.878 C 367.407 540.350, 416.860 574.303, 477.211 580.933 C 531.582 586.907, 584.216 570.739, 618.957 537.394 C 632.145 524.737, 642.251 511.260, 648.905 497.458 C 651.811 491.431, 654.532 485.825, 654.952 485 C 655.414 484.091, 657.920 483.221, 661.317 482.791 C 678.959 480.558, 693.451 463.571, 695.599 442.609 C 697.369 425.337, 687.546 407.341, 673.474 402.076 C 670.422 400.934, 666.825 400, 665.482 400 C 662.631 400, 662.361 399.122, 661.609 387.425 C 660.958 377.297, 658.731 366.417, 654.927 354.777 C 639.113 306.383, 598.068 268.619, 546.500 255.016 C 543.016 254.097, 542.186 253.286, 540.063 248.730 C 536.474 241.029, 527.646 232.683, 518.491 228.336 C 511.747 225.133, 509.805 224.677, 501.683 224.395 C 496.632 224.219, 490.811 224.502, 488.746 225.023 M 776.572 230.018 C 770.912 232.228, 764.695 237.825, 761.912 243.217 C 758.440 249.943, 757.651 256.301, 759.038 266.397 C 760.212 274.953, 760.162 275.844, 758.271 280.120 C 757.014 282.961, 754.402 286.171, 751.374 288.596 C 736.781 300.283, 730.295 310.426, 729.136 323.370 C 728.668 328.602, 728.104 330.528, 727 330.672 C 717.212 331.944, 712.994 334.601, 709.880 341.459 C 708.352 344.821, 708.040 348.134, 708.022 361.185 C 707.999 377.910, 708.586 380.884, 712.778 385.278 C 715.384 388.010, 715.399 388.103, 713.655 390.778 C 709.584 397.028, 704.891 408.014, 703.511 414.529 C 701.483 424.107, 701.660 440.306, 704.015 460.500 C 705.958 477.166, 706.731 505.001, 705.250 504.999 C 704.837 504.999, 701.125 504.281, 697 503.404 C 678.879 499.551, 660.718 505.897, 654.573 518.229 C 650.766 525.870, 651.133 530.931, 656.855 549.631 C 659.525 558.359, 661.993 566.981, 662.338 568.790 L 662.966 572.080 655.233 571.327 C 642.882 570.123, 624.991 570.388, 619 571.864 C 610.592 573.935, 600.447 579.232, 590.372 586.812 L 581.244 593.680 567.047 594.358 C 548.268 595.254, 543.611 597.174, 540.011 605.500 C 537.995 610.164, 529.337 629.356, 514.972 661 C 495.982 702.835, 494 707.734, 494 712.827 C 494 719.720, 497.056 723.534, 507.360 729.505 C 526.385 740.527, 527.968 741.827, 533.667 751.113 C 543.265 766.752, 555.347 775.692, 572.737 780.023 C 579.971 781.825, 721.835 799.926, 757.500 803.598 C 786.847 806.620, 800.850 802.997, 820.047 787.418 C 827.885 781.057, 827.978 781.020, 848.332 775.948 C 865.254 771.731, 869.079 770.126, 872.204 765.933 C 875.680 761.269, 919 641.968, 919 637.059 C 919 633.015, 916.785 628.744, 913.608 626.663 C 912.236 625.764, 904.768 622.929, 897.012 620.364 L 882.911 615.700 876.429 608.457 L 869.947 601.215 872.196 593.357 C 875.240 582.722, 875.251 560.801, 872.224 540 C 867.311 506.238, 867.165 494.580, 871.158 455 C 873.027 436.472, 873.171 432.094, 872.202 423.332 C 870.852 411.131, 868.157 402.592, 863.084 394.443 L 859.314 388.386 862.124 385.020 C 866.123 380.230, 867.268 373.655, 866.832 357.996 C 866.536 347.395, 866.055 343.683, 864.587 340.694 C 861.938 335.297, 856.939 331.797, 851.076 331.233 L 846.236 330.768 845.575 324.134 C 844.258 310.917, 838.640 301.430, 826.225 291.460 C 815.498 282.846, 814.711 280.897, 815.571 265.077 C 816.161 254.230, 815.997 251.507, 814.480 246.939 C 811.987 239.433, 804.221 231.737, 796.966 229.583 C 789.936 227.495, 782.634 227.651, 776.572 230.018 M 492.734 238.046 C 477.671 241.762, 469.436 254.670, 473.409 268.337 C 475.381 275.119, 481.401 281.493, 487.361 283.107 C 489.637 283.724, 492.036 284.378, 492.692 284.560 C 493.347 284.743, 494.638 286.044, 495.561 287.452 C 496.970 289.603, 497.043 290.482, 496.018 292.956 C 494.406 296.849, 490.765 298.009, 484.954 296.483 C 473.166 293.386, 464.688 285.125, 460.947 273.091 C 458.917 266.557, 459.405 266.619, 445.555 271.145 C 425.086 277.834, 407.076 288.583, 391.036 303.682 C 379.358 314.675, 370.412 326.668, 363.594 340.473 C 354.302 359.284, 350.168 375.247, 349.266 395.789 C 348.570 411.652, 347.726 413, 338.493 413 C 330.834 413, 328.388 413.842, 323.444 418.183 C 315.822 424.875, 313.237 436.836, 316.844 448.713 C 321.087 462.682, 330.146 470, 343.196 470 C 348.667 470, 350.392 470.392, 352 472 C 353.100 473.100, 354 474.673, 354 475.497 C 354 478.299, 362.590 496.477, 367.232 503.500 C 392.146 541.184, 433.597 563.913, 485.178 568.174 C 526.611 571.597, 568.103 560.397, 598.798 537.505 C 618.721 522.647, 635.925 500.064, 643.011 479.468 C 645.959 470.899, 647.081 470.004, 654.905 469.978 C 663.073 469.951, 668.246 467.748, 673.858 461.908 C 684.695 450.630, 685.822 430.458, 676.210 419.806 C 671.493 414.578, 667.661 413, 659.687 413 C 650.936 413, 650.394 412.224, 649.550 398.500 C 647.779 369.719, 640.842 348.212, 626.167 326 C 616.966 312.075, 600.134 295.870, 584.419 285.808 C 575.862 280.330, 556.287 271.431, 548.896 269.659 L 546.292 269.035 545.657 277.299 C 542.839 313.963, 512.869 340.669, 482.522 333.558 C 474.434 331.663, 469.201 328.810, 463.263 323.056 C 457.989 317.946, 457.041 314.765, 459.719 311.163 C 463.035 306.701, 466.378 307.122, 472.328 312.749 C 479.142 319.194, 484.854 321.353, 493.698 320.827 C 526.548 318.876, 545.539 270.487, 522.498 247.445 C 514.816 239.763, 502.079 235.741, 492.734 238.046 M 779.907 242.325 C 777.208 243.749, 774.613 246.171, 773.210 248.575 C 771.022 252.326, 770.949 253.112, 771.575 266.296 L 772.230 280.091 769.084 286.482 C 766.570 291.588, 764.352 294.184, 758.047 299.400 C 746.431 309.011, 742.981 314.204, 741.465 324.361 C 740.923 327.995, 741.082 329.433, 742.098 330.060 C 743.608 330.994, 829.088 331.287, 831.486 330.367 C 833.655 329.535, 833.415 323.184, 830.967 316.641 C 828.840 310.956, 824.635 306.057, 814.677 297.660 C 808.089 292.105, 803.492 284.763, 802.513 278.237 C 802.140 275.751, 802.385 270.022, 803.057 265.506 C 803.728 260.990, 803.965 255.627, 803.583 253.588 C 802.275 246.617, 793.854 240, 786.291 240 C 785.204 240, 782.331 241.046, 779.907 242.325 M 722.455 345.455 C 720.092 347.817, 720 348.413, 720 361.344 C 720 373.081, 720.241 375.077, 721.912 377.139 L 723.823 379.500 787 379.500 L 850.177 379.500 852.088 377.139 C 853.764 375.069, 854 373.076, 854 360.962 C 854 347.227, 853.984 347.133, 851.365 345.073 C 848.764 343.026, 847.939 343, 786.820 343 L 724.909 343 722.455 345.455 M 424.764 389.996 C 420.764 391.200, 415.327 394.769, 413.016 397.706 C 410.278 401.188, 410.447 404.591, 413.456 406.563 C 416.124 408.311, 416.571 408.162, 422.317 403.593 C 425.601 400.982, 427.137 400.504, 433.317 400.172 C 441.144 399.751, 444 398.212, 444 394.416 C 444 390.353, 441.492 388.992, 434.179 389.086 C 430.505 389.133, 426.269 389.543, 424.764 389.996 M 556 391 C 554.900 392.100, 554 393.675, 554 394.500 C 554 397.943, 557.764 400, 564.066 400 C 570.654 400, 572.776 400.796, 577.785 405.147 C 579.591 406.716, 581.729 408, 582.535 408 C 584.429 408, 588 404.429, 588 402.535 C 588 399.927, 581.647 393.745, 576.507 391.351 C 569.766 388.212, 558.973 388.027, 556 391 M 725.932 395.730 C 720.971 401.380, 716.164 412.691, 714.899 421.687 C 713.673 430.406, 714.301 443.857, 716.687 460 C 717.552 465.853, 718.348 478.908, 718.485 489.500 L 718.732 508.500 725.463 508.798 C 729.788 508.989, 737.072 508.146, 745.847 506.438 C 768.681 501.994, 781.070 503.616, 794.429 512.799 C 799.836 516.516, 806.694 526.138, 808.593 532.673 C 810.803 540.274, 809.335 545.528, 801.601 557.705 C 793.707 570.132, 789.425 577.766, 790.028 578.333 C 790.288 578.577, 799.275 579.534, 810 580.460 C 834.154 582.546, 842.466 584.153, 851.854 588.553 C 855.898 590.449, 859.349 592, 859.521 592 C 859.693 592, 860.322 589.728, 860.917 586.951 C 862.449 579.807, 862.260 561.505, 860.508 547.462 C 859.687 540.883, 859.012 535.388, 859.008 535.250 C 859.004 535.112, 852.750 535, 845.111 535 C 833 535, 830.924 534.759, 828.897 533.117 C 826.845 531.456, 826.712 530.928, 827.765 528.617 L 828.957 526 843.490 526 L 858.024 526 857.540 522.250 C 857.275 520.188, 856.783 515.462, 856.449 511.750 L 855.841 505 842.992 505 C 832.644 505, 829.837 504.694, 828.571 503.429 C 826.577 501.434, 826.577 499.566, 828.571 497.571 C 829.838 496.305, 832.652 496, 843.071 496 L 856 496 856 485.500 L 856 475 843.071 475 C 832.652 475, 829.838 474.695, 828.571 473.429 C 826.519 471.376, 826.585 469.685, 828.795 467.685 C 830.227 466.389, 833.311 466.004, 844.045 465.780 L 857.500 465.500 858.184 459 C 858.561 455.425, 859.081 450.813, 859.339 448.750 L 859.810 445 844.605 445 C 828.961 445, 827 444.540, 827 440.871 C 827 436.637, 829.362 436, 845.071 436 L 860 436 860 428.730 C 860 416.463, 854.858 402.031, 847.717 394.250 L 845.651 392 787.429 392 L 729.207 392 725.932 395.730 M 200.655 401.597 C 177.380 405.802, 161.072 415.714, 158.117 427.451 C 157.502 429.890, 156.999 439.899, 156.998 449.693 L 156.996 467.500 148.717 476.020 C 139.370 485.640, 133.688 495.683, 129.777 509.500 L 127.513 517.500 127.507 623.500 L 127.500 729.500 129.754 735.419 C 134.678 748.347, 142.678 757.030, 156 763.905 C 199.916 786.568, 277.554 780.928, 305.905 753.014 C 312.803 746.223, 317.461 737.336, 319.016 728 C 319.760 723.536, 319.995 689.231, 319.769 618.500 L 319.439 515.500 317.151 508 C 312.841 493.870, 303.810 479.520, 294.493 472 C 289.162 467.697, 288.899 466.315, 289.245 444.477 C 289.491 429.028, 289.409 428.276, 286.954 423.477 C 281.752 413.310, 266.391 405.094, 246.074 401.615 C 234.462 399.626, 211.615 399.617, 200.655 401.597 M 206.583 413.041 C 191.502 415.408, 176.134 421.471, 172.048 426.666 C 167.917 431.918, 169.889 435.883, 178.907 440.453 C 193.039 447.614, 218.004 450.633, 240.500 447.901 C 256.535 445.954, 274.637 438.716, 276.661 433.442 C 278.387 428.944, 271.160 422.074, 260.513 418.091 C 247.626 413.269, 221.008 410.777, 206.583 413.041 M 221.250 419.031 C 217.126 420.689, 219.197 425, 224.118 425 C 228.123 425, 230 424.020, 230 421.928 C 230 418.678, 225.685 417.249, 221.250 419.031 M 247 422.500 C 245.358 424.478, 247.319 427, 250.500 427 C 253.681 427, 255.642 424.478, 254 422.500 C 253.315 421.675, 251.740 421, 250.500 421 C 249.260 421, 247.685 421.675, 247 422.500 M 192.450 423.693 C 190.860 425.283, 190.893 425.495, 192.990 427.193 C 196.484 430.022, 203 428.920, 203 425.500 C 203 422.127, 195.330 420.813, 192.450 423.693 M 431.625 427.469 C 426.387 429.336, 421.586 434.211, 418.950 440.338 C 416.134 446.885, 416.535 458.296, 419.805 464.653 C 426.405 477.482, 442.138 480.231, 451.247 470.148 C 456.467 464.371, 458.359 458.473, 457.790 449.760 C 457.036 438.203, 451.094 429.508, 442.277 427.060 C 437.496 425.732, 436.377 425.775, 431.625 427.469 M 554.500 427.440 C 545.486 430.715, 539.221 442.467, 540.277 454.118 C 542.098 474.201, 561.638 483.544, 574.196 470.336 C 582.761 461.328, 583.648 444.716, 576.119 434.323 C 571.209 427.546, 562.148 424.660, 554.500 427.440 M 236.529 433.355 C 232.643 436.197, 237.782 440.024, 243.543 438.579 C 248.978 437.215, 246.962 432, 241 432 C 239.560 432, 237.548 432.610, 236.529 433.355 M 208.250 434.031 C 205.944 434.958, 205.173 438.371, 207.013 439.508 C 209.080 440.785, 214.174 440.253, 215.810 438.589 C 217.398 436.974, 217.358 436.754, 215.139 434.935 C 212.546 432.810, 211.598 432.685, 208.250 434.031 M 433.500 436.155 C 430.253 437.931, 429 440.148, 429 444.119 C 429 451.315, 437.637 454.653, 442.548 449.354 C 445.920 445.715, 445.750 441.596, 442.077 437.923 C 438.981 434.828, 436.763 434.370, 433.500 436.155 M 558 435.706 C 551.913 437.932, 550.062 445.153, 554.455 449.545 C 559.571 454.662, 568 450.983, 568 443.634 C 568 441.002, 567.266 439.560, 564.923 437.589 C 561.829 434.986, 560.764 434.696, 558 435.706 M 169.603 457.752 C 169.740 468.102, 169.846 469, 170.927 469 C 172.210 469, 172.755 451.687, 171.500 450.765 C 169.653 449.409, 169.500 449.974, 169.603 457.752 M 267.250 453.754 L 261 456.315 261 466.658 C 261 478.623, 261.167 478.772, 269.500 474.225 L 274.500 471.497 274.785 461.248 C 274.942 455.612, 274.717 451.044, 274.285 451.097 C 273.853 451.150, 270.688 452.346, 267.250 453.754 M 177 463.523 L 177 473.949 179.950 475.474 C 181.573 476.313, 183.163 477, 183.484 477 C 183.805 477, 183.940 472.236, 183.784 466.413 L 183.500 455.825 180.250 454.461 L 177 453.097 177 463.523 M 190.216 468.708 L 190.500 479.416 194.685 480.626 C 196.987 481.291, 200.587 481.984, 202.685 482.164 L 206.500 482.493 206.500 471.519 L 206.500 460.545 199.500 459.334 C 195.650 458.668, 191.922 458.095, 191.216 458.061 C 190.230 458.014, 189.998 460.486, 190.216 468.708 M 246.500 459.245 C 243.200 459.771, 239.938 460.366, 239.250 460.569 C 238.347 460.835, 238 464.029, 238 472.082 L 238 483.227 242.750 482.546 C 245.363 482.171, 249.188 481.374, 251.250 480.774 L 255 479.683 255 468.842 C 255 460.758, 254.682 458.037, 253.750 458.145 C 253.063 458.225, 249.800 458.720, 246.500 459.245 M 213.217 472.250 L 213.500 483.500 222.250 483.789 L 231 484.078 231 472.539 L 231 461 221.967 461 L 212.934 461 213.217 472.250 M 156.776 484.876 C 150.244 491.930, 146.729 497.727, 143.166 507.321 L 140.500 514.500 140.228 620.925 C 139.926 739.011, 139.570 732.220, 146.542 741.351 C 151.257 747.527, 162.387 754.188, 175 758.385 C 202.005 767.369, 242.610 767.550, 269.967 758.807 C 288.494 752.886, 299.283 745.225, 304.743 734.112 L 307.500 728.500 307.500 624 C 307.500 527.374, 307.367 519.010, 305.740 513 C 302.881 502.442, 297.427 492.469, 290.534 485.193 L 284.277 478.589 281.102 481.261 C 273.877 487.341, 258.611 492.752, 242.100 495.086 C 228.931 496.948, 204.892 495.737, 192.190 492.571 C 181.472 489.900, 168.402 484.206, 165.417 480.908 C 164.467 479.859, 163.358 479, 162.953 479 C 162.547 479, 159.768 481.644, 156.776 484.876 M 469.223 494.557 C 467.583 495.705, 467 497.119, 467 499.949 C 467 503.073, 467.816 504.691, 471.402 508.679 C 477.062 514.975, 483.887 518.644, 492.770 520.167 C 507.094 522.624, 522.741 516.471, 529.332 505.791 C 532.685 500.356, 532.433 496.985, 528.478 494.394 C 526.391 493.026, 525.509 492.961, 523.027 493.989 C 521.399 494.663, 519.805 496.039, 519.485 497.046 C 518.451 500.306, 512.131 504.906, 506.399 506.572 C 497.345 509.204, 485.377 506.296, 481.384 500.494 C 476.211 492.978, 473.421 491.616, 469.223 494.557 M 680 514.889 C 670.966 516.850, 664 522.767, 664 528.480 C 664 530.246, 666.265 539.033, 669.032 548.007 C 671.800 556.980, 674.551 567.737, 675.145 571.911 C 677.193 586.300, 674.467 607.303, 668.916 619.905 C 667.849 622.327, 667.094 624.410, 667.238 624.532 C 667.603 624.843, 696.185 628.092, 703.500 628.654 L 709.500 629.116 711.732 624.308 C 718.213 610.347, 721.056 600.259, 723.514 582.500 C 725.186 570.418, 727.766 561.529, 732.135 552.788 C 735.283 546.491, 737.399 544.820, 740.662 546.053 C 744.187 547.386, 744.277 550.197, 741.025 557.445 C 737.047 566.310, 735.464 572.224, 733.513 585.500 C 731.456 599.490, 727.867 612.388, 723.282 622.256 C 721.300 626.522, 719.869 630.202, 720.101 630.434 C 721.001 631.334, 756.366 635.027, 756.991 634.286 C 757.355 633.853, 758.229 629.900, 758.933 625.500 C 759.636 621.100, 761.308 613.675, 762.648 609 C 765.754 598.161, 778.481 572.261, 788.937 555.500 C 793.398 548.350, 797.301 541.527, 797.610 540.339 C 798.446 537.124, 794.756 529.732, 790.022 525.137 C 781.433 516.802, 769.147 514.505, 751.500 517.938 C 727.452 522.616, 719.879 522.552, 703.107 517.532 C 693.883 514.771, 685.149 513.772, 680 514.889 M 244 558.357 C 228.920 563.483, 220.597 568.377, 211.465 577.485 C 200.092 588.830, 195 600.359, 195 614.763 C 195 621.227, 197.232 632.944, 199.484 638.299 C 200.650 641.073, 200.406 641.821, 195.773 649.694 C 190.299 658.994, 189.985 662.456, 194.513 663.593 C 198.339 664.553, 199.285 663.769, 203.999 655.726 L 208.388 648.241 218.944 647.756 C 231.397 647.185, 238.445 644.896, 247.500 638.485 C 254.584 633.469, 258.619 628.679, 262.896 620.206 C 267.878 610.338, 269.287 602.507, 268.693 588 C 268.129 574.257, 264.493 558.565, 261.337 556.257 C 258.682 554.316, 254.339 554.842, 244 558.357 M 247 568.620 C 215.196 579.376, 200.348 601.268, 207.140 627.388 C 208.390 632.193, 208.028 632.543, 219.441 615.500 C 229.473 600.519, 231.323 598.567, 234.093 600.050 C 235.142 600.611, 236 601.850, 236 602.802 C 236 603.754, 231.275 611.493, 225.500 620 C 219.725 628.507, 215 635.872, 215 636.368 C 215 638.184, 228.615 636.323, 234.269 633.734 C 240.531 630.867, 248.111 624.350, 251.603 618.829 C 254.846 613.703, 257.696 604.674, 258.495 597 C 259.194 590.284, 257.846 577.256, 255.717 570.146 L 254.500 566.084 247 568.620 M 623.500 583.420 C 615.133 585.364, 612.762 586.398, 605.161 591.417 C 588.906 602.150, 589.946 600.697, 570.529 639.796 C 560.888 659.209, 553 675.272, 553 675.492 C 553 675.712, 555.587 674.980, 558.750 673.864 C 569.658 670.017, 576.339 670.307, 629.500 676.935 C 695.364 685.146, 751.691 692.557, 767.433 695.081 C 793.890 699.324, 806.589 707.735, 819.695 729.697 C 822.766 734.843, 825.624 739.268, 826.046 739.528 C 826.930 740.075, 826.372 741.391, 851.525 679.500 C 855.549 669.600, 862.242 653.226, 866.398 643.114 L 873.956 624.729 869.067 618.585 C 859.061 606.010, 850.893 600.046, 838.957 596.601 C 833.706 595.086, 795.576 591, 786.686 591 C 782.418 591, 782.343 591.061, 780.184 596.269 C 778.983 599.167, 778 602.022, 778 602.612 C 778 603.246, 782.815 604.194, 789.750 604.926 C 796.212 605.607, 803.300 606.953, 805.500 607.916 C 813.309 611.334, 818.927 620.898, 817.671 628.638 C 816.957 633.042, 802.978 661.755, 799.633 665.692 C 796.066 669.889, 786.298 674.694, 779.644 675.525 C 774.614 676.154, 750.764 673.652, 708 668.010 C 700.025 666.958, 676.625 664.032, 656 661.509 C 635.375 658.986, 616.635 656.444, 614.356 655.860 C 609.445 654.603, 603.589 650.040, 601.364 645.737 C 599.257 641.662, 599.338 634.183, 601.535 629.923 C 604.444 624.285, 617.028 605.745, 620.379 602.162 C 626.763 595.336, 629.693 594.496, 647 594.533 C 656.564 594.554, 662.781 594.171, 663.235 593.533 C 663.639 592.965, 663.976 590.652, 663.985 588.394 L 664 584.287 657.250 583.676 C 640.263 582.137, 629.378 582.054, 623.500 583.420 M 635.395 606.081 C 631.020 607.350, 628.439 610.251, 618.995 624.507 C 611.391 635.987, 610.792 637.249, 611.850 639.570 C 612.485 640.964, 614.466 642.698, 616.252 643.424 C 618.039 644.150, 633.225 646.389, 650 648.399 C 666.775 650.409, 687.250 652.931, 695.500 654.004 C 703.750 655.077, 725.445 657.787, 743.710 660.026 C 788.832 665.559, 787.211 666.080, 798.725 642.328 C 805.018 629.348, 806.139 626.304, 805.395 624.215 C 803.681 619.406, 800.419 618.100, 786.670 616.718 C 772.319 615.276, 772.824 615.092, 771.482 622.247 C 770.896 625.370, 771.198 626.446, 773.393 629.055 C 777.727 634.205, 776.151 640.890, 769.656 644.903 C 765.102 647.718, 760.684 647.623, 729.373 644.036 C 680.658 638.455, 651.499 634.975, 649.278 634.475 C 645.998 633.738, 643 630.030, 643 626.711 C 643 622.567, 648.546 617.256, 653.742 616.425 C 657.312 615.854, 657.892 615.357, 659.037 611.887 C 659.745 609.744, 660.051 607.718, 659.719 607.386 C 659.018 606.685, 645.919 605.066, 641.500 605.134 C 639.850 605.160, 637.103 605.586, 635.395 606.081 M 419.500 607.386 C 397.891 612.641, 385.132 634.165, 390.778 655.837 L 392.690 663.174 390.095 662.617 C 380.634 660.587, 372.376 659.825, 365 660.299 C 351.389 661.175, 342.524 665.947, 337.559 675.069 C 335.085 679.614, 334.832 680.959, 335.147 687.866 C 335.551 696.701, 338.154 702.766, 345.053 710.948 C 349.492 716.212, 349.488 717.439, 345.016 721.485 C 338.751 727.155, 331.982 745.602, 332.017 756.910 C 332.104 784.674, 352.241 809.468, 379.661 815.568 C 385.294 816.821, 389.742 817.121, 396.415 816.699 C 421.420 815.117, 441.380 800.218, 449.760 776.881 C 451.938 770.815, 452.431 767.638, 452.526 759.046 L 452.641 748.592 459.071 746.958 C 467.776 744.745, 473.395 741.699, 478.542 736.404 C 483.484 731.319, 485.377 726.636, 485.377 719.500 C 485.376 706.774, 473.575 693.700, 453.834 684.556 L 446.901 681.345 451.274 677.922 C 471.158 662.363, 474.031 635.562, 457.625 618.682 C 447.442 608.205, 433.329 604.023, 419.500 607.386 M 559.250 606.919 C 555.951 607.319, 553.314 608.288, 552.154 609.528 C 550.757 611.020, 536.501 641.383, 533.269 649.750 C 532.902 650.699, 535.214 651, 542.879 651 L 552.971 651 556 645 L 559.029 639 551.264 638.985 C 536.563 638.956, 537.415 635.013, 552.291 634.235 L 561.710 633.743 564.355 628.349 C 565.810 625.383, 567 622.691, 567 622.367 C 567 622.044, 563.288 621.941, 558.750 622.139 C 551.046 622.476, 550.500 622.368, 550.500 620.500 C 550.500 618.659, 551.261 618.477, 560.058 618.216 L 569.617 617.932 572.308 612.444 C 573.789 609.425, 575 606.741, 575 606.478 C 575 605.854, 565.928 606.108, 559.250 606.919 M 423.344 619.041 C 413.501 620.989, 405.643 627.853, 402.651 637.119 C 400.390 644.118, 400.567 647.818, 403.630 657.643 C 405.997 665.236, 406.150 666.629, 405.155 671.581 C 404.548 674.607, 402.447 680.777, 400.487 685.291 L 396.924 693.500 399.212 695.396 C 403.339 698.815, 411.672 702.037, 418.647 702.911 C 422.416 703.383, 425.781 703.484, 426.125 703.135 C 426.468 702.786, 427.444 699.350, 428.293 695.500 C 431.760 679.774, 433.652 676.783, 446.769 666.282 C 452.764 661.483, 456 654.239, 456 645.619 C 456 633.098, 449.054 623.641, 437.159 619.968 C 430.288 617.845, 429.617 617.800, 423.344 619.041 M 881.633 633.337 C 878.412 641.046, 878.122 640.545, 887.220 642.991 C 896.919 645.598, 899 646.567, 899 648.476 C 899 650.972, 897.599 650.903, 887.532 647.910 C 882.087 646.291, 877.297 645.312, 876.887 645.733 C 876.476 646.155, 875.253 648.750, 874.168 651.500 L 872.196 656.500 882.848 660 C 890.036 662.362, 893.500 663.983, 893.500 664.986 C 893.500 667.481, 890.526 667.262, 880.422 664.026 C 875.098 662.320, 870.613 661.054, 870.455 661.212 C 869.909 661.758, 866 672.077, 866 672.970 C 866 673.462, 866.788 674.093, 867.750 674.371 C 883.503 678.928, 887 680.335, 887 682.118 C 887 684.665, 885.322 684.517, 874.341 681 C 869.191 679.350, 864.586 678, 864.110 678 C 863.213 678, 858.435 689.833, 859.116 690.366 C 859.327 690.531, 864.092 692.101, 869.704 693.855 C 880.080 697.097, 882.078 698.322, 880.143 700.257 C 879.367 701.033, 876.015 700.338, 868.280 697.796 L 857.500 694.254 855.379 698.377 C 851.090 706.713, 850.781 706.212, 862.551 710.017 C 873.692 713.617, 875.436 714.677, 874.012 716.980 C 873.286 718.155, 871.568 717.835, 863.819 715.079 C 850.104 710.200, 850.355 710.214, 848.677 714.232 C 845.438 721.982, 845.244 721.542, 853.215 724.524 C 865.842 729.248, 869 730.832, 869 732.444 C 869 734.890, 865.844 734.324, 854.907 729.914 C 849.333 727.667, 844.441 726.204, 844.036 726.664 C 843.632 727.124, 842.557 729.423, 841.649 731.774 L 839.997 736.048 842.748 737.115 C 844.262 737.702, 848.650 739.311, 852.500 740.691 C 860.569 743.584, 863.014 745.386, 861.256 747.144 C 860.167 748.233, 857.238 747.325, 839.858 740.512 C 838.596 740.018, 837.810 740.931, 836.463 744.457 C 835.500 746.980, 834.907 749.240, 835.146 749.480 C 835.385 749.719, 840.904 751.972, 847.411 754.486 C 859.280 759.074, 862.242 759.392, 863.484 756.212 C 864.952 752.457, 877.456 719.034, 880.025 712 C 881.531 707.875, 887.280 692.125, 892.800 677 C 898.321 661.875, 903.846 646.888, 905.078 643.695 C 907.881 636.435, 907.606 636.117, 895.500 632.608 C 883.961 629.264, 883.320 629.297, 881.633 633.337 M 527.848 661.839 C 526.282 665.330, 525 668.358, 525 668.568 C 525 668.779, 526.154 668.512, 527.565 667.975 C 528.976 667.439, 533.607 667, 537.857 667 L 545.583 667 548.292 661.478 C 549.781 658.441, 551 655.724, 551 655.441 C 551 655.158, 546.432 655.054, 540.848 655.210 L 530.696 655.492 527.848 661.839 M 242.174 660.314 C 237.629 665.153, 241.010 673, 247.640 673 C 251.505 673, 255 669.372, 255 665.360 C 255 658.888, 246.614 655.589, 242.174 660.314 M 522.513 673.500 C 521.681 675.425, 520.312 678.591, 519.471 680.537 L 517.943 684.073 527.721 683.787 L 537.500 683.500 540.192 678 C 541.672 674.975, 542.910 672.104, 542.942 671.621 C 542.974 671.130, 539.506 671.047, 535.096 671.431 C 529.885 671.886, 526.969 671.759, 526.537 671.060 C 525.357 669.150, 524.052 669.941, 522.513 673.500 M 357.015 673.889 C 336.480 681.237, 346.651 703.995, 378 720.847 C 409.053 737.540, 449.735 742.051, 466.731 730.685 C 479.716 722.003, 473.104 707.672, 451.009 696.611 C 440.033 691.117, 440.218 691.022, 439.102 702.706 C 438.486 709.156, 437.990 710.612, 435.753 712.536 C 425.901 721.011, 390.823 710.684, 384.549 697.463 L 382.810 693.797 386.905 685.949 C 389.157 681.633, 391 677.481, 391 676.723 C 391 674.840, 382.581 672.972, 371.500 672.395 C 364.238 672.017, 361.441 672.306, 357.015 673.889 M 218.455 675.455 C 217.105 676.805, 216 679.075, 216 680.500 C 216 684.076, 220.161 688, 223.955 688 C 228.061 688, 231 684.887, 231 680.539 C 231 673.644, 223.361 670.548, 218.455 675.455 M 565.184 682.998 C 556.159 684.922, 547.780 691.964, 541.945 702.527 C 537.738 710.143, 534.618 714.013, 532.711 713.978 C 532.045 713.966, 530.434 713.136, 529.131 712.134 C 527.233 710.674, 525.941 710.471, 522.631 711.112 C 520.359 711.553, 515.688 711.932, 512.250 711.956 C 508.813 711.980, 506 712.380, 506 712.845 C 506 714.162, 509.043 716.552, 514.500 719.522 C 517.250 721.018, 521.862 723.571, 524.750 725.194 L 530 728.147 530.015 723.823 C 530.051 713.888, 533.945 715.290, 536.390 726.118 C 538.438 735.183, 544.990 747.733, 551.253 754.587 C 557.453 761.370, 567.441 766.472, 578.500 768.505 C 582.900 769.314, 606.075 772.431, 630 775.432 C 653.925 778.432, 692.175 783.236, 715 786.107 C 777.380 793.952, 789.473 793.620, 804.461 783.652 C 814.695 776.845, 820.373 771.216, 821.743 766.517 C 822.452 764.087, 823.494 761.812, 824.060 761.463 C 825.863 760.348, 828.025 763.050, 827.382 765.614 C 827.008 767.102, 827.220 768, 827.944 768 C 830.469 768, 843 764.798, 843 764.153 C 843 763.775, 839.288 762.151, 834.750 760.544 C 830.212 758.936, 825.356 756.469, 823.957 755.061 C 822.559 753.652, 818.059 746.914, 813.957 740.087 C 799.788 716.501, 790.463 709.737, 766.364 705.567 C 757.688 704.066, 666.058 692.119, 616.500 686.027 C 588.747 682.615, 571.701 681.609, 565.184 682.998 M 513.464 693.250 C 512.119 696.138, 511.015 698.956, 511.010 699.514 C 511.003 700.191, 514.297 700.228, 520.936 699.626 L 530.872 698.726 532.936 693.927 C 534.071 691.288, 535 688.875, 535 688.565 C 535 688.254, 530.704 688, 525.454 688 L 515.908 688 513.464 693.250 M 611.333 711.087 C 609.591 711.597, 607.004 713.396, 605.583 715.084 C 603.049 718.095, 603 718.448, 603 733.626 C 603 758.671, 601.328 757.506, 645.036 762.917 C 717.240 771.856, 726.986 773, 730.925 773 C 734.203 773, 735.781 772.311, 738.765 769.579 L 742.500 766.159 742.821 751.131 C 743.088 738.668, 742.856 735.499, 741.465 732.567 C 739.553 728.538, 734.619 725.100, 729.791 724.432 C 723.513 723.563, 662.389 716.050, 641 713.518 C 629.175 712.118, 618.375 710.790, 617 710.566 C 615.625 710.343, 613.075 710.577, 611.333 711.087 M 610.652 720.086 C 609.352 721.942, 609 724.858, 609 733.772 C 609 747.371, 610.136 750.424, 615.756 751.920 C 618.826 752.738, 677.087 760.029, 721.722 765.181 C 736.081 766.839, 736 766.929, 736 749.345 C 736 737.391, 735.794 735.794, 734.025 734.025 C 731.505 731.505, 732.040 731.606, 702.500 728.058 C 688.750 726.406, 666.250 723.673, 652.500 721.984 C 638.750 720.295, 624.081 718.646, 619.902 718.320 C 612.724 717.760, 612.213 717.857, 610.652 720.086 M 354.685 728.250 C 339.677 746.745, 341.006 772.714, 357.842 789.920 C 376.572 809.061, 408.631 809.326, 427.463 790.494 C 436.955 781.002, 442.564 765.373, 440.436 754.349 L 439.500 749.500 434.487 749.206 L 429.474 748.912 429.451 756.706 C 429.433 763.078, 428.924 765.595, 426.662 770.500 C 418.838 787.468, 400.162 795.801, 382.028 790.416 C 375.152 788.374, 370.542 785.413, 365.201 779.610 C 358.552 772.385, 356.598 767.167, 356.545 756.500 C 356.507 748.837, 356.886 746.676, 359.101 741.954 C 360.532 738.904, 363.116 734.799, 364.843 732.832 L 367.983 729.255 364.013 726.627 C 361.830 725.182, 359.613 724, 359.088 724 C 358.563 724, 356.582 725.913, 354.685 728.250 M 375.016 738.634 C 370.233 744.082, 368.047 749.599, 368.022 756.290 C 367.986 765.713, 373.449 773.603, 383 777.921 C 398.860 785.092, 418 772.940, 418 755.699 C 418 748.390, 417.105 747.554, 406.545 745.011 C 398.782 743.141, 387.865 739.277, 379.398 735.404 C 378.792 735.126, 376.820 736.580, 375.016 738.634" stroke="none" fill="black" fill-rule="evenodd"/>
</svg>