<svg xmlns="http://www.w3.org/2000/svg" width="100%" height="auto" viewBox="0 0 1024 1024" version="1.1">
	<path d="M 447.924 148.578 C 445.550 151.103, 445.494 151.570, 445.192 171.078 L 444.883 191 451.942 191 L 459 191 459 175 L 459 159 539.505 159 L 620.011 159 619.755 247.750 L 619.500 336.500 553.432 336.757 L 487.364 337.014 485.458 340.757 C 484.410 342.816, 483.390 344.837, 483.193 345.250 C 482.995 345.663, 513.696 346, 551.417 346 L 620 346 620 435.500 L 620 525 545 525 C 501.635 525, 470 525.377, 470 525.893 C 470 526.385, 471.482 529.422, 473.293 532.643 L 476.586 538.500 635.543 538.783 C 722.969 538.939, 796.013 538.797, 797.862 538.467 C 799.711 538.137, 802.298 536.793, 803.612 535.479 L 806 533.091 806 341.998 L 806 150.905 803.354 148.452 L 800.708 146 625.528 146 L 450.349 146 447.924 148.578 M 628.461 160.250 C 628.198 160.938, 628.100 200.875, 628.242 249 L 628.500 336.500 710.500 336.500 L 792.500 336.500 792.755 247.750 L 793.011 159 710.974 159 C 646.266 159, 628.837 159.264, 628.461 160.250 M 301.527 198.114 C 286.946 200.237, 270.444 207.700, 257.432 218.054 C 237.538 233.884, 223.103 265.033, 231.264 274.521 C 233.757 277.419, 233.191 277.321, 265.968 280.496 C 279.028 281.761, 283.263 282.547, 286.430 284.295 C 291.008 286.823, 294.535 291.560, 296.062 297.231 C 297.030 300.827, 296.909 301.355, 294.626 303.471 C 291.163 306.680, 290.834 309.570, 291.189 333.669 C 291.480 353.479, 291.638 355.025, 293.643 357.734 C 295.237 359.888, 295.536 361.077, 294.810 362.375 C 292.135 367.154, 267.422 428.998, 259.841 449.882 C 247.048 485.126, 240.930 506.042, 237.576 526 C 233.352 551.131, 232.813 563.972, 233.204 630 C 233.602 697.272, 233.408 694.966, 239.728 707.446 C 243.025 713.956, 252.125 722.828, 259.030 726.264 C 270.677 732.060, 271.526 732.106, 360.371 731.775 L 441.500 731.474 447.420 729.232 C 456.371 725.843, 461.199 722.656, 467.031 716.286 C 473.114 709.641, 476.426 703.064, 478.587 693.335 C 480.710 683.780, 481.795 601.867, 480.080 580.641 C 477.531 549.092, 469.929 531.495, 451.225 513.851 C 447.475 510.314, 436.124 500.913, 426.001 492.960 C 415.877 485.007, 406.118 477.030, 404.315 475.234 C 396.772 467.723, 395.856 461.117, 400.960 451.050 C 405.307 442.478, 404.856 437.123, 399.159 429.636 C 393.796 422.589, 392.998 420.796, 393.010 415.816 C 393.021 410.771, 396.118 403.978, 402.134 395.803 C 405.545 391.168, 406.411 389.091, 406.778 384.665 C 407.377 377.434, 405.806 373.137, 399.850 365.715 C 396.019 360.943, 395.063 359.074, 395.652 357.517 C 396.072 356.408, 396.563 344.720, 396.743 331.544 C 397.058 308.536, 396.988 307.475, 394.979 304.758 C 392.782 301.787, 392.937 299.515, 395.627 295.250 C 396.948 293.155, 397.752 293, 407.273 293.005 L 417.500 293.009 421.796 301.421 C 431.908 321.219, 445.777 338.335, 458.927 347.243 C 463.305 350.209, 468.172 349.516, 473.660 345.145 C 481.224 339.120, 482.505 337.300, 482.457 332.645 C 482.426 329.570, 481.414 326.960, 478.537 322.532 C 470.529 310.206, 462.778 290.727, 459.625 275 C 456.941 261.614, 456.909 262.174, 460.398 261.449 C 462.104 261.094, 464.545 260.141, 465.822 259.332 C 467.252 258.425, 475.107 257.113, 486.266 255.917 C 505.354 253.872, 508.314 252.934, 510.045 248.383 C 511.655 244.147, 511.253 212.389, 509.547 209.091 C 507.471 205.076, 504.522 204.247, 486 202.474 C 473.863 201.313, 468.538 200.380, 465.864 198.947 C 462.344 197.062, 459.745 197.004, 384.864 197.122 C 342.314 197.189, 304.812 197.635, 301.527 198.114 M 700.301 248.036 C 670.155 278.345, 656.402 292.838, 656.184 294.528 C 655.947 296.371, 656.523 297.281, 658.493 298.179 C 661.061 299.349, 662.073 298.418, 706.059 254.441 C 730.776 229.728, 751 208.809, 751 207.954 C 751 205.732, 748.964 204, 746.351 204 C 744.717 204, 732.136 216.031, 700.301 248.036 M 299.365 212.493 C 284.285 215.773, 272.625 222.375, 260.500 234.500 C 251.376 243.624, 244.848 253.982, 243.390 261.649 L 242.790 264.798 252.645 265.497 C 284.739 267.775, 293.154 270, 300.525 278.160 C 304.615 282.687, 308.494 290.469, 309.543 296.250 L 310.223 300 344.643 300 C 376.546 300, 379.103 299.872, 379.617 298.250 C 382.183 290.147, 388.134 280.843, 395.491 273.428 C 407.736 261.087, 422.588 254.189, 445.679 250.116 L 455.500 248.384 455.772 229.692 L 456.044 211 380.772 211.079 C 321.995 211.142, 304.156 211.451, 299.365 212.493 M 469.615 214.814 C 468.918 215.942, 469.394 242.730, 470.124 243.459 C 470.467 243.801, 476.698 243.388, 483.969 242.541 C 491.241 241.693, 497.387 241, 497.627 241 C 497.867 241, 497.937 235.713, 497.782 229.250 L 497.500 217.500 488 216.338 C 482.775 215.698, 476.607 214.922, 474.294 214.613 C 471.980 214.303, 469.875 214.394, 469.615 214.814 M 723.224 273.250 C 708.724 287.688, 696.426 300.288, 695.895 301.250 C 694.551 303.687, 696.508 307, 699.292 307 C 701.965 307, 755 254.463, 755 251.815 C 755 249.908, 752.416 247, 750.722 247 C 750.098 247, 737.723 258.813, 723.224 273.250 M 431.506 267.339 C 427.208 268.715, 424.396 270.182, 424.210 271.147 C 423.831 273.116, 428.694 285.441, 434.119 296.258 C 440.100 308.186, 446.758 317.340, 456.456 326.971 C 464.504 334.963, 465.083 335.346, 466.696 333.732 C 468.309 332.119, 468.277 331.810, 466.132 328.261 C 456.963 313.094, 449.219 292.021, 444.999 270.750 C 443.946 265.443, 443.652 265.004, 441.179 265.050 C 439.706 265.078, 435.353 266.108, 431.506 267.339 M 409 278.969 C 409 279.501, 409.675 279.678, 410.500 279.362 C 411.325 279.045, 412 278.609, 412 278.393 C 412 278.177, 411.325 278, 410.500 278 C 409.675 278, 409 278.436, 409 278.969 M 305 331 L 305 348 308 348 L 311 348 311 331 L 311 314 308 314 L 305 314 305 331 M 321 331 L 321 348 325.500 348 L 330 348 330 331 L 330 314 325.500 314 L 321 314 321 331 M 340 331 L 340 348 344.500 348 L 349 348 349 331 L 349 314 344.500 314 L 340 314 340 331 M 359 331 L 359 348 363.500 348 L 368 348 368 331 L 368 314 363.500 314 L 359 314 359 331 M 378 331 L 378 348 381 348 L 384 348 384 331 L 384 314 381 314 L 378 314 378 331 M 445 421.760 L 445 500.831 451.361 506.415 C 454.859 509.487, 458.009 512, 458.361 512 C 458.712 512, 459 476.520, 459 433.157 L 459 354.313 453.750 349.983 C 450.863 347.601, 447.712 344.986, 446.750 344.171 C 445.086 342.762, 445 346.558, 445 421.760 M 710 346 L 628.500 346.500 628.256 435.750 L 628.011 525 710.506 525 L 793 525 793 435.559 C 793 386.366, 792.663 345.979, 792.250 345.809 C 791.837 345.639, 754.825 345.725, 710 346 M 308.335 364.750 C 307.727 366.262, 302.535 378.975, 296.796 393 C 266.289 467.557, 254.077 504.542, 249.580 536 C 246.369 558.466, 245.751 576.443, 246.245 632.937 C 246.713 686.297, 246.817 688.764, 248.876 695.153 C 251.590 703.575, 257.837 710.791, 265.797 714.700 L 271.500 717.500 356 717.500 C 436.712 717.500, 440.721 717.415, 445.441 715.594 C 451.260 713.350, 458.150 707.306, 461.599 701.421 C 466.560 692.957, 466.964 687.732, 466.977 632 C 466.991 569.140, 466.168 561.317, 457.774 544.503 C 451.371 531.680, 445.176 525.497, 413 499.825 C 393.208 484.033, 391.082 481.924, 386.934 473.969 C 383.385 467.161, 383.535 455.386, 387.263 448.283 C 388.768 445.414, 390 442.380, 390 441.542 C 390 440.703, 388.407 437.930, 386.459 435.378 C 381.115 428.378, 379.718 424.420, 379.620 416 C 379.509 406.505, 380.816 402.847, 387.754 393.244 C 395.329 382.760, 395.261 381.585, 386.450 370.653 L 379.500 362.030 344.469 362.015 L 309.438 362 308.335 364.750 M 732 380.756 C 731.175 381.010, 713.737 397.929, 693.250 418.354 C 668.382 443.146, 656 456.173, 656 457.545 C 656 460.043, 657.802 462, 660.103 462 C 662.057 462, 735.847 389.564, 737.002 386.512 C 738.323 383.021, 735.436 379.699, 732 380.756 M 706.476 451.146 C 683.847 473.546, 674 483.946, 674 485.446 C 674 488.162, 675.799 490, 678.456 490 C 681.292 490, 745 426.281, 745 423.444 C 745 420.910, 743.184 419, 740.776 419 C 739.721 419, 725.246 432.567, 706.476 451.146 M 337.376 531.861 C 330.351 560.701, 322.356 569.078, 294.174 577.128 C 288.028 578.883, 283 580.697, 283 581.160 C 283 581.622, 283.617 582, 284.371 582 C 287.037 582, 305.941 587.826, 311.435 590.341 C 319.080 593.842, 327.062 601.653, 330.844 609.336 C 333.763 615.264, 340 636.881, 340 641.068 C 340 643.975, 341.870 643.389, 342.612 640.250 C 350.744 605.826, 354.815 598.610, 370.393 591.001 C 374.735 588.881, 383.172 585.878, 389.143 584.328 C 395.114 582.778, 400 581.187, 400 580.793 C 400 580.399, 398.087 579.595, 395.750 579.005 C 360.800 570.186, 351.428 561.416, 344.987 531.500 C 343.147 522.955, 341.951 518.999, 341.211 519.018 C 340.820 519.027, 339.094 524.807, 337.376 531.861 M 508 623.368 C 500.516 625.054, 496.945 627.119, 492.205 632.504 C 487.663 637.665, 485.397 644.826, 486.374 650.934 C 486.707 653.021, 493.575 671.552, 501.636 692.114 C 509.697 712.676, 519.742 738.325, 523.959 749.110 C 532.702 771.476, 536.387 777.355, 545.256 783.087 C 557.574 791.049, 548.376 790.500, 669.500 790.500 C 790.940 790.500, 783.170 790.982, 790.380 783.001 C 794.508 778.432, 795.691 773.546, 794.223 767.130 C 793.178 762.567, 793.198 762.510, 797.034 758.969 C 801.337 754.996, 803 751.520, 803 746.500 C 803 741.214, 801.631 738.696, 791.684 725.686 C 786.560 718.984, 769.523 696.400, 753.824 675.500 C 738.124 654.600, 723.762 636.019, 721.908 634.209 C 717.531 629.937, 710.981 626.136, 704.600 624.165 C 700.138 622.787, 687.869 622.561, 606.500 622.359 C 535.451 622.183, 512.202 622.421, 508 623.368 M 506.271 635.953 C 501.396 638.178, 498.009 643.001, 498.004 647.724 C 497.998 652.618, 538.865 757.175, 543.551 764.256 L 546.141 768.170 549.089 763.521 C 551.355 759.947, 553.352 758.271, 557.725 756.269 L 563.412 753.665 674.500 753.582 C 779.083 753.505, 785.745 753.396, 788.293 751.727 C 793.250 748.480, 792.156 745.048, 781.847 731.500 C 776.825 724.900, 760.344 703.075, 745.222 683 C 730.100 662.925, 716.149 644.840, 714.221 642.812 C 712.293 640.783, 708.416 638.083, 705.607 636.812 L 700.500 634.500 605.500 634.261 C 513.494 634.030, 510.367 634.083, 506.271 635.953 M 650.126 659.623 C 649.565 661.755, 648.565 665.750, 647.904 668.500 C 644.484 682.727, 637.715 689.269, 622 693.534 C 618.425 694.504, 615.134 695.619, 614.687 696.011 C 614.240 696.404, 616.817 697.465, 620.414 698.368 C 631.423 701.133, 637.527 703.861, 641.444 707.765 C 646.152 712.458, 647.137 714.378, 650.537 725.500 C 652.050 730.450, 653.610 734.864, 654.003 735.308 C 654.395 735.753, 655.254 733.278, 655.911 729.808 C 659.843 709.029, 664.657 703.581, 683.875 698.163 C 687.931 697.019, 691.443 695.890, 691.679 695.654 C 691.915 695.418, 689.721 694.665, 686.804 693.980 C 679.249 692.207, 669.365 688.396, 665.875 685.911 C 661.427 682.744, 658.396 677.245, 655.360 666.836 C 653.862 661.701, 652.301 657.105, 651.891 656.623 C 651.481 656.140, 650.687 657.490, 650.126 659.623 M 205.560 660.250 C 203.683 662.038, 199.919 667.775, 197.195 673 C 194.471 678.225, 187.857 690.825, 182.497 701 C 177.138 711.175, 170.272 724.225, 167.241 730 C 164.209 735.775, 159.592 744.550, 156.980 749.500 C 154.368 754.450, 142.673 776.725, 130.991 799 C 119.308 821.275, 107.331 844.038, 104.375 849.584 C 97.855 861.817, 97.365 866.138, 101.918 871.234 L 104.836 874.500 509.168 874.792 C 785.408 874.992, 914.636 874.757, 917.087 874.051 C 925.050 871.756, 927.106 864.131, 922.225 855 C 919.868 850.591, 890.722 795.398, 857.008 731.500 C 854.397 726.550, 846.964 712.375, 840.490 700 C 822.125 664.892, 820.271 661.555, 817.960 659.462 C 815.910 657.607, 813.952 657.484, 781.896 657.212 C 763.253 657.054, 748 657.219, 748 657.578 C 748 657.938, 749.613 660.430, 751.585 663.116 L 755.170 668 783.008 668 L 810.846 668 821.923 688.899 C 828.015 700.393, 833 710.068, 833 710.399 C 833 710.730, 823.400 711, 811.667 711 C 799.933 711, 790.057 711.276, 789.720 711.613 C 789.383 711.950, 790.068 713.525, 791.242 715.113 L 793.376 718 815.066 718 C 831.232 718, 837.003 718.318, 837.728 719.250 C 838.263 719.938, 842.672 728.150, 847.524 737.500 C 852.376 746.850, 859.419 760.328, 863.173 767.451 C 866.928 774.575, 870 780.762, 870 781.201 C 870 781.641, 854.078 782, 834.619 782 L 799.237 782 796.568 785.500 L 793.898 789 834.257 789 L 874.615 789 877.788 795.250 C 879.534 798.688, 883.716 806.675, 887.083 813 C 902.254 841.500, 913 862.021, 913 862.494 C 913 862.777, 861.407 862.894, 798.349 862.754 L 683.698 862.500 681.464 854 C 680.235 849.325, 676.686 835.600, 673.578 823.500 C 666.671 796.613, 666.823 797, 663.188 797 C 658.496 797, 657.783 792.229, 668.937 835.500 C 672.340 848.700, 675.351 860.288, 675.629 861.250 C 676.109 862.912, 667.610 863, 507.067 863 C 414.080 863, 338 862.798, 338 862.550 C 338 862.078, 354.460 804.752, 358.615 790.750 C 359.091 789.149, 361.148 788.996, 382.817 788.958 L 406.500 788.917 410.417 785.458 L 414.333 782 388.167 782 C 367.317 782, 362 781.735, 362 780.695 C 362 779.978, 364.473 770.641, 367.495 759.945 C 370.517 749.250, 372.992 739.938, 372.995 739.250 C 372.998 738.499, 371.669 738, 369.663 738 L 366.327 738 362.062 752.750 C 359.717 760.862, 356.854 770.763, 355.699 774.750 L 353.599 782 253.229 782 L 152.859 782 160.563 767.250 C 164.801 759.138, 171.440 746.425, 175.317 739 C 179.195 731.575, 183.415 723.813, 184.696 721.750 L 187.025 718 213.105 718 L 239.184 718 237.287 714.750 L 235.390 711.500 212.798 711 L 190.205 710.500 200.852 690.475 C 206.709 679.461, 211.864 669.899, 212.309 669.225 C 212.818 668.454, 215.689 668, 220.059 668 L 227 668 227 662.500 L 227 657 217.985 657 C 209.181 657, 208.891 657.076, 205.560 660.250 M 477.210 713.930 C 475.995 715.574, 475 717.162, 475 717.460 C 475 717.757, 481.751 718, 490.003 718 L 505.006 718 503.681 714.750 L 502.357 711.500 490.889 711.220 L 479.420 710.940 477.210 713.930 M 469.604 755 C 469.312 755.825, 467.856 760.100, 466.369 764.500 C 461.010 780.350, 455.954 785.441, 441.084 789.954 C 435.813 791.554, 430.038 793.154, 428.250 793.511 C 426.462 793.867, 425 794.465, 425 794.839 C 425 795.212, 428.488 796.302, 432.750 797.260 C 442.467 799.445, 451.550 803.750, 455.680 808.128 C 459.499 812.177, 462.211 818.784, 464.580 829.809 C 465.549 834.314, 466.606 838, 466.931 838 C 467.256 838, 469.036 833.084, 470.886 827.076 C 474.757 814.510, 478.128 808.832, 484.098 804.823 C 488.228 802.049, 499.824 797.874, 507.285 796.474 C 509.340 796.089, 511.229 795.439, 511.481 795.030 C 511.734 794.622, 508.227 793.306, 503.689 792.107 C 494.141 789.585, 485.514 785.811, 482.151 782.684 C 478.749 779.521, 475.541 772.585, 473.508 764 C 471.386 755.035, 470.397 752.757, 469.604 755 M 564.419 766.075 C 557.124 768.193, 556.013 774.854, 562.503 777.566 C 567.679 779.728, 773.361 779.712, 778.538 777.548 C 783.057 775.660, 784.561 771.986, 782.471 767.944 L 780.949 765 674.224 765.090 C 614.720 765.140, 566.137 765.576, 564.419 766.075 M 527.110 785.489 C 530.160 788.629, 531.046 788.980, 535.945 788.989 L 541.391 789 537.570 785.500 C 534.265 782.473, 533.071 782, 528.734 782 L 523.719 782 527.110 785.489 M 141.447 803.750 C 137.200 811.862, 132.505 820.750, 131.012 823.500 C 124.979 834.616, 111 861.765, 111 862.366 C 111 862.720, 160.350 862.894, 220.666 862.754 L 330.333 862.500 335.200 845.500 C 337.877 836.150, 342.284 820.850, 344.993 811.500 C 347.701 802.150, 350.210 793.263, 350.567 791.750 L 351.217 789 250.192 789 L 149.168 789 141.447 803.750" stroke="none" fill="black" fill-rule="evenodd"/>
</svg>