<svg xmlns="http://www.w3.org/2000/svg" width="100%" height="auto" viewBox="0 0 1024 1024" version="1.1">
	<path d="M 280 173.935 C 271.540 176.518, 265.391 181.688, 262.081 189 C 260.071 193.441, 260.044 194.981, 260.022 306.250 C 260.010 368.263, 259.870 419, 259.711 419 C 259.553 419, 257.658 418.100, 255.500 417 C 251.909 415.169, 249.603 415, 228.256 415 C 203.351 415, 200.377 415.476, 195.132 420.298 C 189.810 425.190, 189.046 428.875, 189.022 449.750 L 189 469 186.516 469 C 185.149 469, 182.562 470.312, 180.766 471.916 L 177.500 474.832 177 489.340 C 176.551 502.370, 176.282 504.084, 174.364 506.174 C 167.058 514.129, 154.163 539.108, 148.629 556.024 C 140.873 579.729, 137.676 624.645, 137.704 709.500 C 137.723 766.949, 138.704 786.462, 142.021 795.326 C 146.073 806.157, 156.751 815.137, 169.535 818.467 C 178.364 820.767, 297.693 820.752, 306.530 818.450 C 320.921 814.702, 330.182 804.615, 334.027 788.500 L 335.697 781.500 438.599 781.809 L 541.500 782.117 547.009 803.809 C 550.039 815.739, 553.100 826.887, 553.811 828.583 C 555.659 832.989, 561.565 838.729, 567.442 841.831 L 572.500 844.500 605.500 844.500 C 636.882 844.500, 638.721 844.397, 643 842.408 C 654.152 837.224, 657.485 831.915, 663.028 810.500 C 665.306 801.700, 667.876 793.712, 668.740 792.750 C 670.031 791.311, 672.038 791, 680.034 791 L 689.758 791 694.629 799.684 C 697.435 804.687, 702.043 810.939, 705.500 814.434 C 715.348 824.390, 712.633 824.014, 774.500 823.983 C 824.987 823.957, 827.705 823.863, 831.823 821.994 C 838.876 818.793, 841.908 816.136, 848.226 807.614 C 859.160 792.867, 868.544 769.902, 872.176 749 C 874.100 737.932, 873.782 711.540, 871.593 700.500 C 865.202 668.275, 849.070 639.818, 827.500 622.721 L 822.500 618.758 822 606.957 C 821.544 596.206, 821.284 594.927, 819.076 592.578 C 817.742 591.160, 816.109 590, 815.446 590 C 814.564 590, 814.125 584.975, 813.810 571.250 C 813.317 549.767, 812.350 546.229, 805.220 539.806 C 799.141 534.331, 793.393 533, 775.818 533 L 761 533 761 484.500 L 761 436 764.790 436 C 769.727 436, 778.970 433.566, 784.236 430.880 C 786.532 429.708, 790.944 426.333, 794.041 423.380 C 806.995 411.024, 810.725 391.693, 803.240 375.700 C 799.699 368.132, 792.591 360.017, 786.249 356.300 C 780.470 352.913, 770.834 350, 765.411 350 L 761 350 761 272.366 C 761 214.336, 760.693 193.693, 759.784 190.616 C 759.016 188.016, 756.676 184.597, 753.432 181.333 C 744.347 172.192, 767.852 172.989, 510.068 173.086 C 384.906 173.133, 281.375 173.515, 280 173.935 M 282.500 185.733 C 281.400 186.008, 279.256 187.116, 277.735 188.196 C 271.911 192.328, 272 191.444, 272 245.450 L 272 295 510.527 295 L 749.053 295 748.777 244.080 L 748.500 193.160 746 190.451 C 740.629 184.632, 756.427 184.990, 510.782 185.116 C 386.327 185.180, 283.600 185.457, 282.500 185.733 M 498.582 210.480 C 491.541 213.375, 484.824 219.581, 481.245 226.500 C 477.546 233.651, 476.974 245.294, 479.936 253.147 C 482.899 261.002, 488.712 267.240, 496.755 271.200 C 509.473 277.461, 523.492 275.081, 534.008 264.876 C 542.397 256.735, 545.815 243.757, 542.539 232.487 C 536.860 212.952, 516.890 202.954, 498.582 210.480 M 328.167 220.974 C 314.492 221.443, 312.680 221.710, 311.417 223.441 C 310.300 224.971, 310 229.869, 310 246.556 C 310 266.463, 310.124 267.888, 312.073 270.365 L 314.145 273 359.500 273 L 404.855 273 406.980 270.298 C 409.022 267.702, 409.093 266.748, 408.803 245.832 C 408.556 228.086, 408.223 223.799, 407 222.612 C 405.769 221.418, 399.931 221.093, 374.500 220.802 C 357.450 220.607, 336.600 220.685, 328.167 220.974 M 501.309 222.533 C 487.387 229.471, 485.492 247.841, 497.664 257.875 C 510.764 268.672, 530.515 260.045, 531.795 242.968 C 533.050 226.207, 516.371 215.027, 501.309 222.533 M 610.766 233.918 C 607.982 236.405, 607.500 237.509, 607.500 241.395 C 607.500 247.230, 610.816 250.897, 616.819 251.703 C 620.548 252.203, 621.283 251.917, 624.472 248.728 C 629.337 243.863, 629.379 239.179, 624.600 234.400 C 620.108 229.908, 615.436 229.745, 610.766 233.918 M 652.528 234.272 C 647.663 239.137, 647.621 243.821, 652.400 248.600 C 656.379 252.579, 659.889 252.975, 664.775 249.996 C 673.361 244.761, 670.354 232.662, 660.126 231.290 C 656.462 230.799, 655.704 231.096, 652.528 234.272 M 696.500 232.161 C 690.615 235.397, 689.048 243.602, 693.415 248.314 C 699.882 255.292, 711 251.287, 711 241.980 C 711 236.830, 709.740 234.434, 706.020 232.510 C 702.602 230.743, 699.299 230.621, 696.500 232.161 M 322 246.500 L 322 261 359.500 261 L 397 261 397 246.500 L 397 232 359.500 232 L 322 232 322 246.500 M 815.324 268.577 C 796.876 275.381, 791.439 300.647, 805.487 314.290 C 818.905 327.322, 840.210 324.442, 849.658 308.320 C 853.207 302.265, 854.022 291.963, 851.479 285.305 C 849.293 279.581, 842.991 272.550, 837.545 269.758 C 832.245 267.040, 821.097 266.448, 815.324 268.577 M 820.914 278.925 C 810.696 282.144, 805.635 294.759, 811.250 303.010 C 815.115 308.688, 818.440 310.500, 825 310.500 C 831.560 310.500, 834.885 308.688, 838.750 303.010 C 841.854 298.450, 841.852 290.561, 838.747 285.952 C 834.891 280.230, 826.839 277.057, 820.914 278.925 M 272 388.118 L 272 469.236 275 472.653 C 277.997 476.066, 278 476.082, 278 488.795 L 278 501.520 288.117 511.510 C 330.022 552.891, 346.629 610.294, 333.502 668.389 L 331.097 679.036 332.996 687.768 C 335.956 701.383, 337.248 720.834, 336.858 745.949 L 336.500 769 437.750 769 L 539 769 539 766.423 C 539 764.917, 540.197 762.649, 541.881 760.965 C 543.466 759.381, 545.073 756.828, 545.452 755.292 C 546.460 751.218, 550.822 747.118, 554.925 746.391 C 556.891 746.043, 559.625 744.711, 561 743.432 C 562.375 742.153, 565.134 740.423, 567.132 739.589 C 570.004 738.389, 570.896 737.371, 571.392 734.722 C 572.096 730.970, 577.019 725.681, 581.315 724.061 C 582.863 723.478, 586.051 723, 588.398 723 C 592.224 723, 592.915 722.615, 595.082 719.277 C 598.224 714.439, 604.280 711.038, 609.790 711.016 C 614.834 710.997, 621.315 714.025, 623.558 717.449 C 625.051 719.727, 625.550 719.838, 631.947 719.301 C 637.863 718.805, 639.293 719.037, 642.924 721.077 C 648.064 723.966, 650.737 728.124, 651.736 734.783 C 652.382 739.087, 653.039 740.238, 655.985 742.217 C 660.052 744.951, 663.960 751.318, 663.984 755.250 C 664 757.987, 664.034 758, 671 758 C 674.850 758, 678 757.804, 678 757.565 C 678 757.326, 677.282 753.839, 676.404 749.815 C 674.134 739.406, 674.111 714.270, 676.361 702.500 C 682.627 669.722, 699.585 638.971, 719.967 623.427 L 725 619.589 725.004 608.545 C 725.008 596.603, 726.551 591.912, 730.931 590.522 C 732.921 589.890, 733.002 589.170, 733.044 571.683 C 733.074 559.128, 733.502 552.339, 734.427 549.748 C 736.375 544.289, 740.551 539.270, 745.058 536.970 L 749 534.959 749 483.997 L 749 433.034 744.077 430.539 C 733.279 425.067, 724.058 411.950, 722.083 399.250 C 719.403 382.018, 729.296 362.320, 744.250 355.111 L 749 352.822 749 329.911 L 749 307 510.500 307 L 272 307 272 388.118 M 497.500 329.681 C 440.807 334.569, 389.525 365.720, 359.539 413.483 C 312.228 488.841, 322.793 585.395, 385.292 648.832 C 448.556 713.046, 546.816 720.799, 618.544 667.236 C 648.712 644.708, 671.913 612.106, 683.829 575.500 C 700.694 523.692, 694.971 467.204, 668.140 420.634 C 659.563 405.748, 652.082 396.128, 638.500 382.523 C 620.373 364.364, 603.155 352.468, 582.238 343.651 C 555.135 332.226, 525.205 327.292, 497.500 329.681 M 498.500 341.598 C 424.327 349.134, 366.671 398.721, 347.462 471.500 C 339.165 502.936, 340.475 539.111, 351.068 571.062 C 366.502 617.619, 402.545 657.548, 446.500 676.786 C 505.179 702.467, 571.407 692.202, 621.062 649.730 C 647.362 627.234, 667.664 593.740, 676.358 558.500 C 684.515 525.438, 683.147 491.164, 672.386 459 C 667.663 444.884, 657.458 424.602, 649.240 413 C 641.210 401.663, 622.440 382.413, 612 374.807 C 582.574 353.369, 551.384 342.514, 516.500 341.570 C 508.800 341.362, 500.700 341.374, 498.500 341.598 M 754.205 363.829 C 744.029 367.469, 736.094 376.411, 733.973 386.629 C 729.886 406.319, 747.008 425.724, 766.678 423.694 C 777.628 422.564, 787.450 415.809, 792.220 406.127 C 795.427 399.618, 795.480 385.410, 792.320 379.460 C 789.313 373.799, 783.149 367.735, 777.743 365.118 C 771.186 361.944, 761.030 361.388, 754.205 363.829 M 489.097 380.612 C 484.475 381.386, 475.990 383.594, 470.240 385.518 C 424.258 400.905, 391.473 438.598, 380.832 488.312 C 377.925 501.895, 377.716 527.119, 380.401 540.473 C 390.294 589.683, 422.612 628.641, 467.587 645.569 C 499.124 657.440, 536.182 655.938, 566.554 641.559 C 582.351 634.080, 591.940 627.280, 604.562 614.607 C 616.746 602.373, 625.282 590.363, 631.579 576.594 L 635.500 568.018 645.327 568.009 C 654.849 568, 655.244 567.909, 658.077 565.077 L 661 562.154 661 517.031 L 661 471.909 658.545 469.455 C 656.283 467.192, 655.346 467, 646.553 467 L 637.015 467 632.494 457.324 C 613.423 416.513, 576.018 387.363, 533.973 380.544 C 522.332 378.657, 500.569 378.689, 489.097 380.612 M 855.634 389.031 C 850.542 390.556, 845.339 394.961, 842.528 400.125 C 840.123 404.544, 839.832 406.018, 840.172 412.041 C 840.492 417.698, 841.093 419.671, 843.567 423.192 C 847.349 428.572, 851.755 431.568, 857.787 432.859 C 871.237 435.738, 883.647 426.302, 884.807 412.314 C 886.128 396.384, 871.107 384.395, 855.634 389.031 M 496 391.682 C 467.495 396.352, 445.713 407.388, 426.126 427.085 C 409.210 444.095, 396.723 468.005, 392.594 491.290 C 390.798 501.414, 390.223 506, 390.748 506 C 390.969 506, 394.154 504.230, 397.825 502.068 C 412.588 493.370, 429.193 490.843, 444.869 494.906 C 458.425 498.420, 466.216 503.013, 481.500 516.498 C 492.163 525.906, 499.346 530.817, 509.430 535.594 C 523.286 542.157, 533.735 544.437, 549.500 544.336 C 566.262 544.229, 577.736 541.369, 594 533.245 L 605.500 527.500 606 504 C 606.553 478.017, 606.773 477.041, 613.375 471.244 C 615.287 469.565, 618.235 467.888, 619.926 467.516 C 621.617 467.145, 623 466.417, 623 465.898 C 623 463.664, 614.704 448.799, 608.968 440.755 C 586.519 409.271, 550.150 390.736, 511.611 391.136 C 504.400 391.211, 497.375 391.457, 496 391.682 M 856.567 400.946 C 851.158 404.512, 849.578 410.349, 852.494 415.989 C 856.531 423.795, 867.448 424.235, 871.996 416.775 C 878.369 406.321, 866.651 394.299, 856.567 400.946 M 203.455 429.455 C 201.025 431.884, 201 432.098, 201 450.455 L 201 469 228 469 L 255 469 255 450.455 C 255 432.098, 254.975 431.884, 252.545 429.455 L 250.091 427 228 427 L 205.909 427 203.455 429.455 M 514.332 427.902 C 508.680 429.350, 502.293 433.843, 499.160 438.572 C 490.409 451.783, 494.267 468.782, 507.824 476.751 C 511.883 479.137, 513.556 479.498, 520.500 479.483 C 529.990 479.462, 534.803 477.384, 540.338 470.918 C 548.599 461.267, 549.101 448.303, 541.612 438 C 535.772 429.966, 523.706 425.499, 514.332 427.902 M 514.401 439.905 C 508.517 442.578, 505.500 447.245, 505.500 453.677 C 505.500 459.528, 507.506 463.005, 513.092 466.839 C 519.249 471.065, 528.075 468.799, 533.438 461.615 C 536.442 457.591, 536.278 449.590, 533.099 445.133 C 530.660 441.714, 524.138 438.044, 520.500 438.044 C 519.400 438.044, 516.655 438.882, 514.401 439.905 M 808.303 459.645 C 798.852 462.993, 791.652 473.739, 791.652 484.500 C 791.652 499.704, 803.070 511.125, 818.270 511.125 C 826.027 511.125, 830.350 509.486, 835.962 504.415 C 842.521 498.490, 844.465 493.936, 844.465 484.500 C 844.465 478.191, 844.002 475.628, 842.274 472.372 C 839.436 467.023, 832.173 460.668, 827.193 459.176 C 821.952 457.606, 813.464 457.816, 808.303 459.645 M 812.450 470.352 C 808.812 472.002, 804.244 477.180, 803.376 480.637 C 802.445 484.346, 803.545 490.515, 805.644 493.354 C 806.665 494.735, 809.136 496.795, 811.136 497.932 C 823.502 504.964, 837.984 491.794, 832.218 478.760 C 828.753 470.926, 819.688 467.070, 812.450 470.352 M 620.174 481.314 C 618.031 483.596, 618 484.108, 618 517.204 C 618 548.756, 618.115 550.921, 619.909 553.139 C 621.719 555.377, 622.527 555.517, 635.409 555.827 L 649 556.155 649 517.577 L 649 479 635.674 479 C 623.038 479, 622.236 479.120, 620.174 481.314 M 189.678 480.655 C 189.305 481.028, 189 484.633, 189 488.667 L 189 496 227.889 496 L 266.777 496 266.639 488.250 L 266.500 480.500 228.428 480.238 C 207.489 480.094, 190.051 480.282, 189.678 480.655 M 561.500 486.890 C 554.258 490.232, 551 495.457, 551 503.727 C 551 513.335, 558.988 521, 569 521 C 581.813 521, 590.492 508.348, 585.933 496.315 C 583.609 490.181, 575.891 485.044, 569 485.044 C 567.075 485.044, 563.700 485.875, 561.500 486.890 M 563.073 498.635 C 560.614 501.761, 560.512 503.155, 562.465 506.932 C 565.137 512.100, 573.421 511.762, 575.870 506.385 C 577.452 502.914, 577.298 501.649, 574.927 498.635 C 573.329 496.602, 571.973 496, 569 496 C 566.027 496, 564.671 496.602, 563.073 498.635 M 418.870 506.060 C 410.626 508.011, 399.297 514.241, 392.865 520.360 C 389.765 523.310, 389.809 526.147, 393.205 542.500 C 399.512 572.875, 418.158 601.379, 443.593 619.529 C 451.341 625.058, 467.191 633.024, 476 635.817 C 499.577 643.292, 525.610 643.285, 549 635.797 C 577.121 626.795, 604.868 603.036, 618.390 576.383 C 620.375 572.469, 622 568.847, 622 568.334 C 622 567.821, 620.475 566.851, 618.612 566.177 C 611.346 563.549, 606.060 555.207, 606.022 546.308 L 606 541.116 596.493 545.529 C 560.580 562.197, 522.491 559.762, 490.342 538.743 C 486.579 536.282, 478.550 529.908, 472.500 524.577 C 456.451 510.436, 443.898 504.854, 428.701 505.100 C 425.290 505.156, 420.867 505.587, 418.870 506.060 M 185.712 510.931 C 174.993 523.670, 162.401 549.085, 157.568 567.740 C 150.956 593.256, 146.726 705.304, 150.092 765.793 C 151.386 789.056, 152.641 793.571, 159.597 799.983 C 168.206 807.918, 163.809 807.466, 235.373 807.785 C 308.799 808.113, 306.789 808.306, 314.939 800.156 C 317.897 797.198, 320.279 793.631, 321.304 790.622 C 324.113 782.376, 325.315 761.720, 324.684 732.509 C 324.106 705.768, 323.969 704.446, 319.314 680.759 C 319.018 679.252, 319.706 674.527, 320.842 670.259 C 328.270 642.371, 327.396 608.676, 318.538 581.500 C 314.740 569.846, 305.146 550.839, 297.850 540.512 C 294.358 535.569, 286.231 526.232, 279.791 519.762 L 268.082 508 228.130 508 L 188.178 508 185.712 510.931 M 260.500 545.356 C 256.421 547.244, 253.531 550.576, 250.821 556.512 C 248.854 560.824, 248.555 563.059, 248.623 573 C 248.782 596.463, 258.632 623.825, 272.714 639.923 C 284.868 653.817, 299.180 654.177, 306.560 640.775 C 309.332 635.739, 309.460 634.955, 309.369 623.500 C 309.141 594.552, 294.615 559.110, 278.273 547.624 C 273.317 544.141, 265.328 543.121, 260.500 545.356 M 752.270 546.483 C 745.902 549.251, 745.008 552.359, 745.004 571.750 L 745 589 773.500 589 L 802 589 801.978 572.750 C 801.952 553.589, 800.661 549.010, 794.564 546.462 C 789.690 544.426, 756.965 544.441, 752.270 546.483 M 262.276 559.250 C 259.354 564.598, 259.888 582.784, 263.341 595.500 C 267.398 610.441, 274.789 624.860, 282.378 632.637 C 289.166 639.594, 292.246 640.596, 295.566 636.927 C 298.042 634.191, 298.669 623.394, 297.013 612.015 C 294.643 595.736, 286.728 575.209, 278.498 563.998 C 274.270 558.238, 271.070 556, 267.061 556 C 264.696 556, 263.671 556.697, 262.276 559.250 M 465.753 558.517 C 457.396 561.586, 451.023 569.517, 449.523 578.713 C 448.533 584.791, 451.210 593.117, 455.790 598.202 C 467.857 611.599, 489.664 607.805, 496.767 591.073 C 498.716 586.480, 498.859 577.483, 497.053 573 C 491.957 560.348, 478.156 553.962, 465.753 558.517 M 469 568.653 C 466.610 569.612, 462.931 573.268, 461.405 576.200 C 459.547 579.771, 459.631 583.420, 461.670 587.717 C 463.899 592.413, 468.342 594.992, 474.215 594.996 C 482.860 595.003, 489.316 586.603, 487.072 578.267 C 485.509 572.462, 481.131 568.787, 475.297 568.383 C 472.659 568.200, 469.825 568.321, 469 568.653 M 539.020 585.250 C 532.938 588.358, 530.714 591.769, 530.226 598.737 C 529.889 603.556, 530.210 605.069, 532.185 607.976 C 536.235 613.936, 540.621 616.238, 547.065 615.788 C 553.759 615.320, 558.184 612.520, 561.023 606.956 C 563.620 601.864, 563.521 597.300, 560.697 591.960 C 558.096 587.041, 551.718 583, 546.555 583 C 544.833 583, 541.442 584.013, 539.020 585.250 M 194.500 591.016 C 182.296 593.511, 173.463 601.671, 170.442 613.239 C 169.662 616.225, 168.572 624.931, 168.019 632.584 C 166.476 653.954, 165.750 713.999, 166.745 738 C 167.524 756.818, 167.897 759.999, 169.730 763.500 C 172.618 769.018, 177.656 773.917, 183 776.405 C 187.363 778.436, 188.902 778.500, 233.500 778.500 C 278.995 778.500, 279.545 778.476, 283.616 776.298 C 290.036 772.864, 293.866 769.180, 296.799 763.620 L 299.500 758.500 299.492 733 L 299.484 707.500 296.718 700.955 C 293.059 692.299, 286.846 685.400, 276.681 678.705 C 255.207 664.562, 240.253 644.114, 230.457 615.500 C 228.951 611.100, 226.471 605.676, 224.946 603.446 C 218.639 594.224, 205.348 588.797, 194.500 591.016 M 542.635 595.073 C 539.468 597.563, 539.209 601.209, 542 604 C 545.963 607.963, 552 605.246, 552 599.500 C 552 597.134, 551.330 595.644, 549.777 594.557 C 546.860 592.513, 545.791 592.590, 542.635 595.073 M 737 608 L 737 615 773.500 615 L 810 615 810 608 L 810 601 773.500 601 L 737 601 737 608 M 191.239 603.653 C 186.765 605.859, 182.277 611.219, 181.123 615.737 C 178.796 624.850, 177.552 656.110, 177.591 704.500 C 177.635 760.939, 177.468 759.633, 185.331 764.839 L 189.350 767.500 228.925 767.814 C 250.691 767.987, 270.903 767.837, 273.839 767.481 C 280.387 766.687, 286.052 762.108, 287.831 756.171 C 289.262 751.394, 289.359 722.259, 287.976 712.692 C 286.330 701.309, 282.437 696.022, 269.226 687.232 C 245.369 671.357, 231.018 650.974, 218.879 615.722 C 217.149 610.698, 212.860 605.636, 208.634 603.630 C 204.266 601.558, 195.467 601.569, 191.239 603.653 M 729.360 631.346 C 707.618 647.469, 691.485 678.141, 687.314 711.282 C 685.910 722.444, 685.841 726.193, 686.849 736.449 C 687.501 743.077, 688.508 750.615, 689.087 753.200 L 690.141 757.900 714 758.200 C 736.281 758.480, 738.041 758.636, 740.618 760.562 C 750.268 767.774, 750.321 781.446, 740.724 787.804 C 736.809 790.398, 736.023 790.519, 719.868 791 L 703.081 791.500 707.790 798.394 C 710.381 802.186, 714.229 806.686, 716.342 808.394 L 720.184 811.500 772.842 811.768 C 833.310 812.075, 828.923 812.713, 837.291 802.403 C 842.773 795.649, 851.748 778.574, 854.848 769 C 863.082 743.569, 864.123 718.559, 857.958 694.280 C 851.385 668.396, 836.077 643.427, 819.754 631.963 L 812.686 627 773.953 627 L 735.220 627 729.360 631.346 M 770.824 670.750 C 770.007 671.712, 768.061 674.750, 766.500 677.500 C 764.939 680.250, 760.192 687.694, 755.950 694.043 C 745.943 709.021, 742.365 716.242, 740.964 724.285 C 738.357 739.255, 744.922 752.233, 759.212 760.360 C 761.804 761.834, 766.032 764.864, 768.607 767.092 C 773.946 771.713, 774.573 771.709, 784.774 766.987 C 797.437 761.125, 806.578 748.420, 807.692 735.134 C 808.726 722.801, 804.726 712.052, 792.566 694.485 C 789.133 689.527, 784.188 681.765, 781.575 677.235 C 776.533 668.494, 774.024 666.981, 770.824 670.750 M 764.191 699.472 C 751.676 718.739, 748.631 727.201, 751.019 736.069 C 752.751 742.502, 756.058 746.660, 764.173 752.608 C 775.410 760.843, 775.020 760.734, 781.529 757.441 C 787.677 754.331, 791.781 750.219, 795.227 743.722 C 797.011 740.356, 797.463 737.877, 797.453 731.500 C 797.442 724.643, 796.998 722.572, 794.349 717 C 791.224 710.430, 775.454 685.652, 774.186 685.321 C 773.809 685.222, 769.311 691.590, 764.191 699.472 M 603.495 722.414 C 602.168 723.742, 600.800 726.104, 600.457 727.664 C 599.191 733.416, 599.342 733.308, 593.733 732.495 C 586.514 731.450, 584.986 731.621, 582.052 733.803 C 578.301 736.592, 578.432 739.123, 582.461 741.668 C 585.556 743.624, 586.019 743.682, 587.196 742.259 C 589.117 739.937, 596.026 737.047, 599.716 737.022 C 601.485 737.010, 604.480 737.738, 606.371 738.640 C 609.649 740.203, 609.970 740.182, 613.206 738.182 C 615.879 736.530, 616.877 735.006, 617.900 731.014 C 619.260 725.706, 618.894 724.426, 615.108 721.250 C 612.520 719.079, 606.196 719.713, 603.495 722.414 M 630.357 727.954 C 627.847 729.011, 625 732.767, 625 735.022 C 625 735.903, 626.480 737.134, 628.357 737.812 C 630.203 738.480, 632.466 739.857, 633.385 740.873 C 635.010 742.669, 635.169 742.665, 639.029 740.756 C 642.264 739.155, 643 738.264, 643 735.951 C 643 730.221, 635.795 725.663, 630.357 727.954 M 617.181 745.251 C 615.465 746.077, 615.024 746.904, 615.483 748.433 C 615.825 749.570, 616.365 752.188, 616.684 754.250 L 617.263 758 636.073 758 C 646.418 758, 655.093 757.658, 655.352 757.240 C 656.378 755.580, 652.969 750.035, 649.968 748.483 C 646.168 746.518, 642.809 747.141, 638.740 750.565 C 634.885 753.809, 632.391 753.656, 630.531 750.061 C 627.664 744.516, 622.543 742.671, 617.181 745.251 M 594.888 746.500 C 592.041 748.047, 589.616 752.767, 590.175 755.671 C 590.485 757.281, 591.602 757.500, 599.514 757.500 L 608.500 757.500 608.327 754.013 C 608.202 751.511, 607.281 749.746, 605.061 747.763 C 601.642 744.708, 598.827 744.359, 594.888 746.500 M 566.589 750.077 C 565.165 751.769, 564 754.244, 564 755.577 C 564 757.962, 564.143 758, 573 758 L 582 758 582 754.573 C 582 750.131, 578.260 747, 572.954 747 C 569.965 747, 568.638 747.641, 566.589 750.077 M 616.250 769.757 C 580.362 769.899, 551 770.249, 551 770.536 C 551 770.822, 553.947 782.818, 557.548 797.192 C 561.654 813.580, 564.880 824.427, 566.199 826.280 C 567.356 827.904, 570.147 830.071, 572.401 831.095 C 576.096 832.772, 579.390 832.958, 605.800 832.978 C 646.302 833.008, 644.572 834.068, 652.453 804.399 C 657.243 786.369, 658.487 784.127, 665.500 780.890 C 669.122 779.218, 672.530 779.042, 701.550 779.022 C 725.119 779.006, 733.918 778.682, 734.800 777.800 C 736.366 776.234, 736.338 772.524, 734.750 771.211 C 733.116 769.860, 698.361 769.434, 616.250 769.757" stroke="none" fill="black" fill-rule="evenodd"/>
</svg>