<svg xmlns="http://www.w3.org/2000/svg" width="100%" height="auto" viewBox="0 0 1024 1024" version="1.1">
	<path d="M 707.500 103.744 C 701.244 105.990, 693.820 111.059, 690.596 115.285 C 683.647 124.396, 680.642 137.667, 685 140 C 688.061 141.638, 690.802 139.643, 691.541 135.238 C 693.295 124.789, 699.223 116.871, 708.177 113.019 C 714.835 110.155, 726.243 110.496, 732.500 113.747 C 740.291 117.794, 746.043 126.166, 747.563 135.666 C 748.871 143.850, 743.007 157.009, 735.748 162.180 C 733.961 163.453, 728.675 166.520, 724 168.997 L 715.500 173.500 715.224 188.149 C 715.034 198.197, 714.563 203.111, 713.724 203.794 C 712.569 204.734, 688.443 217.333, 599.500 263.444 C 578.600 274.280, 559.982 284.575, 558.128 286.322 C 552.787 291.355, 550.017 298.257, 550.032 306.500 C 550.051 317.659, 555.165 325.826, 565 330.405 L 569.500 332.500 722 332.500 L 874.500 332.500 879.688 329.765 C 888.653 325.037, 893.005 317.526, 892.990 306.800 C 892.978 297.604, 890.142 291.055, 883.726 285.407 C 880.490 282.560, 856.435 269.963, 801.050 242.115 L 722.938 202.839 723.219 191.243 L 723.500 179.648 732 174.774 C 742.711 168.631, 748.245 163.248, 752.304 155.021 C 755.286 148.976, 755.500 147.837, 755.500 138.021 C 755.500 127.934, 755.358 127.239, 752.070 121.174 C 748.167 113.974, 742.995 109.123, 735.111 105.266 C 727.908 101.742, 715.051 101.033, 707.500 103.744 M 148.741 131.429 C 140.034 134.536, 139 137.139, 139 155.950 C 139 169.667, 138.823 171.177, 137 173 C 135.361 174.639, 135 176.333, 135 182.378 C 135 187.788, 135.409 190.095, 136.534 191.028 C 137.860 192.129, 137.488 192.628, 133.784 194.715 C 127.136 198.459, 120.437 205.653, 117.324 212.390 L 114.500 218.500 114.240 419.389 L 113.981 620.278 116.330 625.389 C 119.547 632.385, 122.885 636.066, 129.167 639.546 L 134.500 642.500 308.886 642.761 L 483.272 643.022 488.886 640.455 C 498.637 635.995, 504.013 629.089, 505.923 618.566 C 507.332 610.802, 507.401 232.549, 505.995 222.828 C 504.403 211.818, 501.373 205.629, 487.277 184.588 C 471.962 161.728, 470.637 160.128, 462.779 154.983 C 451.733 147.752, 453.135 147.858, 373.500 148.198 L 302.500 148.500 296.219 151.400 C 290.892 153.860, 287.405 156.898, 273.259 171.400 L 256.580 188.500 256.040 181.828 C 255.637 176.852, 254.945 174.564, 253.318 172.828 C 251.293 170.667, 251.114 169.338, 250.818 154.267 L 250.500 138.033 247.412 134.948 C 245.714 133.251, 242.564 131.454, 240.412 130.955 C 238.260 130.456, 217.600 130.057, 194.500 130.068 C 161.948 130.083, 151.654 130.390, 148.741 131.429 M 149.441 140.417 C 147.702 141.687, 147.466 143.350, 147.176 156.417 L 146.852 171 194.926 171 L 243 171 243 156.655 C 243 144.028, 242.781 142.112, 241.171 140.655 C 239.528 139.168, 234.883 139, 195.362 139 C 158.990 139, 151.046 139.245, 149.441 140.417 M 155.250 143.662 C 154.349 144.026, 154 147.461, 154 155.961 C 154 168.894, 154.874 171.208, 158.936 169.034 C 160.834 168.019, 161 167.022, 161 156.665 C 161 143.856, 160.057 141.723, 155.250 143.662 M 174.200 144.200 C 173.410 144.990, 173 149.217, 173 156.578 C 173 168.861, 173.920 171.183, 177.936 169.034 C 179.834 168.019, 180 167.022, 180 156.665 C 180 145.660, 179.319 143, 176.500 143 C 175.895 143, 174.860 143.540, 174.200 144.200 M 193.217 143.845 C 192.263 144.450, 192.006 147.695, 192.217 156.473 C 192.460 166.608, 192.757 168.444, 194.309 169.393 C 197.715 171.478, 199 167.810, 199 156.009 C 199 143.923, 197.631 141.044, 193.217 143.845 M 212.089 144.393 C 211.324 145.314, 211.029 149.600, 211.216 157.036 C 211.448 166.244, 211.803 168.477, 213.166 169.335 C 214.374 170.095, 215.268 170.022, 216.416 169.070 C 217.688 168.014, 218 165.556, 218 156.578 C 218 145.582, 217.320 143, 214.422 143 C 213.775 143, 212.725 143.627, 212.089 144.393 M 230.571 143.885 C 230.271 144.371, 229.907 150.009, 229.762 156.412 C 229.549 165.874, 229.781 168.235, 231 169.013 C 233.050 170.320, 233.611 170.246, 235.429 168.429 C 237.704 166.154, 237.704 146.846, 235.429 144.571 C 233.694 142.837, 231.418 142.515, 230.571 143.885 M 304.951 157.342 C 297.654 159.342, 294.336 161.998, 279.022 178.098 C 267.558 190.151, 263.395 193.858, 259.022 195.910 L 253.500 198.500 198 199 C 143.478 199.491, 142.429 199.538, 138.455 201.666 C 132.871 204.655, 126.682 211.657, 124.406 217.559 C 122.554 222.359, 122.500 228.166, 122.500 421 L 122.500 619.500 125.277 624.223 C 127.077 627.286, 129.714 629.923, 132.777 631.723 L 137.500 634.500 310 634.500 L 482.500 634.500 486.956 632 C 489.406 630.625, 492.781 627.549, 494.456 625.164 L 497.500 620.828 497.765 422.164 C 498.027 226.079, 498.005 223.414, 496.034 216.906 C 493.130 207.315, 467.564 169.093, 460.500 163.781 C 450.401 156.186, 454.533 156.560, 378 156.315 C 325.816 156.148, 308.416 156.392, 304.951 157.342 M 315.054 178.728 C 308.363 181.090, 302.318 187.924, 296.101 200.152 C 290.899 210.385, 290.722 210.995, 291.256 216.887 C 292.245 227.797, 298.697 235.401, 309.179 238.012 C 312.078 238.734, 331.760 238.991, 369 238.794 C 430.492 238.468, 426.483 238.899, 434.658 231.731 C 439.587 227.409, 447.008 211.601, 447.728 203.888 C 448.506 195.568, 446.048 189.128, 440.031 183.718 C 437.376 181.331, 433.418 178.843, 431.236 178.189 C 428.368 177.330, 412.325 177.022, 373.384 177.079 C 327.116 177.147, 318.872 177.380, 315.054 178.728 M 143 182.875 C 143 185.269, 143.501 185.850, 146 186.350 C 147.760 186.702, 149 187.581, 149 188.475 C 149 189.819, 154.418 190, 194.759 190 C 239.436 190, 240.548 189.953, 241.768 188 C 242.474 186.869, 244.100 186, 245.508 186 C 247.610 186, 248 185.531, 248 183 L 248 180 195.500 180 L 143 180 143 182.875 M 319.821 186.186 C 314.270 187.663, 309.623 192.544, 304.391 202.390 C 300.903 208.953, 299.667 212.389, 299.667 215.513 C 299.667 220.813, 302.506 225.804, 307.035 228.465 C 310.381 230.430, 312.279 230.510, 362.438 230.793 C 396.782 230.986, 416.072 230.721, 419.385 230.011 C 428.235 228.113, 432.273 223.529, 438.085 208.785 C 441.804 199.350, 438.533 190.964, 429.541 186.880 C 425.782 185.172, 421.946 185.050, 374.500 185.125 C 344.679 185.173, 321.972 185.613, 319.821 186.186 M 685 229.090 C 667.125 238.437, 632.785 256.256, 608.690 268.688 C 561.667 292.949, 561.218 293.251, 558.995 302.096 C 556.878 310.521, 560.677 318.587, 568.421 322.104 C 572.333 323.880, 578.598 323.957, 721 323.972 C 818.374 323.983, 870.757 323.640, 873.152 322.975 C 881.483 320.661, 886.553 310.481, 884.034 301.126 C 881.793 292.804, 880.676 292.147, 798.337 250.750 C 755.946 229.438, 720.416 212.022, 719.381 212.048 C 718.347 212.074, 702.875 219.743, 685 229.090 M 168.367 283.690 C 164.643 284.420, 158.446 290.569, 157.181 294.789 C 155.520 300.336, 155.478 553.144, 157.139 558.101 C 158.668 562.666, 161.677 565.884, 166.500 568.110 C 170.328 569.877, 176.487 569.956, 310 569.956 C 443.250 569.956, 449.679 569.874, 453.500 568.119 C 458.258 565.934, 460.390 563.704, 462.462 558.746 C 463.820 555.496, 463.995 540.028, 463.956 426.782 C 463.910 290.680, 464.022 294.053, 459.345 288.793 C 458.330 287.651, 455.700 285.891, 453.500 284.881 C 449.675 283.124, 443.385 283.049, 310 283.158 C 233.275 283.221, 169.540 283.461, 168.367 283.690 M 169.420 292.145 C 168.276 292.700, 166.589 294.426, 165.670 295.981 C 164.133 298.583, 164 308.999, 164 426.357 C 164 518.209, 164.313 554.592, 165.118 556.359 C 165.732 557.708, 167.645 559.550, 169.368 560.452 C 172.235 561.954, 184.215 562.068, 311.227 561.796 L 449.955 561.500 452.727 558.727 L 455.500 555.955 455.500 426.395 L 455.500 296.836 452.234 293.918 L 448.968 291 310.234 291.068 C 219.082 291.112, 170.787 291.481, 169.420 292.145 M 682.500 379.581 C 678.100 380.352, 662.800 383.037, 648.500 385.548 C 634.200 388.059, 621.058 390.746, 619.295 391.519 C 614.402 393.665, 613.210 396.651, 610.459 413.639 L 609.951 416.778 595.726 417.477 C 575.452 418.474, 562 422.486, 562 427.536 C 562 431.598, 576.771 436.466, 594 438.082 C 600.875 438.727, 606.815 439.535, 607.200 439.878 C 607.848 440.454, 605.758 462.812, 599.500 522.242 C 598.125 535.301, 597 546.642, 597 547.445 C 597 548.604, 595.998 548.787, 592.145 548.331 L 587.290 547.756 579.395 554.733 C 568.231 564.598, 562.327 571.200, 561.641 574.583 C 561.137 577.068, 556.283 607.108, 550.546 643.239 C 548.393 656.802, 548.503 659.642, 551.250 661.365 C 553.099 662.525, 569.115 665.195, 613.203 671.695 C 618.675 672.501, 621.660 671.425, 622.736 668.256 C 623.250 666.740, 626.782 646.924, 630.583 624.221 L 637.495 582.942 630.602 569.721 C 626.810 562.449, 622.842 555.537, 621.784 554.360 C 620.412 552.836, 617.837 551.921, 612.830 551.177 C 608.964 550.604, 605.619 549.952, 605.397 549.730 C 605.174 549.508, 605.902 541.040, 607.013 530.913 C 608.124 520.786, 610.620 496.564, 612.558 477.087 C 614.497 457.610, 616.256 441.394, 616.468 441.052 C 616.679 440.710, 619.248 440.671, 622.176 440.965 L 627.500 441.500 628.060 454 C 628.534 464.606, 629.013 467.360, 631.220 472.175 C 637.090 484.984, 647.111 491.838, 661.196 492.676 C 673.132 493.387, 678.157 495.235, 682.947 500.677 C 692.998 512.096, 693.908 523.893, 688.525 573 C 686.505 591.425, 684.236 612.515, 683.481 619.867 C 682.147 632.872, 682 633.399, 678.055 639.274 C 673.182 646.530, 672.663 651.721, 676.274 657.078 C 682.021 665.607, 690.260 667.572, 716.413 666.652 C 726.361 666.302, 736.525 665.761, 739 665.448 L 743.500 664.881 746.500 671.111 C 751.718 681.946, 760.200 686.400, 779.265 688.316 C 799.636 690.363, 821.010 686.849, 833.894 679.335 C 841.387 674.965, 850.466 665.545, 854.401 658.057 C 862.336 642.957, 862.984 627.423, 856.475 608.338 C 852.621 597.037, 838.057 558.069, 826.449 528 C 816.876 503.201, 817.092 503.842, 817.044 500.116 C 816.915 490.169, 824.064 480.863, 834.281 477.680 C 843.591 474.779, 851.963 474.587, 868.242 476.903 C 891.026 480.144, 895.799 479.593, 901.270 473.091 C 905.363 468.226, 906.210 463.309, 905.836 446.572 C 905.521 432.454, 905.323 431.141, 902.710 425.818 C 899.567 419.417, 895.188 415.142, 888.092 411.547 C 878.628 406.751, 768.972 386.261, 716.699 379.522 C 702.504 377.691, 693.193 377.708, 682.500 379.581 M 676 389.251 C 669.675 390.376, 664.375 391.393, 664.222 391.510 C 664.068 391.627, 664.618 397.073, 665.443 403.612 C 666.269 410.150, 667.069 420.647, 667.222 426.938 L 667.500 438.377 670.500 439.128 C 673.634 439.912, 683.942 441.474, 746 450.567 C 856.684 466.784, 887.575 471.073, 889.761 470.524 C 891.087 470.191, 893.288 468.803, 894.652 467.439 C 897.123 464.968, 897.130 464.901, 896.816 448.152 C 896.508 431.772, 896.431 431.241, 893.772 427.228 C 887.958 418.451, 881.186 416.527, 810.500 403.569 C 720.213 387.018, 700.407 384.910, 676 389.251 M 639.054 396.110 C 630.558 397.679, 623.029 399.542, 622.322 400.249 C 621.020 401.551, 619 410.300, 619 414.636 C 619 416.771, 619.436 417, 623.500 417 C 626.720 417, 628.590 416.410, 630.073 414.927 C 631.938 413.062, 632.366 412.998, 634.323 414.294 C 636.231 415.556, 636.562 416.893, 637 425.117 L 637.500 434.500 642.500 435.018 C 648.673 435.657, 650 436.454, 650 439.524 C 650 442.759, 647.449 443.918, 641.744 443.275 L 637 442.740 637 452.936 C 637 464.898, 637.791 467.002, 642.285 466.994 C 653.083 466.976, 656.626 463.134, 658.161 449.779 C 659.685 436.519, 657.517 396.083, 655.164 393.878 C 654.799 393.536, 647.549 394.540, 639.054 396.110 M 691.270 397.715 C 686.424 398.625, 683.345 406.262, 686.282 410.087 C 689.601 414.410, 694.676 415.043, 698.644 411.630 C 705.189 406, 699.936 396.089, 691.270 397.715 M 617.667 425.667 C 617.300 426.033, 617 427.560, 617 429.060 C 617 432.180, 618.473 433, 624.082 433 C 627.986 433, 628 432.986, 628 429 L 628 425 623.167 425 C 620.508 425, 618.033 425.300, 617.667 425.667 M 581 426.933 C 578.717 427.602, 578.847 427.724, 582.500 428.336 C 587.743 429.214, 603.879 430.981, 606.750 430.992 C 608.486 430.998, 609 430.428, 609 428.500 L 609 426 596.250 426.100 C 589.237 426.155, 582.375 426.529, 581 426.933 M 666.530 453.750 C 664.912 467.036, 657.472 475, 646.676 475 L 643.651 475 646.076 477.632 C 650.018 481.912, 655.648 483.953, 663.576 483.978 C 669.838 483.997, 670.920 483.714, 672.990 481.510 C 675.898 478.416, 684.795 475, 689.948 475 C 700.310 475, 714.297 482.638, 722.928 493.010 C 733.185 505.334, 739.120 518.117, 750.493 552.381 C 760.098 581.316, 770.196 613.586, 772.583 622.969 C 774.595 630.881, 774.147 643.981, 771.705 648.644 C 769.172 653.480, 764.048 658.089, 758.256 660.740 C 755.365 662.064, 753 663.722, 753 664.425 C 753 666.631, 757.403 672.355, 760.925 674.728 C 766.860 678.728, 771.456 679.454, 791 679.478 C 807.601 679.498, 810.270 679.261, 817 677.169 C 837.323 670.853, 850.054 656.393, 852.421 636.935 C 853.878 624.957, 850.564 614.351, 823.854 545.500 L 809.500 508.500 809.519 499.500 C 809.536 491.722, 809.897 489.821, 812.180 485.500 C 815.059 480.051, 819.883 474.955, 824.337 472.659 L 827.174 471.197 824.337 470.623 C 822.777 470.307, 805.750 467.774, 786.500 464.993 C 767.250 462.213, 733.188 457.252, 710.808 453.969 C 688.427 450.686, 669.466 448, 668.673 448 C 667.665 448, 667.020 449.731, 666.530 453.750 M 682.585 485.658 C 679.868 487.130, 679.800 487.305, 681.585 488.247 C 685.337 490.227, 692.206 497.573, 694.511 502.071 C 701.657 516.020, 701.908 528.684, 696.122 583.500 C 690.115 640.410, 691.382 634.217, 683.021 647.549 C 681.676 649.693, 681.730 650.163, 683.616 652.704 C 687.076 657.366, 691.627 658.334, 710 658.315 C 738.487 658.286, 753.747 655.488, 760.109 649.126 C 768.317 640.918, 767.792 634.915, 755.370 595 C 735.833 532.218, 729.318 515.597, 718.718 501.500 C 708.058 487.324, 692.283 480.407, 682.585 485.658 M 579.769 565.901 L 569.836 575.500 567.016 593 C 565.465 602.625, 562.996 618.150, 561.530 627.500 C 560.065 636.850, 558.485 646.750, 558.021 649.500 C 557.557 652.250, 557.278 654.604, 557.403 654.731 C 557.527 654.858, 563.674 655.856, 571.064 656.948 C 578.454 658.041, 590.516 659.850, 597.869 660.968 C 605.222 662.085, 612.212 663, 613.402 663 C 615.435 663, 615.762 661.829, 618.781 643.750 C 620.549 633.163, 623.562 615.530, 625.476 604.566 L 628.955 584.632 622.425 572.322 C 615.591 559.440, 615.882 559.713, 607.848 558.643 C 604.227 558.162, 604.192 558.192, 603.819 562.104 C 603.536 565.066, 603.889 566.355, 605.236 567.275 C 608.195 569.296, 609.083 574.326, 607.159 578.177 C 605.912 580.675, 604.544 581.736, 601.652 582.450 C 592.366 584.743, 586.447 574.553, 593.164 567.836 C 594.395 566.605, 595.476 563.957, 595.754 561.492 C 596.220 557.357, 596.157 557.250, 592.966 556.782 C 589.959 556.340, 588.918 557.059, 579.769 565.901 M 389 671.105 C 368.925 671.600, 343.050 672.493, 331.500 673.091 C 319.950 673.688, 306.083 674.120, 300.685 674.050 C 278.173 673.758, 262.578 678.576, 260.606 686.432 C 260.052 688.641, 259.847 688.668, 247.272 688.215 C 237.504 687.863, 232.971 688.141, 228 689.398 C 213.220 693.136, 196.948 703.501, 189.429 713.965 C 186.344 718.260, 185.505 718.808, 181.119 719.390 C 175.186 720.177, 170.329 723.323, 167.852 727.984 C 164.394 734.491, 166.159 744.620, 171.480 748.806 C 173.676 750.533, 173.687 750.665, 172.286 758.528 C 171.322 763.940, 171.014 770.835, 171.327 780 C 171.848 795.227, 173.971 804.739, 179.539 816.791 L 182.935 824.141 180.382 827.999 C 178.978 830.121, 177.594 833.611, 177.306 835.756 C 175.928 846.028, 187.377 854.849, 197.228 851.103 C 199.230 850.342, 200.485 850.956, 205.543 855.174 C 217.859 865.443, 230.634 870, 247.105 870 L 258 870 258 885.826 C 258 900.961, 258.098 901.741, 260.250 903.709 C 266.388 909.321, 277.052 911.970, 293.500 911.970 C 306.269 911.970, 315.357 910.389, 321.965 907.018 C 329.046 903.405, 329 903.620, 329 874.445 L 329 848.335 332.725 845.918 C 334.773 844.588, 337.017 842.375, 337.710 841 C 338.678 839.080, 338.974 825.658, 338.985 783.109 L 339 727.719 360.250 728.354 C 371.938 728.703, 395.063 729.281, 411.639 729.637 C 441.084 730.271, 441.880 730.236, 446.205 728.143 C 453.806 724.463, 455 721.060, 455 703.081 C 455 688.951, 454.834 687.606, 452.528 683.055 C 448.701 675.503, 441.744 671.322, 431.879 670.644 C 428.371 670.403, 409.075 670.611, 389 671.105 M 386.500 679.053 C 373.850 679.429, 354.613 679.797, 343.750 679.869 C 332.887 679.941, 324 680.225, 324 680.500 C 324 680.775, 324.900 681.900, 326 683 C 327.322 684.322, 328 686.333, 328 688.933 C 328 691.930, 328.456 693.010, 329.916 693.473 C 334.396 694.895, 334.713 705.831, 330.358 708.685 C 327.178 710.769, 327.027 716.911, 330.108 718.836 C 333.228 720.784, 437.927 723.687, 442.141 721.942 C 447.265 719.819, 448.192 716.480, 447.826 701.473 C 447.452 686.166, 446.611 684.150, 438.980 680.250 C 434.057 677.735, 432.211 677.692, 386.500 679.053 M 278.177 683.396 C 271.709 685.037, 269.976 686.444, 272.043 688.376 C 277.592 693.560, 304.154 694.449, 313.746 689.771 C 317.726 687.830, 317.600 686.152, 313.338 684.334 C 308.125 682.109, 285.614 681.509, 278.177 683.396 M 422 687.200 C 406.674 691.449, 409.790 714.012, 425.700 713.996 C 433.204 713.989, 439.132 708.208, 439.244 700.788 C 439.393 690.955, 431.341 684.611, 422 687.200 M 421.635 695.073 C 416.354 699.227, 419.087 707, 425.829 707 C 432.383 707, 435.199 700.108, 430.545 695.455 C 427.547 692.456, 425.095 692.351, 421.635 695.073 M 228.373 696.979 C 214.031 700.739, 202.248 708.564, 193.985 719.815 L 189.075 726.500 183.451 726.500 C 178.529 726.500, 177.526 726.850, 175.414 729.306 C 173.720 731.274, 173 733.321, 173 736.166 C 173 739.656, 173.636 740.847, 177.565 744.721 C 180.075 747.196, 181.900 749.818, 181.620 750.548 C 179.145 756.997, 178.556 762.035, 178.584 776.500 C 178.612 791.040, 178.865 793.321, 181.358 801.500 C 182.867 806.450, 185.653 813.573, 187.551 817.330 C 189.448 821.086, 191 824.939, 191 825.892 C 191 826.844, 189.671 828.607, 188.046 829.808 C 182.405 833.978, 183.293 843.031, 189.495 844.588 C 190.853 844.929, 194.192 844.674, 196.914 844.021 L 201.864 842.833 208.423 848.398 C 220.484 858.629, 232.298 863, 247.894 863 C 257.167 863, 260.127 861.604, 253.250 860.475 C 220.578 855.107, 196.069 830.223, 188.771 795.010 C 187.217 787.508, 186.908 783.072, 187.310 774 C 187.943 759.706, 190.524 749.471, 196.637 737 C 207.433 714.979, 231.621 699, 254.160 699 C 261.339 699, 261.735 697.538, 254.951 696.083 C 247.505 694.486, 236.461 694.858, 228.373 696.979 M 267 710.109 L 267 724.949 269.750 726.360 C 274.278 728.684, 283.615 730.182, 293.579 730.182 C 304.948 730.182, 310.007 729.421, 316.250 726.770 L 321 724.754 321 710.032 L 321 695.310 315.250 697.389 C 310.340 699.164, 307.236 699.463, 294 699.436 C 280.902 699.410, 277.609 699.085, 272.750 697.337 L 267 695.269 267 710.109 M 243 707.593 C 203.059 718.203, 182.924 765.786, 200.120 808.926 C 209.589 832.679, 232.267 851.313, 254 853.197 C 257.129 853.468, 257.532 853.221, 257.805 850.866 C 258.027 848.952, 257.344 847.631, 255.305 846.032 C 251.172 842.790, 250.075 840.181, 250.035 833.494 L 250 827.488 245.007 825.198 C 236.804 821.434, 228.594 813.013, 223.985 803.634 C 215.883 787.148, 215.973 770.277, 224.246 754.708 C 228.046 747.555, 237.638 738.492, 244.723 735.359 C 249.550 733.224, 250 732.745, 250 729.735 C 250 725.698, 251.911 722.836, 256.499 720 C 259.862 717.922, 260 717.604, 260 711.918 L 260 706 254.250 706.066 C 251.088 706.102, 246.025 706.789, 243 707.593 M 867 724.121 C 850.163 726.056, 831.841 730.618, 798.500 741.176 C 758.861 753.730, 742.716 757.015, 720.387 757.071 L 707.796 757.103 702.648 753.572 C 689.098 744.280, 662.971 740.472, 629.500 742.913 C 585.982 746.086, 514.931 757.708, 490.500 765.650 C 479.866 769.107, 468.338 775.130, 463.662 779.672 C 457.031 786.112, 456.561 787.720, 456.172 805.308 C 455.830 820.783, 455.879 821.232, 458.515 826.620 L 461.208 832.124 458.403 849.058 L 455.598 865.993 457.796 870.516 C 463.381 882.013, 484.092 888.661, 517.500 889.679 C 550.625 890.689, 589.734 885.835, 644.592 873.905 C 686.737 864.741, 706.468 856.732, 711.666 846.680 C 713.243 843.630, 713.161 836.175, 711.431 825.262 C 710.845 821.564, 710.930 821.442, 716.467 818.098 C 729.183 810.417, 749.061 804.411, 771.307 801.528 C 777.802 800.687, 794.227 799.549, 807.807 799 C 868.810 796.534, 895.014 791.294, 908.561 778.853 C 915.757 772.246, 916.952 768.761, 916.978 754.315 C 917.002 740.761, 916.320 738.027, 911.689 733.125 C 903.812 724.788, 888.336 721.670, 867 724.121 M 258.198 728.202 C 255.010 731.390, 259.232 735.290, 269.640 738.774 C 276.920 741.211, 278.755 741.403, 294.500 741.375 C 310.244 741.347, 312.045 741.151, 318.875 738.729 C 326.724 735.946, 331 732.806, 331 729.826 C 331 727.377, 329.790 727.524, 325.397 730.505 C 310.668 740.500, 272.880 739.924, 262.040 729.539 C 259.986 727.570, 259.128 727.272, 258.198 728.202 M 868 731.639 C 866.625 731.841, 862.169 732.499, 858.098 733.100 C 847.052 734.733, 827.411 739.936, 800 748.491 C 762.055 760.333, 748.657 763.186, 724.500 764.566 L 712.500 765.251 712.832 778.874 C 713.015 786.367, 713.308 792.641, 713.483 792.816 C 713.658 792.991, 715.983 792.030, 718.651 790.681 C 730.948 784.458, 753.486 778.472, 773.653 776.072 C 778.687 775.473, 793.762 774.312, 807.153 773.493 C 856.302 770.487, 886.685 765.827, 899.237 759.370 C 914.595 751.470, 912.949 737.557, 896.068 732.596 C 891.042 731.119, 875.220 730.580, 868 731.639 M 326.300 743.727 C 310.440 750.925, 278.215 751.055, 262.230 743.984 C 259.764 742.893, 257.574 742, 257.363 742 C 257.153 742, 257.098 763.704, 257.240 790.231 L 257.500 838.461 261.500 840.652 C 275.287 848.200, 312.708 848.271, 326.312 840.774 L 330.500 838.465 331.240 814.983 C 331.646 802.067, 331.871 780.220, 331.740 766.433 L 331.500 741.367 326.300 743.727 M 876.762 742.073 C 871.537 745.117, 872.716 750.308, 879.017 752.005 C 885.801 753.831, 893 750.774, 893 746.066 C 893 743.212, 888.937 741, 883.750 741.030 C 880.862 741.047, 877.718 741.516, 876.762 742.073 M 242.691 745.081 C 230.432 753.201, 223.231 771.023, 225.935 786.549 C 228.083 798.883, 233.886 808.650, 242.913 815.120 C 245.890 817.254, 248.702 819, 249.163 819 C 249.623 819, 250 801.675, 250 780.500 C 250 749.153, 249.753 742, 248.671 742 C 247.941 742, 245.250 743.387, 242.691 745.081 M 621.500 751.078 C 577.452 755.189, 509.424 766.943, 490.620 773.692 C 466.899 782.207, 458.767 791.976, 468.147 800.692 C 471.916 804.195, 481.283 808.002, 491.776 810.296 C 500.270 812.153, 504.598 812.415, 526 812.367 C 553.138 812.305, 565.746 810.912, 611.500 802.915 C 669.970 792.696, 692.386 785.956, 701.518 775.848 C 705.474 771.469, 705.824 768.864, 703.065 764.338 C 700.585 760.271, 689.182 754.649, 679 752.472 C 669.886 750.524, 636.195 749.707, 621.500 751.078 M 905 764.096 C 891.954 772.276, 863.882 777.090, 809.500 780.475 C 763.931 783.311, 740.319 787.871, 720.500 797.664 C 711.420 802.151, 709.232 804.548, 709.797 809.389 C 710.035 811.425, 710.515 812.954, 710.865 812.787 C 711.214 812.620, 714.650 810.856, 718.500 808.867 C 740.365 797.572, 763.731 793.289, 816 790.996 C 868.161 788.707, 891.982 783.856, 904.340 773.006 C 907.907 769.874, 910.417 765.178, 909.839 762.717 C 909.576 761.598, 908.493 761.906, 905 764.096 M 702.003 785.144 C 693.603 792.131, 675.074 798.166, 641 805.012 C 555.312 822.228, 506.355 824.773, 476.565 813.561 C 472.878 812.173, 468.542 810.098, 466.931 808.951 L 464 806.864 464 814.797 C 464 821.283, 464.374 823.206, 466.052 825.339 C 468.930 828.997, 479.295 833.686, 490.224 836.273 C 498.602 838.256, 502.114 838.465, 526.500 838.436 C 554.988 838.402, 562.889 837.652, 600.500 831.413 C 664.805 820.746, 691.880 813.091, 701.651 802.814 C 704.484 799.835, 704.873 798.667, 705.505 791.250 C 705.892 786.712, 705.824 783.015, 705.354 783.033 C 704.884 783.052, 703.376 784.001, 702.003 785.144 M 702.494 817.500 C 702.742 820.250, 703.238 827.371, 703.597 833.325 C 704.041 840.700, 704.575 843.825, 705.272 843.128 C 706.401 841.999, 704.624 820.533, 702.977 815.408 C 702.208 813.016, 702.122 813.388, 702.494 817.500 M 692.309 817.649 C 689.469 818.814, 689.168 819.316, 689.565 822.229 C 689.811 824.028, 690.437 831.290, 690.957 838.368 C 691.477 845.445, 692.137 851.470, 692.424 851.757 C 692.711 852.045, 693.945 851.616, 695.167 850.805 C 697.250 849.422, 697.368 848.721, 697.082 839.416 C 696.915 833.962, 696.490 826.539, 696.139 822.920 L 695.500 816.341 692.309 817.649 M 677.116 823.081 L 674.733 824.034 675.437 838.767 C 676.383 858.560, 676.260 858.155, 680.838 856.553 C 684.396 855.307, 684.498 855.132, 684.428 850.385 C 684.389 847.698, 684.007 840.212, 683.580 833.750 C 682.742 821.084, 682.618 820.879, 677.116 823.081 M 662.250 827.124 C 659.236 827.989, 659.002 828.364, 659.031 832.279 C 659.079 839.012, 660.809 861.142, 661.327 861.660 C 661.586 861.919, 663.608 861.644, 665.821 861.048 L 669.843 859.965 669.349 852.733 C 667.832 830.541, 667.410 826.640, 666.500 826.426 C 665.950 826.296, 664.038 826.610, 662.250 827.124 M 645.126 830.722 L 642.752 831.172 643.477 848.336 C 643.875 857.776, 644.341 865.647, 644.511 865.827 C 645.199 866.553, 653.497 864.367, 653.463 863.468 C 653.442 862.936, 653.053 855.188, 652.599 846.250 C 651.686 828.305, 652.204 829.381, 645.126 830.722 M 629.598 833.868 L 626.696 834.500 626.917 849 C 627.038 856.975, 627.444 864.869, 627.818 866.542 C 628.492 869.548, 628.553 869.574, 632.897 868.705 L 637.293 867.824 636.647 857.257 C 636.291 851.444, 636 843.609, 636 839.844 C 636 832.399, 636.066 832.460, 629.598 833.868 M 467.596 838.775 C 466.187 845.728, 464 861.323, 464 864.417 C 464 866.976, 464.703 868.408, 466.750 870.019 L 469.500 872.184 471.165 858.342 C 473.424 839.564, 473.423 839.507, 470.574 837.640 C 468.228 836.103, 468.130 836.140, 467.596 838.775 M 613.250 836.723 L 610 837.127 610 848.917 C 610 855.401, 610.288 863.465, 610.641 866.837 C 611.265 872.812, 611.348 872.953, 613.891 872.391 C 620.417 870.948, 620 871.823, 620 859.579 C 620 845.248, 619.050 835.952, 617.608 836.160 C 616.998 836.248, 615.038 836.502, 613.250 836.723 M 595.750 839.716 L 593 840.133 593 853.427 C 593 860.739, 593.273 868.713, 593.607 871.147 C 594.211 875.553, 594.230 875.572, 597.857 875.189 C 599.861 874.978, 601.950 874.243, 602.500 873.557 C 603.105 872.802, 603.383 865.727, 603.203 855.655 C 602.872 837.064, 603.559 838.533, 595.750 839.716 M 479.533 842.325 C 479.238 843.326, 476.594 871.601, 476.524 874.500 C 476.486 876.092, 483.364 878.031, 484.123 876.641 C 484.465 876.014, 485.045 871, 485.411 865.500 C 485.777 860, 486.337 852.779, 486.656 849.454 L 487.234 843.408 483.557 842.279 C 480.772 841.424, 479.796 841.435, 479.533 842.325 M 577.250 842.662 C 576.317 843.039, 576 847.586, 576 860.583 L 576 878 578.750 877.986 C 580.263 877.979, 582.513 877.701, 583.750 877.370 C 585.974 876.774, 586 876.565, 586 859.383 L 586 842 582.250 842.079 C 580.188 842.122, 577.938 842.385, 577.250 842.662 M 560.750 844.689 C 559.168 845.103, 559 846.820, 559 862.628 L 559 880.110 563.750 879.805 L 568.500 879.500 568.773 861.750 L 569.046 844 565.773 844.116 C 563.973 844.180, 561.712 844.438, 560.750 844.689 M 493.946 846.750 C 493.916 847.712, 493.306 855.250, 492.589 863.500 C 491.873 871.750, 491.559 878.802, 491.893 879.172 C 492.227 879.542, 494.143 880.146, 496.150 880.515 C 499.574 881.144, 499.834 881.009, 500.348 878.343 C 500.649 876.779, 501.198 869.035, 501.566 861.132 C 502.297 845.481, 502.167 845.045, 496.750 845.015 C 494.812 845.005, 493.984 845.517, 493.946 846.750 M 542.667 846.667 C 542.300 847.033, 542 855.133, 542 864.667 L 542 882 544.750 881.986 C 546.263 881.979, 548.513 881.701, 549.750 881.370 C 551.974 880.774, 552 880.565, 552 863.383 L 552 846 547.667 846 C 545.283 846, 543.033 846.300, 542.667 846.667 M 509.590 850.250 C 509.314 852.038, 508.806 859.300, 508.460 866.389 C 508.114 873.477, 507.596 879.890, 507.308 880.639 C 506.907 881.685, 508.056 882, 512.280 882 L 517.775 882 517.902 870.250 C 517.972 863.788, 518.306 855.913, 518.644 852.750 L 519.258 847 514.674 847 C 510.272 847, 510.071 847.129, 509.590 850.250 M 525.652 857.656 C 525.293 863.516, 525 871.391, 525 875.156 L 525 882 530 882 L 535 882 535 864.500 L 535 847 530.652 847 L 526.304 847 525.652 857.656 M 265 874.387 L 265 898.029 268.166 899.955 C 273.400 903.138, 280.847 904.470, 293.500 904.485 C 306.126 904.501, 313.538 903.175, 318.834 899.955 L 322 898.029 322 874.403 L 322 850.777 318.250 851.491 C 300.945 854.781, 288.859 854.774, 269.250 851.462 L 265 850.744 265 874.387" stroke="none" fill="black" fill-rule="evenodd"/>
</svg>